<svg xmlns="http://www.w3.org/2000/svg" width="850" height="850" fill="none"><path fill="#303843" d="M442 68c3-2 7-2 10-3 4-1 6-4 3-7-4-4 1-6 2-9 0-2 4-4 7-2 2 1 4 1 5-1 1-3 2-5 1-8-1-1-2-2-3 0-1 1-2 2-4 1l-1-2c1-2 2-3 4-3 5 0 10 1 14 5 2 2 4 5 5-1l1-2 10 4c0 4 2 4 5 4 4-1 7 2 9 5v3c-2 8 3 14 11 15 3 0 3-3 4-4 1-3-1-7 2-8 2-2 4 2 7 2 3 1 5 2 6 4 4 7 11 9 17 13h1v2c1 4 3 6 6 4 5-2 10 0 15 0 2 0 6 4 6-3 0-2 9-2 11 0l6 5 2 1c8 0 17 3 25-1 4-2 8-3 12-1 2 0 3 1 3-2l1-2 2 2c0 3 1 2 3 2 3-1 6 0 8 2 5 4 10 8 12 13 2 3 2 5 2 8 0 5 0 10 5 13l1 4c-1 6-1 11 2 17l2 4v5c-3 5-3 10-3 16l-1 5c-1 1-3 2-2 4s3 2 5 2c5-2 8 1 10 5 3 3 3 6 3 9 0 6 3 10 6 13l10 12c0 3-2 3-4 3l-14 1c-6 0-12 8-10 14 1 3 3 4 6 3l5-1c6 3 10 0 13-4 5-5 6-6 12-1-2-4-6-7-3-12 4 0 7 2 8 5 3 5 7 9 13 12l3 2c0 5-2 6-6 5-3-2-5-2-7 2-1 4-4 4-7 4 2 1 5 1 6 4v2l-1 2c-2 2-6 3-9 3-3 1-6 2-7 5-1 4-4 6-8 7-8 0-16 0-22-7l-7-6c-3-3-12-1-15 1l-7 7c-2 1-4 2-5 0-2-2-1-4 1-6l7-6c2-3 3-5-2-7s-7-5-5-11c1-2-1-4-2-6-3-3-3-6-1-9h-6c-2-2-1-4 0-6l7-4c4-1 7-5 11-8 1-2 3-4-1-6-4-1-4-5-1-8 6-5 11-12 17-14l-11 8c-2 3-7 4-10 6-1 1-3 0-4-1v-4c1-2 3-4 6-5 5-1 8-5 12-8-2 2-4 4-7 4-4 2-9 1-12 6-2 3-5 2-9 1h-1l-4 1c-4-1-7 0-9 4 0 2-1 3-3 4h-2c-6-2-10 1-14 6-3 1-5-1-8-2l-1-2v-1c-1-4-1-6 2-9l13-5 16-7-11 2c-3-1-6-1-8 1l-4-1c-3-5 0-8 3-11v-3c-3-4 0-8 1-11l2-3 5-8c3-2 6-5 5-9l-3 1c-5 5-6 4-12 1-5-2-11-3-16-2-3 0-5 2-8 1l-3 2c-1 2-3 3-6 3-2-2-4-1-5 1s-2 3-5 3c-4-3-6-7-6-12 0-4-1-5-5-3-5 2-9-1-9-6l2-8c3-3 3-6 2-9-2-4 0-8 1-12l-3 2-12 10-1 5c0 4-2 7-6 8h-3c-3-3-6-3-8 0-3 4-4 8-1 11 2 4 0 7-1 10-2 3-4 4-7 4-4 0-6-3-6-6-1-6-4-10-2-16 1-2-1-3-3-2l-3 3c-4 3-7 4-10 2-2-2-3-8 0-11 4-3 1-8 3-12 1-2-1-3-2-3-5-2-6-5-4-9 1-4 4-7 4-12l-3 4c-2 3-3 4-6 4-2-1-3-3-3-5v-8c0 5 0 10-3 15h-6c-3 0-4-2-6-4-1-2-2-4-5-4l-3-1-1-3Z"/><path fill="#00080E" d="M268 691c0-2 0-3-2-3l-3 2-1 5c-2 1-3 2-4 1-4-1-8 1-12 3-7 0-7 0-5-6 1-1 0-3-1-4-2-2-3-1-4 1h-2c-3 0-5 0-6-3s0-5 3-7c2-1 4-4 8-4l-5 2c-2 1-4 2-6 0-2-1-1-3 0-5 2-4 1-7-2-9l-11-12-2-3c0-7-4-12-5-18-2-7-7-9-12-12 0 2 1 2 2 3l5 3c2 2 4 4 2 7s-5 3-7 1c-3-1-4-1-6 1-3 2-6 0-9-1-4-3-9-5-14-4l-5 2c-4 4-8 2-12 0-1 0-2-1-2-3s2-3 3-3c4 0 7-3 10-5l7-4c5-1 5-4 2-7-4-3-3-6-3-10 0 3 0 5-3 6-3 2-5-1-7-3-4-6-4-7 5-12l1-1h4c-3-1-6 0-7-5-2-3-2-7-2-10 0-4-3-7-6-5-7 3-12-1-17-5-2-2-3-2-5-1-5 2-10-2-9-7v-1c-5-4-5-9-1-14 2-2 2-6 6-8l-1-2-5-7c-1-2-3-3-5-3l-6-2c-4-4-8-7-12-8-3-1-4-3-4-6-1-10 0-21 2-31 0-3 1-5 4-5 4-1 5-4 5-8l1-8c-2-6-1-7 4-8 7 0 8 0 10 6-2 4-1 8-1 12 0 2 2 3 4 3 5 1 8 5 9 10l8 10 2 1 1 1 3 3c2 4 4 4 7 3l14-1c2-2 3-7 7-6 2 2 1 3 1 5l-2 6 3 11v5c0 8 4 14 7 21l5 4c5 3 10 6 12 12 3 5 4 9 3 15 0 7 2 13 4 19 1 3 4 4 7 4h6l4 1 4 4c1 4 0 9 5 11 3 0 5 1 8 3 2 2 4 4 4 6 2 4 4 6 8 5 3 1 4 1 5 4l4 5c2 4 4 6 4 10-4 6-3 7 2 9 0-2-4-4-2-7h9c5 1 9 3 11 8 3 5 8 8 11 12 1 2 2 2 4 1 5-3 7-2 11 3l4 5c3 5 8 7 13 9 2 4 6 2 9 3 5 1 9 2 13 5l6 3c-1 5-4 8-7 11-3 2-6 4-7-1 0-2-1-1-2-1-2 0 0 1 0 2 1 5-1 7-6 8-3 0-3-5-7-3-6 7-9 14-7 23 1 3 1 6-2 8 3 0 5 2 8 3l1 1c0 6-5 9-11 6l-9-5c-3-2-4-5-1-8l1-2c1-1 2-2 1-3h-3c-4 3-7 1-10-2-2-2-2-4-2-6l4-17-2 9c-1 4-3 5-7 3-2-6 0-12 1-17s0-6-5-5l-4 1c-4 1-8-1-11-1l-3-2Z"/><path fill="#222833" d="M168 594c2 2 3 5 3 8-1 4 1 6 5 6 3 0 3 1 2 4-2 3-4 7-9 7l-3 2c-4 3-7 7-13 6-1 0-2 2 0 3s5 3 8 0c6-5 12-5 18-2l6 3c3 2 6 3 6-3 0-2 2-1 3 0 2 1 3 3 6 3h3c1-1 0-3-1-3l-6-4-5-4c-1 0-2-1-1-3l3-1h2c6 4 14 6 15 15l6 18c1 4 5 9 10 12 4 2 5 5 6 8 1 2 1 4-1 5-1 0-3 1-2 3 5-1 10-1 11-8l3 5c2 4 1 5-3 4-2 0-10 5-11 7 0 3 2 4 5 4 2 1 0 3 1 5 1-2 0-3-1-5 2-2 3-4 5-4 3 1 4 4 6 6 1 2-2 3-3 4 0 0-2 1-1 2l3 1 1 2c-11 5-21 8-33 9-6 1-11 7-18 8l-2 2c1 2 0 4-2 5-3 2-6 3-9 2s-5 0-8 1c-2 2-5 3-8 2-4-4-4-5 0-8 4-5 3-10-2-13-5-2-9-3-14-1l-5 1c-4 1-6-1-5-4 2-4 0-7-2-9l-12-8c-3-1-5-1-7 1l-3 2c-6 4-6 4-11-1-4-8-4-17-4-26 1-2 2-3 4-3l5-2c10-3 14-18 8-26-1-2-2-3-1-4 1-2 2-4 6-4s8-1 10-7c4-4 6-1 9 1h2l2-2c8-2 10-8 12-15h2l3 1c4 3 5 2 5-3v-5h1Z"/><path fill="#00080E" d="M117 431c-2-1-4 2-6 3s-3 0-3-2c0-7-5-10-9-14-2-2-5-1-7 0s-3 0-3-2c0-8-6-14-13-12l-3-1c0-6-3-10-3-15 0-6 0-13-3-19v-2c-3-6-4-13-6-19v-5c1-2 3-5 6-5s4 2 5 5l2 4 2-4 1-1c6-2 8 0 12 4 3 4 5 10 12 9 3 0 4 3 5 4 2 2 3 4 5 4l2 2-4-3c-1-3 1-4 3-5 4-2 7-3 12-3l4 1 2 4c0 2-2 3-4 4 7 3 9 11 18 12l4 2c3 6 3 6-2 9l-4 5c-4 1-5-1-5-4 0-2 0-4-2-5h-2c-1 2 1 4 2 5l4 7c1 2 2 3 4 3 6 1 11 5 16 8l1 1 4 5c1 2 3 4 2 7-5 2-7-2-9-4-3-1-5-5-7-2-3 3 0 5 2 7 2 3 4 6 4 9 1 7 1 7 8 6l3 1c4 4 7 4 10-1v-3c-1-4 2-5 3-8h-5c-2-1-3-3-3-5 0-3-2-5-4-8l1-2v-1c7 1 15 0 19 7l9 10c3 3 5 6 2 11 1 3 0 6-1 10l-2 15c-3 2-6 4-6 7 0 2-1 3-3 4l-6-7-5-6-7-4c-2-2-4-2-7 0l-4 1-3-1c-6-4-13-7-21-7-3 1-6-2-10-2l-3-2c-3-1-4-3-3-6 1-2 0-4-1-6Z"/><path fill="#222833" d="m109 453-1 8c0 5-1 9-6 10-3 1-4 3-4 5l-1 28c0 3 1 5 5 6 3 0 5 2 7 4 3 3 6 5 11 5 3-1 4 2 4 4 2 3 3 6 7 7 1 0 3 1 3 3s-2 3-4 3-3 1-4 3l-1 3c-5 3-4 7-3 11 2-1 0-3 2-5 2 2 2 5 1 7-2 4 1 4 4 6 2 2 3-1 4-3 0-1 0-2 2-2l3 4c3 6 9 8 15 6s10 1 10 8v9c0 2-2 3-3 2-5-2-5 2-6 5l-4 3-6 2c-6 2-9-1-9-7 0-1 2-2 0-3l-5 1v3c1 4 4 6 7 8h4l9-4 2 1c2 2 1 3 1 5-2 7-8 11-15 10-2 0-4 0-4 2l-4 5c-3 0-4 1-5 3-2 3-6 4-10 2l-3-3c-3-1-4-3-2-5 2-3 2-15 1-17l-4-1-3-2 2-2c5-1 5-4 4-8l1-16c1-3 1-5-3-6l-2-2-8-4c-5 0-10-1-14-3-3-2-7-2-10 0l-7 2c-2 0-3 0-3 3 0 2-2 3-4 2-4-1-7-7-6-11l3-9c1-3 2-4 5-4h5c4 0 5-2 3-6l-3-6c-3-6-2-8 3-12 2-1 3-6 7-5 3 1 2 5 4 7 1 2 2 3 4 2s1-3 0-4c-3-5-6-10-11-14-7-5-10-11-8-20 2-4 4-9-4-12 6 0 8-4 10-7 1-1 2-2 4-1 4 2 7 1 10-1v4c-1 2-4 3-2 6s5 7 9 8c1 1 2 0 2-2l-2-4c5-1 10-6 10-10l3-4c1-1 1-2 3-1ZM313 98c2-3 6-5 7-8l1-2c0-5 3-4 5-4 4 1 5-1 4-4l-3-11 4-4c7-2 12-6 16-13 1-2 13-5 15-3 5 4 9 4 14 1l4-1c2 2 5 3 8 1h10l8 2c3 2 6 4 5 9l-1 1c3 3 1 4-1 5-4 3-5 7-5 11-1-7 6-9 9-14 1-2 3-1 5 0l4 17-1 3c-5 5-3 12-4 19l1 3 2 7c0 5 0 5 5 3h1c8 3 9 2 11-6 3-7 0-15 2-23v-8c0-2 1-4 3-5l4 1c3 10 7 20 4 31-4 5-2 10-2 15l-16 15c-6 2-6 2-7-3-1-3-3-4-6-3l-6 1c-4 0-7-1-7-5l-3-2c-5-3-8-7-6-13l-1-7c1-3 3-3 4-5-2-1-3 1-4 2-2 4-2 8-2 11-1 5-3 6-8 6l-4-3c-2-2-3-1-5 1-4 2-9 2-13 2-3 1-5 1-7 4-2 4-13 3-15-2-2-3-4-5-8-5-5-2-7-7-5-14-1 4-4 6-8 4-3-1-6-3-8-7Zm128 666 2 5c2 1 3 1 3 3v17l-12 17c-2 2-3 1-4 0l-5-9c-5-14-9-15-21-7-5 5-13 7-17 13l-2 4c-8 10-20 11-28 1l-6-5-2-2c1-2 2-1 3-1h3c2 0 4-1 2-4l-2-3c-2-2-3-3-5 0-1 3-3 3-5 2l-5 1c-2 1-3 0-5-2 2-5 7-6 12-7 2-1 5 0 7-2l1-1c2-1 2-2 2-3 2-4 3-8 8-7l-13-20c-3-5 0-8 1-12v-1c5 1 6-5 10-6 3 0 4 0 4-3 1-3 4-4 7-4l4 2-1-1c-2-3-2-6-1-10 4-3 8-3 11 0 5 3 6 2 7-3l1-4c1-2 2-4 4-4 2-1 4 0 5 2 2 5 6 9 3 15-2 4 2 6 4 10l1 2-2 5c3 6 5 12 1 19l-2 8c3-3 6-3 9-2 2 0 3 0 4-2s-1-3-2-4c-3-2-7-5-7-9-1-3 0-5 3-6h1c3 1 5 2 9 1 3-1 5 3 8 5 1 1 2 2 1 3v3l6 6Z"/><path fill="#303843" d="m727 660-2 1c-13 2-17 10-18 24 0 8 0 16-2 23-1 6-2 6-7 5-10-4-20-5-29-12-5-3-11-1-17-3-4-2-5-5-9-6-7 0-12-2-17-5-5-5-5-5-1-11v-2c1-5 2-6 6-5h4c1-2 0-3-1-4-2-2-5-4-4-7v-3l1-5c6-2 12-1 14 5v1c-3 5-2 6 2 6l7-1c3-2 5-4 2-7v-4c4-5 3-11 3-16l1-2c2-2 4-1 6 0 3 1 6 3 10 2 5-1 9-3 15 0 2 1 2 2 5 2l2 1 6-1c4 2 5 7 6 10 1 2 0 3-3 4l5 1 7 3c6 0 8 1 8 6ZM121 248c-3-4-6-4-9-1s-7 3-11 0c-3-2-5-5-4-9 0-1 1-3-2-2-1 0-2 0-3-2 0-1 1-3 3-3 5 0 9-4 13-6l2-1c0-6 7-6 9-11l3-1c2 1 3 0 3-1 0-2-1-3-2-3-4-1-8 1-12 1-2 0-1 2 0 3 1 4-1 5-4 6s-4-2-5-4c-2-5-2-6 4-9l2-3h3c4 4 10 5 15 1l6-2c10-1 18-8 19-18 1-4 5-6 9-3l5 2c4-1 5 0 5 3-1 7 0 9 6 11 4 2 4 4 5 6 4 8 0 15 0 21-1 6-4 12-7 18-3 5-2 6 1 10 4 5 8 7 13 8l11 3c2 2 0 3 0 5l-1 2-1 2-1 2-2 1h-3c-2 1-4 0-5-1-7-6-16-7-23-13 2 5 10 7 5 14-5 1-8-1-11-4-1-1-2-3-4-3l-4-7c-1-3-2-6-7-4-3 0-19-6-21-8Z"/><path fill="#2F3642" d="m754 401 6-1c2-1 4-1 4 1 1 3 2 4 4 4 4-1 3-3 4-5v-2c3 9 9 8 17 6-3 4-6 4-9 6-3 3-8 3-12 4l-9 5c-4 3-7 5-12 3l-8-1c-4 0-6-3-4-7l4-8v-3h-3c-5 0-11 1-17-1-1-1-2-3-1-4 3-4 5-9 11-10h3c5-6 13-9 17-15 2-3 6-3 4-8-3-3-6-7-5-13 0-2 2-3 3-4v-3c-1-2-2-2-3-1l-4 2-3 1c-7-1-14 3-21 2-4-1-6-3-4-7 3-5 3-11 7-16l1-3h-3l-18 7c-2 0-5 0-7-2-3-2-5-4-5-8v-4l1-2 1-1c3 0 4 3 7 1l5-2 10-12 4-2c3-1 5-3 4-7-2-5 3-7 7-10 3-1 5-4 6-7s2-6 6-8l5-1h5c3 4 6 8 5 13 1 5 1 9-5 10-2 4-3 9-2 12 2 4 5 6 0 9 2 4 0 7-2 11-1 2 0 3 2 4 3 2 6 4 10 4s6 3 8 6-1 5-3 7c0 2-3 2-2 4s3 1 4 0c6-2 10 2 15 3 2 1 0 2-1 3-3 6-6 11-10 15l-17 18c-7 7-7 8-2 16l2 1Z"/><path fill="#222833" d="M78 343c1 3-2 6 1 9-8-2-9-7-11-13-4 3-6 6-4 11s4 10 3 16c-4 0-5-4-5-7-2-6-5-10-10-12-2-1-3-1-3-3 0-5-4-10-6-15l1-3 2-1c7-1 12 4 18 6 4 1 9 1 13-1 5-3 6-6 2-11 3-3 5-8 5-13 0-2 2-4 4-6 1-1 3-3 0-5-2-4-1-5 3-6 2 0 3 0 4-2 4-5 6-5 11-1 4 4 3 9 7 12-4-5-5-7-1-12l1-8c-1-3 0-5 3-5 10 6 15 16 22 24 2 3 5 5 5 9v1c0 7 1 9 7 10 4 0 6 5 4 8v2c-1 1-1 2 1 2l2-1c0-2 0-4 2-6 4-1 6 0 10 1l2 4c1 2 2 4 5 5s4 3 3 6l-3 3c-3 1-6-1-5 5 1 2-2 3-5 3 3 1 3 3 2 6l-4 3c-3 1-5 0-7-2s-4-2-6-2c-3 0-4 1-4 4v12c2 3-1 5-5 4l-2-1c-1-8-3-16-10-21-2-1-1-4 0-5 2-3 1-4-1-6l-12-9c-1 6-4 7-8 5h-5c-2-1-2 1-2 3l-1 1c-1 3-4 4-7 4 4 3 9 5 8 11-5 3-8 2-11-3-3-4-6-11-13-10Z"/><path fill="#303843" d="M763 427h6c1 0 3 1 2 2-3 4 1 5 3 6 4 4 4 6 1 10-2 2-2 3 0 4 3 3 4 7 6 10l4 8c5 5 6 11 6 17l1 8c2 5 0 5-3 5l-6-3c-3-3-6-5-7-9l-5-3 4 3c2 4-2 6-2 10-4 2-7 3-10 7-2 2-6 0-9 0s-6 0-6 5l-1 3-3 1c-5-4-8-8-7-15-3 2-4 7-9 6-2-1-4-3-3-6l2-12c2-3-1-7-6-8-4-3-4-5-2-8 3-3 3-5 0-8-1-1-2-3-1-6 1-2 1-4-1-4-9-4-11-12-15-19l1-2c4-1 9 1 13 2 3 1 6 2 9 0 4-3 9-3 14-4l9-2c6-4 11-3 15 2Zm25 88c6 5 9 11 13 17 1 2-1 4-3 5l-11 6c-5 2-10 6-10 13 0 2-2 4-3 5-3 4-6 7-7 12v1c-7 4-13 9-21 10-3 1-5 1-5 4-1 2-1 4-3 4-7 1-12 5-18 8l-3 1c-7-4-8-6-7-12v-2c0-4 1-7-1-11-2-3-1-8 0-11v-11l1-3c0-2-1-3-3-4-1 0-4-1-5-4l3-6 2-2 3-1h3l8 2c2 1 3 1 5-1l4 1c-4-2-5-5-2-9l3-6c2-2 4-1 7 1 2 7 7 12 14 14 5 1 11 0 16-2 2-1 3-4 3-6l-1-4c1-3 3-5 5-4 5 1 4-3 6-5s4-2 7 0Z"/><path fill="#313944" d="M253 90c0-7-8-11-15-7-2 1-5 2-6 4-1 1-2 2-3 0 0-1-2-2 1-3 2 0 1-2 0-3-1-5-2-10 4-13l5-6c3-4 7-6 12-5l22 4c6 2 9 7 8 13 0 2 0 3 2 4 9 4 15 13 23 19l1 2c-2 3-3 7-7 8l-1 1c-5 4-7 10-10 15-1 3 1 5 3 7 5 3 6 4 3 9l-4 10c-1 3-3 6-7 6-2 0-2 1-2 3 2 4 3 6 7 7 2 1 4 2 4 5 0 2-2 3-4 5l-3 1c-4 1-6-2-9-4-5-4-9-9-16-13-1-4 3-5 5-7 2-1 2-2 2-4-1-4-2-7-1-11 0-3 1-5 3-8 3-4 6-7 5-13-1-4 1-7 4-9 2-2 6-3 6-5l-3-11-2-2v-3l-1 1c-2 4-5 4-8 3-2 0-3-1-4 1s0 3 2 4 6 1 4 4c-1 4-4 3-7 3l-6-1-4-2c-4-1-6-6-3-9Z"/><path fill="#272E38" d="M631 658c1 3 4 4 6 7 2 2 2 4 1 6-2 2-4 2-6 1-1-1-3-2-4-1-2 1 0 2 1 3 0 2 0 3-2 4-4 1-3 3-1 6 0 7 4 8 8 10 5 2 6-1 9-4 4 1 7 3 8 7l-13 14c-3 3-8 4-10 9-1 2-4 1-7 1-3-3-1-6 1-8l3-3c1-2 2-4-1-4l-4-3c-2 0-3-1-4 1-3 8-9 10-17 5l-2-1 9 7c4 4 4 6-1 8l-2 4c-5 2-7 1-8-5 0-4-2-5-5-4s-6 3-8-1c-4-6-3-9 1-14 5-1 5-1 2-6l-1-7v-4l-2-2c-7-3-7-3-7-10 0-5 3-7 6-10 2-2 4-2 5 1l4 4h2l1 1 3 6c-1 3 0 5 2 6 2 2 3 4 0 6-1 1-3 0-2 2h1c4-3 4-8 2-13-2-4-5-6-3-11 0-3-3-4-4-6-2-2-4-4-1-7h1c3-1 5 3 7 1 2-1 2-5 4-7 3-3 6-4 10-2 3 1 7 2 11 1 4 1 5 3 6 7l1 5Zm85-58h3c0 3 3 4 4 6l2 2h2c5 6 12 8 18 12v1l4 6 2 8c1 3 3 5 6 6 3 0 6-1 8-4l2-4c1-1 0-4 3-4s3 2 4 4c2 8 2 9-6 10-4 1-7 3-7 6-1 3 1 5 4 6l2 2-3 2-7-2c-3-1-4-2-3-4s3-3 1-5-4-4-7-3-6 1-8 3l-3 3-10 10c-2-4-4-5-8-5-3-3 0-6 0-8l-7 5c-3-2-5-1-7 0s-4 1-4-2c0-1 1-2 3-2 5-1 5-1 2-6l-2-5c-4-3-4-5 1-8 3 0 4 5 8 3 2-1 5-2 6-5v-3c1-2 3-3 5-2s4 3 4 6c2 5 2 9 8 11 6-2 7-6 2-13-1 1-2 4-5 4h-3l-2-2c0-4-2-7-5-8-4-1-8 1-11 5-6 3-12 6-14 12l-2 1c-2-1-2-3-4-3-6-1-10-2-15 1-11-4-20-10-23-22-1-2-2-4-1-6s3-2 5-3c5-1 9-5 14-3l3-2c5-1 7 1 8 5-2 6-1 8 5 10h3l2 1c2-1 4-1 6 2l-2-4c0-6 2-9 8-8 4 0 8 1 8-6l3-1Z"/><path fill="#222833" d="M556 718c-4 2-4 7-6 10-1 1-2 3-3 2-3-5-9-4-12-7-3-1-5-2-4-5v-1c-1-3-13-13-16-13-2 0-3 1-4 3l-7 8c-1 2-2 3-3 1-2-3-5-3-8-4s-6-1-8-5h-4c-4 5-12 5-15 11l-1 1c-3-3-8-2-10-6-1-2-2-4-4-3-3 0-3 3-2 5l-1 4c-4 0-5-3-5-6 0-6-2-13 0-20 2-4 7-5 9-8h2c2 1 2 4 4 0 2-2 4 0 6 2 1 0 1 2 3 1 6-4 8-3 11 3l1 3c-1-4-4-8-4-12s3-5 6-6c1-1 3 0 4 1l5 3c1 2 4 3 3 6 3-1 2-4 4-5l3-1h2l2 2 1 1h1l1-3c4-7 6-7 11-1 3 4 6 9 7 15-3 5 0 7 3 9 4 2 8 6 11 10l2 1c-3-3-3-7-6-11l-1-2v-1c0-2-2-4-4-4l-4-3c-1-4 0-8 2-11 3-4 5-1 8 1 5 10 11 19 17 27 2 2 4 4 3 8ZM199 263c-7 0-14-3-21-4l-3-3-2-4c-5-2-4-6-2-11l8-16v-9c3-5-1-10 0-15 0-2-2-1-2-2-8-2-11-6-9-14 0-2 0-3-2-3-3-4-2-7-1-10 2-3 5-4 8-2 7 3 13 8 19 13 3 2 3 6 7 9 7 0 11 4 15 9 2 5 8 5 12 7l7 3 1 4v4l-1 1-1 2c-1 2-2 3-5 3h-1c-2-3-5-2-8-3-4-1-8 0-11-3s-2-8-6-11c1 2 3 4 3 7l-1 1c-3 2-5 0-8 0 7 3 10 8 8 15l-1 1c-3 1-6 0-8-2-2-1-4-4-7-2 0 3 2 2 3 3 2 1 4 2 4 5v3c4 2 7 5 5 10l1 1c4 2 4 5 4 9l-1 2-4 2Z"/><path fill="#303843" d="M306 99v-2c3-1 5-1 7 1 3 0 5 2 7 4 3 1 6 3 6-3l3-3h3l1 3-2 5c-1 5 1 8 6 8 2 0 4 2 5 4 2 7 8 6 14 6-1-2-2-4 0-6s4 0 6 1c4 1 5 4 3 8-1 3 0 5 3 6 2 1 4 1 5 4v6c-1 3-3 4-5 3-4-2-9 0-14 1-3-2-5-6-7-9l1-4c1-2 3-2 4 0-4-5-7 2-11 0 6 4 7 11 12 14-2 4-6 2-9 3l-3 1c-4 0-8 2-11 3s-6 3-10 2c-1-4 2-7 2-11s0-7-2-10v-3c0 1 0 3-2 3-3 2-2 4 0 6 5 5 5 6 1 12l-2 4c0 3-2 5-6 4l-2-2-2-20c0-5-1-11 5-14-2 2-4 3-5 6s-5 4-8 3-4-4-2-7l1-10c0-4 0-7 4-9 3-1 6 0 9 2 0-4-6-6-5-10Z"/><path fill="#272E38" d="m356 786-2 2c-7-1-12 3-18 6-3 0-4-4-7-3-4 0-5-3-8-4l-3-1c-2-2-2-4-1-5 3-5 6-11 3-17 4-4 5-8 6-13 2-7 5-13 10-18 4-3 6-3 10 0 3 1 5 3 8 0v-2c-2-4-2-7 2-9l7-4c8-1 12 3 13 11l-8 4c0 2-2 3-3 4-4 0-4 3-5 5 0 2 1 4-1 5-2-1 0-5-3-5-2 0-1 3-2 5-2 2-1 4 0 6l16 23-2 1c-7-3-8 2-9 7l-2 2-4-4c-1-2-2-2-4-1 1 3 5 2 7 5Z"/><path fill="#303843" d="M103 689c6 3 10 1 13-3s7-3 10-1c4 2 8 4 12 8 4 3 8 7 2 13 6 1 9-2 13-3 5-1 13 3 16 7 2 5 2 9-3 12-2 2-2 4-2 6l-9-2-3-3c-4-6-7-6-12-1-4 5-10 7-16 5l-8-3c-3 0-7 1-9-2l-6-15c-1-2 1-2 3-1 2 0 4 1 5-1s0-4-2-6c-3-3-2-7-4-10Z"/><path fill="#272E38" d="m788 515-3 1c-3 0-4 1-2 4 1 1 2 2 0 4-2 1-3 1-5-1-1-1-2-2-4-1s-1 3-1 5c1 6-3 10-10 11-2 0-5-2-5 3h-1c-5-3-12-4-16-9-2-3-4-5-4-8 2-3 1-6-1-9l1-3 3-2h6l1-3c-2-6-1-8 5-7l10-1c1-6 5-4 9-4 1-1 2-2 3-1 3 1 6-1 9-2l6 3c1 0 3 1 3-2l9-2 1 3c-6 2-11 10-10 15 0 3-4 3-4 6Z"/><path fill="#222833" d="M357 722c-1 3-4 5-1 8 1 1 2 2 1 4-1 4-4 4-7 3-11-5-11-5-17 5-3 4-5 8-5 13s-3 6-7 8c-1 0-1-3-4-1-4-1-10-7-10-10s3-4 6-4c-4-3-5 3-9 3l-1-1c-1-7-7-11-12-14s-7-9-10-14c-1-3-2-6-6-8-1 0-1-2 1-2h4l10 1c5 3 5-1 6-3l1-8c1-2 1-4 4-6-1 9-1 16-4 24-1 5 3 5 5 7 1 2 3 0 4-1l4-4c2 0 1 1 1 2 5 5 3 8-2 11-2 1-1 2 0 2 4 3 7 7 12 8 3 0 6 0 6-4l2-4-2 3-6-1-7-4c6 1 7-3 6-8-1-8 0-16 7-23 6-1 7 4 8 8l-1 3-1 1v1h1c6 1 11-1 17-2 4 1 7 2 6 7Z"/><path fill="#272E38" d="M268 136c2 5-1 12 6 14v2c0 1-1 2-2 1-5-1-7 3-10 5 0 2 0 3-2 4-3 0-6-1-9 1-2 2-4 1-6-2-1-1-1-4-4-4-5-2-6-6-7-11-2-4-4-8-4-13l-1-2c0-3-1-4-3-5-3-3-2-6 1-9 2-2 2-4 5-6 3 0 4-1 5-3 2-4 4-7 8-8 1 0 2-1 2-3l3-5c0-2 1-3 3-2-2 4 1 6 3 7l4 3v2c-3 7-3 11 3 17l2 3c0 5 3 9 3 14Z"/><path fill="#222833" d="m116 272-2 5c-1 3-4 5-4 8-1 2-2 3-4 3l-3-2c-3-2-5-1-5 2-1 4-3 7-7 4-2-2-3 0-4 2-4-1-7-4-7-10 0-4 1-9-1-13l-1-4c2-6 3-13 0-20-1-1 0-2 1-3l4-1c3-2 7-5 10 1 0 2 2 3 3 4l4 4c1 10 11 13 16 20Z"/><path fill="#4D5462" d="M763 426c-1 2-1 4-3 4s-1-2-1-3c0-2-1-2-2-2h-4c-8 5-17 5-26 7-3 1-6-1-8-1l-15-3c-2-4 2-4 3-6l3-2c5 0 9 0 12 2-2-1 0-5-1-7-3-4-8-4-12-7-1-1-3-1-4-4l2-3h12c7 0 14 1 21-2l4 1c1 2 0 3-1 4l-7 11c-1 3 0 4 3 4 4-2 7-1 10 1 4 1 6-1 8-2 7-5 14-8 22-8l3 3c2 3 1 4-1 5-4 2-7 2-11 1-1 0-3-1-2 3l-5 4Z"/><path fill="#3D4450" d="m556 718-13-19-8-14c2-4 6-1 8-4l2-6-1-10 1-5c2-2 4-2 6-2 6 2 9 7 13 10v2c-1 4 2 7 4 10 4 3-1 4-3 6-1 3-2 3-4 3l-4 1c-1 2 1 3 2 4 2 2 5 2 2 6-2 2 2 5 5 6l6 2 1 3h-3l-1-1c-2-1-4-4-6-2-1 2-2 6-1 8 3 3 0 6 1 9 0 2-3 1-3 0l-4-7Z"/><path fill="#222833" d="M565 687c-3-4 1-4 3-5l-6-5c-1-2-4-3 0-5 2-1 1-2 0-3-4-2-6-6-10-9v-1c0-3-2-3-4-5v-1a9 9 0 0 1 5-5h2c4 4 7 0 10-1 7-5 12-1 18 2h1l4 3c1 5 1 11 4 15l-1 4-4-2c-1-2-1-5-4-4s-5 4-5 7c-1 4-2 8 4 10 1 0 3 1 2 4l-10 2c-3 2-6 0-9-1ZM120 248c8 2 15 3 22 7 4-1 5 3 8 4 2 2 3 3 3 6l8 8c2 1 4 2 6 0 2-3 0-4-1-6l-8-8-1-2c1-2 2-1 3 0 5 2 10 6 15 7 6 2 9 7 16 8l1 1 1 2c-1 2-2 3-4 3-5 0-9-2-13-5l3 4v2c0 2 2 5-1 8-3 2-6 0-8-1-6-2-10-6-15-8-1 3 1 5 1 7-2 2 1 5-2 7-3 1-5-1-6-3l-4-9c1-5 0-6-4-4-3 0-5 0-6-2l-5-10c-2-4-3-9-7-12l-2-4Zm88-75c-7-2-7-2-5-10 1-2 1-4-1-5-6-2-2-6-2-9 0-4 1-8 5-9 5 0 7 3 9 6 2 2 2 5 5 6l2 2 1 4c2-2 5-4 9-4 5 0 6 2 6 6l-2 7c-2 2-4 2-5 5 0 4 2 6 4 8l2 4-1 3-3 6-5 1c-4-1-7-3-7-7l-1-4v-2c2-5 2-5-2-7-4 5-5 5-9-1Z"/><path fill="#272E38" d="M715 216c1 4 2 7 6 9 1 2 2 4 0 6-2 1-4 1-6-1-2-5-4-4-6 0-3 4-7 5-11 7h-4c-2-2-4-2-6 0-3 2-5 1-7-2-6-7 2-22 11-20l18-2 5 3Z"/><path fill="#4D5462" d="M417 107c-3 0-5-2-2-5v-5c-2-4-2-8 3-11l2-3 2-2c3 2 4 5 5 8 0 2 1 3 3 3 2 1 2-1 3-2 2-2 3-4 2-7v-5l1-1v-2l4-7h2l1 1c2 3 1 4-1 6-2 10-2 18-1 28 1 6-2 13-7 19-2 1-3 1-5-1l-3-3c-6-2-6-7-9-11Z"/><path fill="#272E38" d="m752 265-9 3c-2 0-2-3-3-1-6 6-13 5-20 7h-2l-8-6c-2-2 0-4 2-6l10-7c3 0 5-2 6-4 2-4 6-6 11-6l7-1c7 5 4 14 6 21Z"/><path fill="#3D4450" d="m444 692 1 20c1 2 0 4 2 6 3 6 3 13 4 19l-2 5c-8-3-13-8-13-14-1-11-6-22-7-33 1-3 4-4 7-5 3 0 6-2 8 2Z"/><path fill="#303843" d="M585 705c-3 3-4 9-1 11 1 2 3 1 4 0 3-2 9-1 11 2v3c-3 3-1 5 3 6 1-1 1 0 2 1 1 3 3 4 5 5 1 1 3 2 2 3 0 2-2 3-4 2l-14-6-3-6c0-4-2-6-6-5-3 1-5 1-5-4-1-5-1-11-6-14l-1-3c4-2 4-7 7-9l5-1c3 1 2 4 2 6 0 3 3 6-1 9Z"/><path fill="#2F3642" d="M604 727h-1c-1-2-1-4 1-5 5-1 3-4 1-5-4-2-7-6-12-6-1 0-3-1-2-2 1-2 1-4 4-4l6 2c4 3 10 3 12 0l1-6c0-2 0-3 2-2 5 1 8 5 14 5 2 0 0 3-1 4-2 4-7 7-9 12-1 3-4 3-6 3-4-1-7 1-10 4Z"/><path fill="#222833" d="m437 76 1 7c0 2 1 4-1 5l-7 12c-3-7-7-11-7-18 1-3 0-6-2-9-3-5-3-11-3-17-1-3-5-5-2-9 4-3 7-1 11 1 2 0 3 2 2 5l-1 5 1 2 1 2 7 14ZM230 130l1 2v2l-6 9c-4 1-5-1-5-4-3-2-8-1-8-7 1-7 0-14 7-18 4-1 7-3 9-6 1-4 4-5 7-3s1 5-1 7c-2 5-10 7-7 13l3 5Zm-10 53c2 0 4 0 3 3s0 4 3 6c3 1 6 1 8 3v3c0 2-2 3-4 4-4 1-7 0-9-3-1 0-2-2-3 0-2 2-3 4-6 3-3-5-8-6-13-10 4-3 5-5 0-7-1-1-2-1-2-3l4-1c2 1 4 2 7 1 5-3 7-3 12 1Z"/><path fill="#303843" d="m45 327-2 2c-2-1-3-3-3-5l-6-12c-2-2-2-4 2-2 3 0 4 2 5 4 2 4 6 5 11 5 4 0 8 1 11 4 2 2 5 2 8 1h1c3-1 4 4 6 2v-7c2 0 6-2 6 2 0 3 1 6-2 9-5 4-10 4-16 4-3 0-5-1-7-3l-13-4h-1Z"/><path fill="#272E38" d="M446 790c-2-5-2-10-2-15l-1-6c2-2 4-2 6-1l5 2c6 1 7 0 7-5l1-5c0-2 2-3 4-3l4 4c1 2 0 3-1 4-4 4-8 8-9 14-2 7-7 10-14 11Z"/><path fill="#222833" d="M71 324c-2 3-4 5-8 1-2-2-5-4-9-3-9 1-15-3-18-12 4 0 7-3 10-4 7-2 11 0 13 7 2 6 6 9 12 11Z"/><path fill="#272E38" d="m130 616 1-8c1-2 2-4 4-3 8 5 12 0 16-5 2-1 4-2 6 0 3 6-1 14-7 17-2 1-5 1-6 4l-3 1c-2-4-5-5-8-5l-3-1ZM416 47c-1 4 5 5 4 9-4 2 0 6-3 9-2 0-4 0-5 3l-1 3c-3 2-6 4-3 7 1 2 0 3-1 3-3 0-4 2-6 5l2-15c0-3 2-4 5-6 0 0 3 1 2-2 0-5-3-8-7-9-2-1-4-1-5-4 5-3 9-5 15-3h3Z"/><path fill="#222833" d="M291 713c-4 2-7 1-10-1v-4l2-1 1-1h-9l-3-3c0-2-2-4-3-5-2-1-3-3-2-6l1-1c3 0 7 3 6-3l1-1c1 0 2 0 2 2s1 4 4 4l2 1 1-1 1-1c3-3 6-2 9 0s0 4 0 6c-1 5-4 10-3 15ZM142 307h1c3-2 2-4 2-7l-2-5c1-2 3-1 5-1l4 1c3 5 4 10 9 13l4 6c0 2 0 4 2 5 1 1 3 2 3 4l-1 2-9-1c-2 0-4 0-4-2-2-3-5-4-9-5-3-1-5-5-5-10Z"/><path fill="#303843" d="m234 113-1-2c0-2 3-3 1-5-2-1-3 1-5 2-4-4-3-8 2-8 8 0 8-6 9-10 1-2 1-5 4-5s3 2 3 4 1 3 3 3v7c0 2-1 4-3 4-4-1-6 3-8 6-2 2-2 5-5 4Z"/><path fill="#222833" d="M430 694c2 4 3 7 3 11s1 7 3 9l1 6c-1 7 2 13 8 18l3 4c-2 3-4-1-6 0-3 0-4-2-6-3-2-3-3-7-7-7l-3-3c-1-3 0-5 2-7 3-4 3-7 0-11s-5-9-4-14l1-3h5Zm-185 7-1-3c5-5 11-5 17-3-2 5-3 9 4 13 2 1 2 4 2 6-1 3-4 2-6 2l-3 1c-1 0-2 2-3 1-2-2 0-3 0-4v-1c-4-3-3-12-10-12Z"/><path fill="#303843" d="m417 48-3-1c0-5 2-7 7-6 7 2 13 0 18-4h3v5c0 4 0 5-4 2-2-1-4 0-5 2-2 2 0 3 1 4l5 5c1 0 2 1 1 3h-4c-3-3-5-2-7 1l-2-3v-6c-4 0-6-3-10-2Z"/><path fill="#313944" d="m152 297-3-1c-4-2-6-4-8-8v-2l-4-3c-6-4-9-10-9-18l1-1c4 3 6 8 10 10 4-1 6 2 7 4 1 6 4 10 7 14 2 0 3 2 2 4-1 1-2 2-3 1Z"/><path fill="#272E38" d="M724 252c-1-2-2-3-4-3l-4-1c-2 0-3-2-2-3 0-2 2-2 3-2 5 1 7 0 9-5 1-4 4-4 7-1 2 2 4 2 6-1l2 3c0 2-1 2-2 3-4 3-9 5-12 10h-3Z"/><path fill="#222833" d="M321 764c6 6 2 11-1 16l-3 5c-2 1-3-1-3-2 0-5-6-9 0-14v-4l2-2h5v1Z"/><path fill="#272E38" d="M752 289c-1-1 0-3 1-3 2-1 4-1 1-3-1-2 2-2 3-4h3c6-3 6 3 9 5s0 5 0 7c-1 2-2 1-3 1-5-1-10-1-14-3ZM429 731c6 1 9 6 12 10 2 8 0 13-5 15l-3-3v-2c3-5-1-9-3-14-1-2-3-3-1-6Z"/><path fill="#00080E" d="m317 764-2 1c-5-4-7-9-11-14l1-2c5-6 10-6 14 1l1 2h-3l-5-2-3 1v3l7 7 1 3Z"/><path fill="#303843" d="M117 431c2 0 3 2 2 3-2 6 3 6 6 8l1 7-2 3-2 2-2-1c-1-5-4-6-8-6-3-3 0-5 1-7 4-2 4-5 4-9Z"/><path fill="#3D4450" d="m768 422-6-2c3-4 7-3 11-3 3 1 7 1 9-3 2-1 3 0 3 2l-2 3c-2 1-6 1-6 6l-3-1-6-2Z"/><path fill="#2F3642" d="M220 182c0 2-1 3-2 2-3-2-6-1-9-2l-2-9c4-3 4 2 6 3 2-1 0-3 2-4 5 0 5 4 5 7v3Z"/><path fill="#313944" d="M437 77c-5-2-9-9-7-15 4 2 5 6 10 6 0 2 1 5-1 7l-2 2Z"/><path fill="#222833" d="M113 440c3 3-2 4-2 6-4 1-3 4-2 6l-2 2c-1-3-6-2-6-4 2-4 6-6 8-9l4-1Z"/><path fill="#2F3642" d="M219 139c2 1 2 3 5 4 5 0 5 1 4 7-1 4-3 7-7 5l-2-3c1-1 4 0 4-3l-3-3c-4-1-2-4-1-7Z"/><path fill="#00080E" d="m267 692 4 5c2 1 3 3 2 5-2 3-4 1-5-1-3-3-5-6-1-9Zm327-501 6 3c2-1 4 0 5 2 5 5 10 11 13 18l4 15 4 15 4 8c1 1 2 2 1 4 0 3 2 5 5 6l8 5 11 8c9 6 14 15 23 21l1 4c0 3-1 5 3 6l1 1 1 1v2l3 9 1 7-3 9-4 1h-9c-1-1-2-2-3-1-4 4-8 3-13 3-3 0-5-1-6-4-1-2 1-4 2-6l2-1-11 9c-2 3-11 3-14 1-1-1-2-3 0-5l3-2c1 0 2 0 2-2 1-1-1-1-2-2l-3-1c-4-2-8-4-12-1l-4 1-2-3c-1-2 2-2 0-4l-2-1-1-3-2-2c-3-3-7-4-10-6-2-2-5-4-6-7-7-2-8-3-9-10-1-8-5-14-11-19-2-2-4-3-4-7l2-4c4-2 8-2 11-2 4 0 5 2 3 6l-1 2 1-1c7-6 11-14 19-19h4c4 0 3-4 6-5-2 2-4 6-8 4-2 0-3 2-5 3l-6 3h-2c-5 3-11 6-17 7-1 0-4 1-5-1-2-2 1-4 2-5 1-3 4-5 8-6h4c0-1-2-2-3-1-2 1-4 2-6 0-1-2-2-6-1-8l7-12 2-4c0-5 2-9 6-12 1 0 2-2 1-3s-3 0-4 1c-3 5-8 9-9 15v1c4 5 1 9-2 12-1 2-2 4-1 6 2 4 0 8-3 11l-4 5-4-2c-3-5-8-8-10-13-4-7-9-12-15-17l-4-3c0-2-1-2-3-2-3 0-5-2-5-5 0-7 1-14 8-19 2-2 2-4 2-6 1-8 2-15 7-22 1-2 2-3 5-3 1 0 2 0 1-2l-1-2-3 1c-1 5-4 8-6 12-4 7-5 15-9 21l-3 6c-1 2-2 4-1 7 1 2 0 5-1 7-2 4-5 4-8 3-3 1-5-1-6-3l-3 7c0 2-1 5-4 5s-4-3-4-5l-1-5c1-3-1-5-3-7-4-3-6-6-7-11-1-3-5-5-3-9l3-2 10 4 1 1v6l1-12c0-4 0-9 2-12-1 3-2 8-7 10-2 0-3-1-4-3-1-7-4-14-8-20l-1-10c0 4-2 8-1 12 0 2 0 4-2 5-3 0-5-1-6-3l-4-12-2-3c-4-3-6-6-7-10-1-3-2-6-6-7-1-1-2-1-2-3 1-3 3-3 6-3 7 0 13 2 19 5l4 2c5 1 9 3 14 2 4 1 5 4 9 4l5-1h9c4 0 6 2 9 5s7 3 11 5c5 3 10 3 15 5 4 2 7 4 9 7l5 2 8 3 1 1c3 2 5 5 6 8 2 6 5 10 10 13l2 2 1 1Z"/><path fill="#4D5462" d="M643 269c-3 0-5-2-7-4l-2-3c-3-4-3-5 1-8 2-1 5-2 6-5l-9 2c-2 0-4 0-4-2-1-1 0-2 1-3l7-6c-7 5-11 3-12-5l-3-9c-2-1-2-3-1-5l4-6c5-3 7-10 10-15 1-2-1-3-1-5-5 4-9 7-15 9-2 1-8-2-9-4l1-4 16-15 2-1 4-1h2c5 0 9 0 10-6l3-2c7 2 13-2 18-6l4-1c-6 10-16 14-24 21 10-4 18-10 27-16l1 2c-8 4-12 12-19 18-1 1-3 2-2 4s3 0 4 0c2-1 3 0 3 2s0 4-2 5c-4 5-8 9-14 12-3 1-6 2-7 6 3 1 4-2 6-3s4-1 5 1c2 2 0 3-2 4-6 4 0 6 2 9l1 5c-2 6 0 9 6 10 2 0 4-1 5 1s-2 3-3 4c-2 4-6 8-10 11-1 0-2 2-1 3s2 0 3-1l9-9c1-2 3-3 5-1 8-2 12 4 17 7l2 1c5 8 13 8 20 6 3-1 5-2 5-6 0-3 1-4 3-4l14-3v-1c5-2 6-7 10-9l5-2 2 5c-11 5-20 13-30 21 1 4-2 7 0 10 2 2 4 3 6 1s5-1 7-2c3 3 7 2 8 7l-5 3c-2 2-3 4-1 6 4 4 1 5-2 7l-6 3c-2 1-4 2-6 1l-3-4v-1c-2-2-5-2-7-3-5-1-8 1-12 2v2c2 3 6 3 8 4l6 3c2 2 5 3 3 7l-4 3c-3-2-5 0-8-2h-1l-2 1c-4-1-6-3-9-5v-1l-1-1-4-6-1-5c-1-3 4-5 1-9 0 0 1-2 3-2l7-4c-3 0-6 6-11 2-2-2-1-6 2-10l-12 3c-4 2-8 1-11-2s-7-5-12-6ZM495 138c-5 1-10 1-14-2-2-3-6-3-7-6 0-2-1-1-2 0-4 0-6-2-8-5l-2-15c-3-5 2-8 2-12s-1-7-3-10-3-6 1-8l4-24 4 20c3-1 3-6 6-8 1-1 2-4 4-3 3 2 2 4 1 6l-5 11c-2 5-1 6 3 6 3 0 6 1 5 4-3 5-3 9 1 14-3 0-6-2-7 2 0 3-2 5 1 7s5 0 7-2 4-7 9-4c2 1 3 2 2 3-3 5-3 10 0 15 1 1 0 1-1 2l-1 5v4Zm58 18c-6-2-11-1-16-4l-4-7v-1c-1-3 1-4 1-5l-2 4c-1 3-5 3-6 0-2-2-3-4-2-7l3-5 5-7c-1 2-2 3-5 1l-5-2c-2-4-3-7-3-11l14-8c2-2 3-3 2-6-1-4 2-8 4-11l3-6 2-2 2 3-2 8v8c2 4 1 7-1 10-2 2-3 4-3 7 1 5 3 6 7 3 3-3 8-1 8 3-1 6 2 10 3 15l-4 4 3 1c3 6 2 11-4 15Z"/><path fill="#5B6475" d="M628 180c-3 6-7 9-12 13-2 2-6 3-4 6 1 4 6 4 9 1 5-3 11-4 14-10h3c1 2 1 3-1 4l-2 1 2 1c1 0 3-1 3 1 1 1-1 2-2 2-3 2-5 5-5 8s-2 5-4 7l-5 5c-2 3-4 5 0 8 3 2 2 5 2 8 1 2 1 5 3 6l6-3c1-2 4-4 6-2s-2 4-4 5c-3 3-4 6-9 8 7 0 13-3 19-3-1 4-4 7-8 8-4 3-7 5-4 11-3-2-6-5-6-10 0-4-4-7-5-11l-4-14c-4-9-3-19-10-27l-6-6c0-3 1-4 3-5l9-4 3-5c1-4 5-5 9-3Z"/><path fill="#4D5462" d="M567 130c3 0 5-1 6-4 1-2 3-5 6-1h2c2-5 6-2 9-1h8c2 0 3 0 4 2 3 4 6 3 9 0l8-7c1 8-1 15-8 20-2 1-2 3-3 5l-4 1-1-1v2c-4 3-6 8-11 7-4-1-6-3-5-6l4-8c-1 2-3 4-6 3h-10c-4 1-8 2-10-2-1-3-2-7 2-10Z"/><path fill="#4D5462" d="M603 144h4l-3 6c0 7 0 7 7 4-3 6-11 8-11 15 0 4 2 4 4 3l8-4 18-1-2 3c-11 3-20 10-32 12-2-2-3-3-6-1-3 3-6 3-8-2-2-6-4-12-1-19 2-4 2-9 8-7 2 2 2 3 1 5 1-2 4-1 5-3 2-4 6-6 7-10l1-1Z"/><path fill="#222833" d="m528 131-2 4c-4 1-5 4-8 6h-14c-4 2-7 0-9-2-1-4-6-7 1-10 2 2 3 6 6 5 4-1 4-5 6-8 1-2-1-2-2-2-2-1-3-2-2-4 1-3 1-7 4-10 4-5 6-6 12 0l1 1 2 11c3 3 4 6 5 9Z"/><path fill="#5B6475" d="M567 130v2c-1 3-2 6 1 8s6 1 8-1c4-3 6-1 9 2 4 4 3 8-3 11-2 0-3-1-4-3-2-3-5-1-7 0l-4 5c0 2 1 1 2 1h2c3 5 2 8-4 10-6-1-10-5-15-9l3-7c2-2 2-4 1-7-2-3 0-4 2-6l5-6c1-2 2-3 4 0Z"/><path fill="#4D5462" d="M465 97c2 5-3 8-2 12l-2 2c-4-1-5-4-6-7l-2-6c2 7 2 8-4 9 1-7 0-14-2-21-2-3-2-6-2-10-1-2-1-4 1-6 6 0 7 5 10 9 4 3 4 8 4 12 1 3 1 5 5 6Z"/><path fill="#272E38" d="M673 142c-4 2-5 9-3 13 2 2 5 4 3 6-1 1-3-2-5-3-4-2-6-6-7-9 0-4-3-6-6-7-1-1-4-2-3-4 1-3 3-2 5-2 4 0 9-1 12 4 1 1 4-1 4 2Zm-152-30-1-2c3-1 5-4 4-7 0-4 1-7 5-9 3-2 6-6 10-7 0 4-3 9 1 14l-1 2c-6 2-10 9-18 9Z"/><path fill="#5B6475" d="M582 160c0 6-2 12 1 18 2 4 4 4 6 1l4-4c1-1 2-3 3-1 2 1 1 2 1 4l-2 3c-2 3-2 5-2 9-8 1-10-6-12-12l-7-10 1-5 1-1 1-2 2-1 3 1Z"/><path fill="#272E38" d="m465 97-3 2c-3 3-5 0-4-2 1-6-2-11-2-18l6 1c-1 3-1 6 3 8 3 2 1 6 0 9Z"/><path fill="#4D5462" d="M616 188c0 4-4 5-7 6l-5 2-4-2c4-8 7-9 16-6Z"/><path fill="#272E38" d="M698 250c-2 2-4 5-7 3-4-3-5-6-5-10-1-2 1-4 2-2l10 9Z"/><path fill="#5B6475" d="m612 168-9 6c-1 1-2 2-4 1-1-2-1-3 1-5 4 2 7-3 12-2Z"/><path fill="#4D5462" d="m317 671-8-9c-3-2-5-3-6 1-1 3-3 4-4 2l-13-14c-1-5 2-8 2-11 0-5 3-7 7-7l2-2 5-13c0-4 3-7 3-12 0-3 3-5 3-8-2-4-4-5-8-6-6-2-8-9-4-15h2l3 1c5 9 14 11 21 17l5 1c3 0 5 1 5 5l-7 10 9-2c5 2 7 6 10 10l-3 3c-7 0-10 6-15 9l3-3c2-1 3-2 5-1s2 3 2 5c-2 6-4 13-8 18l-5 13c-1 4-2 7-6 8Z"/><path fill="#3D4450" d="M359 690c-3-1-5 0-7-2-6-7-4-14-3-21 3-2 5-4 4-7l1-1c6-9 7-19 10-29l1-3h4c3 2 5 4 5 7s1 5 3 7c0 5 2 11-3 15l-2 1v8c6-8 6-20 9-31l4-5c3 0 6 0 6-5l1-2c3-7 6-7 9-2-3 8-3 16-5 24l2 6c-1 10-1 20-5 30-1 2-3 5-6 4h-3c-5-3-9 0-13 2l-1 1c-3 1-5 0-8 2l-1 1h-2Z"/><path fill="#5B6475" d="M221 591c-3 0-7 1-11-1-3-1-5-2-5-6 0-8-2-15-3-23 0-8-3-16-12-19l-2-2v-1l6-1 4 1c2 4 6 2 9 3h1c1 2 1 2 2 1l13-11 3-2c5-9 10-10 19-5 2 3 7 2 8 5 0 4-3 4-5 4-5 0-9 2-13 4l-2 1c-3-2-6-2-7 2 1 3-3 3-2 6 2 3 0 5-2 7-6 4-12 8-14 16v1c2 4 4 2 5 1l12-5c3-1 5-1 7 3l1 1c4-1 6 1 7 3 2 2 3 0 4-1 2-1 4-2 6-1 2 3 1 4 0 6-6 7-13 14-20 19l-2-1-3-4c-1-3 0-6 2-8l1-1c1-1 0-1 0 0-3 2-3 7-7 8Z"/><path fill="#4D5462" d="M251 573c-5 0-8 3-12 5-2-3 0-6 3-9 4-2 8-5 10-10l1-1h5c5 2 6-3 9-6 3-4 4-4 8 0l4 10c3 5 7 6 12 4 2 0 4-1 6 1 1 2 0 3-1 5-7 2-12 7-18 11-1 1-2 3-4 3l8-6c2-1 4-3 6-1 3 2 2 5 0 7-4 5-6 11-13 14l-3 1c-2 6-10 8-12 15-1 2-3 4-5 4l-4 1c-4 1-7 1-6-5 0-2-2-4-4-6-2-3 0-6 3-7 7-2 12-5 16-9 3-3 6-5 3-9v-4l4-2c4-1 6-4 11-5l-8-6c-3-1-3 1-3 3l-1 2v1c-3 1-5 3-8 2-1-1-1-2-3-2l-2 1-2-2Zm-75-60-1-3c1-4 2-8-2-12-1-2 0-3 1-5 3-4 7-6 11-4l6-1c6 0 13-2 19 4l2 1c5-2 10-1 15-1 3 1 2 4 6 4l1 2 1 2c-2 3-3 6 2 7 2 1 2 2 2 4l-3 3c-6 2-11 6-17 4-2 0-3 2-4 4s-3 3-6 3c-3-1-6-1-5-5 2-4 4-6 8-7 4 0 7-2 10-3l-7 3c-2 0-4 0-4-2-1-1 0-3 1-4l9-5c-6-2-11-1-16 2-4 4-10 5-16 6l-11 4-2-1Z"/><path fill="#3D4450" d="M316 671c3-4 4-8 5-12l3-7c5-6 7-14 9-21v-3l-3 1c-2 3-6 5-10 8 0-3 1-4 2-5 5-4 9-7 12-12h10l1 4-5 16 1 3v1c-3 5 0 11-2 16v2c5 3 2 7 1 10-2 4-7 8-11 7l-1-1c-7 2-9-3-12-7Z"/><path fill="#4D5462" d="m266 639-5-9v-4c-3-6-3-8 2-12 2-2 4-4 7-4 9 1 13-5 19-9 4-3 7-1 9 0 3 2 3 4 2 7v5l-1 3c-3 0-5 2-7 4l-8 5c-4 2-6 5-8 9-1 2 0 3 1 5v2c-4 1-6 1-9-1l-2-1Z"/><path fill="#5B6475" d="M191 491c-5 0-11-1-16 2v-9l1-2 1-2 1-1 1-2c1-3 1-8 7-6 2-3 3-5 3-8s1-5 5-3c2-1 2 1 3 2 0 3 1 3 3 3h7c3 0 5 1 7 3 1 1 3 2 2 4 0 2-2 3-4 3-6-1-12 1-17 1l11-1c1 0 3-1 3 1 1 2 0 3-2 4l-13 4 5-1 3 1c0 3-2 4-4 5-2 0-4 0-7 2Z"/><path fill="#222833" d="M186 470c-4 1-4 5-5 8l-2 2v1l-1 1v3l-1 1-1 2h-1c-3 0-2 4-4 7-5 1-7-2-9-5-2-4-2-8-3-13-2-8 2-14 7-20 3-3 6 0 9-1l7 7c4 0 4 4 4 7Z"/><path fill="#4D5462" d="M329 679c6-2 9-8 11-14-5 1-4-1-3-4v-8c-2-3 2-6 2-10l3-3-2 3h-1c0-7 1-13 4-19 3-2 4 0 5 2 3 10 5 20 1 30-2 6-2 13-3 19-2 3-3 6-6 7-5 1-9 4-11-3Z"/><path fill="#5B6475" d="m277 642-1-2 10-12c4-4 6-10 11-13l1-1c1-6 3-10 5-14 2-3 4-4 7-3 1 4-2 5-4 8 0 5-3 8-3 12 1 2 2 3 1 4l-7 15c-1 1-2 4-3 0-1-2-1 0-2 0-2 2-1 4-2 6l-4 8c-1 0-2 0-2-2 0-4-4-5-7-6Zm-71-123c-2 3-1 4 2 4 2 3 0 4-2 5l-17 8-5 1-4-2c1-7-6-12-5-20 3-1 4 2 7 2 2 0 3 2 6 1 4-3 8-4 12-5 2-1 4-1 5 2 1 2 0 3-2 4-6 1-10 6-14 5 4 1 7-3 12-4 2-1 3-2 5-1Z"/><path fill="#3D4450" d="M160 477c3 3 2 8 4 11l6 7c0 2-1 1-3 1h-12l-3-3c-5 0-6-3-8-7l-3-7-1-5 2-1 4-1c3 2 7 5 11 3 1 0 2 0 3 2Zm104 104c3 2 3 5 4 8 0 2-2 4-4 5-7 4-12 9-20 12l-3 4-7-3c-3-5-2-7 4-9l3-2 3-3c2-1 3-2 6-1 2 0 3 2 2 4l5-7c-1-3-1-5 1-8h6Z"/><path fill="#222833" d="M352 716c-7 3-13 3-19 3-2-2-2-3-1-5l2-1h2l1 1v-1c-1-2-3-3-2-6 9-3 4-9 3-14 3 0 2 3 4 4 2-1 2-3 2-4l3-2c2 1 2 2 1 3l-1 3-1 3h4l2 1v15ZM158 601l-6-1-1-5 1-5v-4c-1-1-3-2-1-4h3c3-1 6 2 9 2 1 3 3 3 6 2l4-2 3 1-1 2c-3 2-5 4-8 4-1 2-2 3-4 3-4 0-5 2-4 6l-1 1Zm-15-128-2 1-5 5-6-1c0-6-1-8-7-9-5-1-6-3-5-8l1-8h2c5 2 8 6 12 10 2 4 7 4 10 7v3Z"/><path fill="#5B6475" d="M270 612c-4 1-6 4-8 8-1 1-2 3 0 4 5 2 3 4 0 6-4-2-3-8-7-9 3-10 10-17 19-22 3 5-1 8-4 13Z"/><path fill="#222833" d="M281 655c2 5 7 6 9 11l-6-1-4 2c-1 1 0 2 1 3s2 0 3-1c1-2 2-1 3 0l3 3c-1 2-2 2-4 2l-12 1c-1 0-3-1-1-3 3-5 4-11 8-16v-1Z"/><path fill="#303843" d="M350 702v-2c2-4 2-9 8-10l2-1h4l1 11-1 4-1 1-1 1c0 2 0 5-2 6-4 0-5-2-6-4l-4-6Z"/><path fill="#222833" d="M162 538c2 0 5-1 6 2 1 1 0 3-1 4-2 2-5 3-6 1l-9-1c-1 0-3 0-3-2v-4c3-2 5-5 9-2 1 2 2 2 4 2Z"/><path fill="#5B6475" d="M340 683c1-3 1-5 4-7 3-3 2-6 3-10 0-2 0-4 4-4 1 2 2 3 0 4-2 7 0 14 0 21-4 0-7-4-11-4Z"/><path fill="#3D4450" d="m112 487 9 3c3 1 3 4 2 6s-3 0-4 0l-10-4c-2 0-5 0-4-4 1-3 3-3 5-2l2 1Z"/><path fill="#222833" d="m265 639 2 1c0 2 2 3 4 3 2 1 2 3 2 5s0 3-2 4l-3-2c-3-2-8-3-7-9 1-3 2-3 4-2ZM145 485l2 2c4 5 4 5 9 0 1 3 0 6-2 8-3 4-6 3-8-1l-4-5-1-1v-3h4Zm63 122h6c2 0 3 0 4 2 0 2 0 4-2 5-3 2-6 2-9 1-3-2 0-4 0-6v-1l1-1Z"/><path fill="#4D5462" d="m256 637 1 2c0 8-1 9-9 8-1 0-3 0-3-2 0-1 0-2 2-3l9-5Z"/><path fill="#222833" d="M209 607h-1l-1 2c-3-2-4-6-5-9-1-2 0-3 2-3 3-1 6 0 7 3 2 3 0 5-2 7Z"/><path fill="#4D5462" d="M239 598c-3 2-6 4-6 8-6 0-6-5-5-10h3c5-3 7-2 8 2Z"/><path fill="#222833" d="M183 580c-2-3 1-4 2-5-1-2-3-1-5-2 5-2 9-1 14-1-3 3-4 9-11 8Z"/><path fill="#4D5462" d="M189 519c-6 3-10 0-13-4l-1-2h2l5-1c6-2 8 0 7 7Z"/><path fill="#222833" d="M283 678c4 0 7-1 10 1 2 1 4 4 3 6-2 2-4 0-6-1l-8-4-2-1 3-1Z"/><path fill="#4D5462" d="M272 661c2 1 2 1 2 3-2 3-8 5-11 4-2-1-2-2-1-3l3-4c3-3 5-2 7 0Z"/><path fill="#272E38" d="m335 706 3 7c1 2 0 2-2 2l-2-2c-1-4-3-7-6-9 0-2 1-4 4-6 0 3 0 6 3 8Z"/><path fill="#3D4450" d="M138 517h2c7 2 7 2 7 10l-1 1c-2-5-3-9-9-9v-2h1Z"/><path fill="#272E38" d="m142 484-1 3c-4-2-5-7-11-9h6c5-1 6 0 6 6Zm-5 65-3-3c-1-1-3-2-2-4 2-1 3 1 4 2l4 4 2 4-2 1c-1-1-3-2-3-4Zm29 147c-1-4 3-8-2-11v-1c7-6-2-7-4-10-1-2-2-3 0-4s4-2 6-1c1 1 4 2 2 5 0 1 3 3 5 2 2 0 5-1 6 2s0 6-3 8v1c-1 2-8 1-5 7 2 2 2 7 6 8l2 3v2c-1 1-2 0-3-1-3-3-7-5-10-10Zm33-19c3 5 4 10 3 16-3-3-6-4-10-1h-2l1-2 2-2c6-3 5-8 4-13l-1-6c3 2 2 5 3 8Z"/><path fill="#00080E" d="M216 694c2-2 3-4 6-3 2 0 3 0 3 2 1 1 0 2-1 3l-5 3c-2 0-3 2-5 0-1-2 0-3 2-5Z"/><path fill="#303843" d="M102 357c-2-5-5-8-9-9-2-1-4-2-3-5s3-2 5-1 3 0 5-1l-1-4c-1-1-3-2-2-3 1-2 3-1 4-1l10 2h3v-3c-1-1-2-2-1-4 2-1 4 0 5 1 5 5 10 9 17 13 3 2 0 4-2 5-2 2-3 3 0 5 6 5 9 11 8 19-2 3-5 2-6 0-3-3-6-6-5-11l-3-3-2-2-11 4c-1 0-3 0-4 3l1 3c-4-2-7-5-9-8Z"/><path fill="#5B6475" d="M160 407c-7-1-10-6-16-8-2-1-3-2-2-4s2-2 4-1c8 2 16 3 23 8 3 3 7 3 12 1h3c5 0 3 5 6 7 1 3 2 3 5 3 4-1 9-2 12 4l4 1c6 0 12-1 17-3l7-1c4 2 7 5 5 10-4 3-9 3-14 3h-4l1 3c0 3-2 4-4 4-3-1-4-1-6 1-5 3-11 3-16 0 4-5 0-7-2-10-7-9-14-16-25-17-4 2-7 1-10-1Z"/><path fill="#4D5462" d="M183 405c-6 3-11 2-16-1-5-4-10-5-16-6l-8-3c-3-1-3-2-2-4-1-6 2-9 7-9l-2-1 3-3 2-1c4 2 9 2 14 3l2 1c4 3 4 4-1 7 5-1 9 0 14-2 2-2 4-3 6-2l3 3-2 4-12 5c9-1 10 0 11 6l-1 2-2 1Z"/><path fill="#222833" d="m175 422 10-4c0 6-6 8-7 12-4 4-8 5-13 7-3 1-7-1-9 1-1 1-1-1-2-2-1-4 1-8-1-12-2-1-2-4-6-5-2-1-1-6-1-9 0-2 3-2 4-2 4 1 6 1 8 5 1 2 4 3 7 5h3l1 1 1 1 1 1 2 1h2Z"/><path fill="#4D5462" d="m195 464-1-4c-1-5 1-10 2-15 3-4 7-2 11-2 6 3 13 4 19 8 1 2 1 4-1 6-2 4 2 3 3 4v6c-3 3-7 3-10 1-5-3-11-3-16-2-3 1-5 1-7-2Zm-72-12 1-3c2-3 4-2 6-1 3 1 6 3 10 1l15 3 2 1c2 2-1 4 0 7-2 6-7 9-13 8l-5-2c-6-4-12-7-16-14Z"/><path fill="#2F3642" d="M142 373c3 0 4-1 3-4-2-3-3-6-1-9 2-1 1-3 0-4-2-3-1-4 2-4l8-1 4 2 5 4c3-1 4 0 5 2 0 3-1 5-4 6l-8-2c-1 1-2 1-1 3 1 3-3 5-3 8v1l-3 3h-1l-4-1c-2-1-3-2-2-4Z"/><path fill="#4D5462" d="M209 445h-12c-2-3 1-6-1-10 6-2 12 1 17-3v-1c2 0 4-1 5 1 1 4 5 2 7 5 1 6 0 8-5 8h-11Zm-93-58c1-2 0-4-1-5l-2-5c7 0 8 1 9 7 1 4 1 8 4 11v5c-4-4-11-5-10-13Z"/><path fill="#222833" d="m140 390 2 4 1 4c-3 1-6 0-7-4l-7-12c-1-3-1-4 3-4l4 1c3 1 5 2 4 5v6Z"/><path fill="#3D4450" d="M169 423v-1l-2-1-1-1-1-2c-1-4-5-6-6-10 4-1 7 1 10 1 3 1 5 2 5 5l1 8-1 3h-3l-2-2Z"/><path fill="#222833" d="m142 373 1 3c-4-1-9-2-12-7l-5-3c-2-2-5-3-7-7l10 1c2 1 3 3 3 5 2 4 4 6 9 7l1 1Z"/><path fill="#272E38" d="M155 452c-4 2-9-1-14 0l-5-1c-2 0-3-2-2-5 1-2 3-3 5-2 5 3 11 4 16 8Z"/><path fill="#222833" d="M134 446c0 4 4 3 6 5-5 1-10 0-15-2-6-2-3-4 0-6l9 3Z"/><path fill="#3D4450" d="M176 456c-3 2-5 2-8 2s-5 0-6-3v-2c2-6 2-6 7-2 2 2 4 5 7 5Z"/><path fill="#272E38" d="m150 593-9 7c-3 2-4 2-6-1l-6-7c-2-2-3-4-3-7l1-1 14-2c1 1 0 2-1 2-1 3-4 5-2 8s6 2 9 1h3Zm-23-16c0-2 0-5 3-6 3 0 6 0 7 3 2 3 0 4-2 5-3 1-6 4-8-2Z"/><path fill="#222833" d="M372 136c-2-4-6-3-8-4-3-2-5-4-1-7 2-2 1-5-1-8 5-2 10-2 15-2 4-3 6 1 9 2s2 3 2 6l-4 8-4 1c-3 0-3 2-4 4l-1 1-3-1Z"/><path fill="#4D5462" d="M386 124v-6l-1-1c6 0 7-3 7-8 0-3 0-6 2-9 2 0 3 0 3 2l2 12c-1 3 2 6 4 8 4 5 4 9 2 14-5 1-6 1-8-5-2 5-4 6-8 4-2-1-3-2-3-4v-7Z"/><path fill="#303843" d="M403 136c2-4 1-8 0-13l4-2c1 2 0 5 2 7 3 2 6 2 9 0 6-3 9-2 9 5 0 3 2 3 4 3-4 4-9 5-14 5l-1-1c-4-4-4-4-9 0-2 0-3 0-4-2v-2Z"/><path fill="#3D4450" d="M417 65c2-3-3-7 2-9 0 7 2 14 6 19 4 4 2 5-2 7l-2 1c-2-6-4-11-4-18Zm-30 32c-3 1-6 1-7 4-1 2-3 2-4 0l-3-2s-2 0-2-2l3-1 4-3c2-4 6-3 9-1v5Z"/><path fill="#303843" d="M431 136c2-4 2-8 7-9l4-4c0-4 2-2 4-1 1 0 2 0 2 2v2l-8 10c-3 0-5 2-8 0h-1Z"/><path fill="#3D4450" d="M417 108c5 0 6 5 8 9-2 1 0 7-5 5-3-1-4-2-3-5v-9Z"/><path fill="#00080E" d="M369 685c5-3 10-6 16-2 1 1 3 2 4 1 3-1 6 0 9 2 7 0 11 5 17 7l9 2 1 1c0 6 2 10 5 14 4 5 3 12-2 16l-1 1c0 7-3 13-6 18 0 1-1 2-3 2h-1c-5-1-6-4-6-8 3-4 3-9 7-13-2 0-3-2-5 0v4c1 3 1 5-3 6l-2-2c-3-2-3-3-3-7l1-6c0-2 1-3-1-4-2 0-2-2-2-4s-1-3-3-3c-3-1-2 2-3 3l-1 7c-1 5-4 6-7 3s-7-4-11-5h-1v-3c4-2-2-10 6-10-3-1-5-3-6-7v-8c1-3-1-5-4-4l-4-1Z"/><path fill="#222833" d="M369 685c10-1 10-1 10 9l2 7c1 2 3 4 5 1 1-1 2-3 3-1v4c-1 1-1 2-3 1h-1c-3 0-5 1-5 3 0 3 3 1 4 2h2c-1 3-3 3-5 3-2 1-3 1-3 4v13l-2-1c-3-5-4-11-12-10-4-2-8-3-6-9 3-1 2-4 2-7h1l8 4c-1-4-1-7-4-9v-8c1-2 4-3 4-6Z"/><path fill="#272E38" d="m411 738 5 8c-3 5-3 6 1 10l5 3c3 2 5 6 3 9s-6 2-8 1c-3-1-5 0-6 2l-4 2-3-1 1-2 7-16c1-4-2-8-5-11l-1-1 4-4h1Z"/><path fill="#222833" d="M417 747c3-3 3-6 5-10l5-9 2 3c1 4 4 7 6 10 2 4 4 8-2 11l-4 3v-2c0-3 0-5-4-3-3 2-5 0-8-3Zm-6-9h-1l-1-2c3-2 4-4 1-7-5-3 1-5 1-8 0-2 3 1 4 1 3 2 6 1 10 2-6 4-8 10-14 14Z"/><path fill="#272E38" d="M656 664c-4 1-8-1-12 1-3 1-3-2-4-4s0-4 3-4c0-3-1-5-4-5l-7-1c-2 0-3-1-3-3-1-2-3-4-6-4-2-1-3-2-3-4 1-2 2-3 4-3l5-1 1-5v-2c4-3 6-1 8 2s3 6 7 7c2 0 4 3 4 0 0-6 3-7 8-8 2 1 3 1 3 3 3 4 0 9 3 13 1 1-1 2-3 3-3 1-3 3-1 5 4 3 4 6-1 8l-2 2Z"/><path fill="#4D5462" d="m661 633-3-1c-2-1-3 0-4-2-5-6-13-6-20-10-3 0-3-3-5-4l-1-1h-2l-2-1-7-7v-5c4-4 8-4 12-1 2 1 3 2 5 1 3-1 6 0 9 3l12 10c5 9 11 17 21 21-1 2-3 1-4 0-4-2-7-3-11-3Zm-29 3c0 2 2 4-2 3h-4c-1 0-4-1-4 1s3 2 4 2c6 0 4 5 5 8v5c-1 3-2 2-3 0 1-3-1-5-3-7-9-2-16-8-22-14-1-1-2-2-1-3 1-3 4-2 6-2 4-1 6 1 9 2l9 1c3-1 5 1 6 4Z"/><path fill="#272E38" d="M643 690c-1 7-3 9-10 6l-8-4c-2-3-3-5 1-7 6 1 11 5 17 5Zm77-65v2c-4 4-8 4-13 4-3 1-6 3-3 6l-6 2-1-13c2 5 4 4 7 3 2-2 4-3 7-3 3-3 6-3 9-1Zm-8 28c0-5 5-6 7-10h3l1 4-5 8c-2 0-4 0-6-2Z"/><path fill="#00080E" d="m167 273 3 3c-11 0-15-2-17-10 5 1 8 6 14 7Z"/><path fill="#272E38" d="M135 238c1 2 2 5-2 6-2 0-7-3-7-6l1-2 1 1c2 2 3 1 3-1 1-1 0-2 2-2s2 2 2 4Z"/><path fill="#4D5462" d="M703 328c6-5 13-6 20-9l4 1c1 3 1 5-1 8-4 4-6 11-9 16-1 2 0 3 2 3h9c4-2 8-4 12-2l2-1 2-1c3-2 7-3 10-1 2 1-1 8-4 10-4 4-9 6-14 7-3 1-7 1-9 5 0 2-2 2-3 4h-2c-2-2-4-3-7-3l-8-6c-3-3-7-5-10-6-2 0-4-1-4-4 1-3 5-2 6-5 1-1 0-2-1-2-2-1-4-2-4-4 0-3 2-4 4-4 3-1 5-2 5-6Z"/><path fill="#4D5462" d="m723 367 2-4 2-1c2 0 4 2 6 0 7 2 13 4 19 1l3 1c3 3 3 5 0 7-4 3-7 8-12 11l-8 6c-2 2-4 5-8 3h-1c1 5-6 4-7 9-3 3-6 7-11 2-6-4-7-12-1-15 3-2 7-4 10-4 4 1 8-1 12-2 2-1 4-3 1-5l-3-4c0-3-3-3-4-5Z"/><path fill="#5B6475" d="M703 328c1 3 6 2 5 6-1 2-5 0-7 1s-4 1-5 3c0 2 2 2 4 3 1 1 2 1 2 3s-1 2-3 2c-7-1-13-3-17-9l1-2 3-8c3-3 6-1 10 0l7 1Z"/><path fill="#272E38" d="M728 363h-2c-2 0-4-1-1-2l12-5 12-4c0 5 3 9 6 12l-3 1c-6 3-12 4-18-2h-6Z"/><path fill="#4D5462" d="m731 283-8-5c0-1 1-3-1-2s-3 1-5-1l1-2 4-1c8 0 13-5 18-9l2-1c1-1 3-2 4 0 1 1-1 2-2 3l-2 2-4 9c0 4-3 6-7 7Zm-24 31-5-7c0-5 2-7 8-6l6 1c-4 3-5 9-9 12Zm-11 13h-10l-1-8c2-5 5-3 8 0l3 8Z"/><path fill="#2F3642" d="m175 340 2-2c3-2 2-7 7-8 7 2 7 7 8 12v3c1 4 0 5-4 5l-15-2c-2-3-1-5 2-8Z"/><path fill="#272E38" d="M142 307c2 4 4 8 9 10l8 6v5c0 2 0 4-2 4-2 1-4 1-6-1v-6c1-1 4-2 2-4-1-1-3-3-5-2-4 1-6 0-6-4s-3-8-5-12c3 0 3 3 5 4Zm-37-19 3-6c-1-4 3-4 6-4 2 3 2 7-1 10-2 2-3 5 1 7l3 4c0 2 1 5-1 6s-2-2-3-4l-8-13Z"/><path fill="#313944" d="M87 311c-1-1-2-2 0-3h3c6 4 11 9 12 16l-1 3h-3c-4-3-6-7-8-11l-3-5Z"/><path fill="#00080E" d="m184 331-6 7c1-3-1-3-3-4-4-1-7-3-6-9v-1c3-2 8-2 11 1l5 4-1 2Zm-9 9c1 3-1 4-2 7 0 4-1 6-5 8-1-2-1-4-4-4-2-1-4-2-5-5 3-1 5 1 7 1 3 0 4 0 3-3l-1-2c0-2-1-4 1-5 1-1 2 1 4 2l2 1Zm-13 24c5-2 6-4 2-7l3-2c3 4 8 3 11 7l2 2c2 1 3 3 2 5-2 2-4 2-6 1l-4-2h-12l-1-1c-1-3 1-3 3-3Z"/><path fill="#313944" d="M118 321c-4 0-8-5-7-9l1-4 5 2c2 3 3 7 1 11Z"/><path fill="#272E38" d="m743 509-2 2c-1 0-2 0-3 2l-1 1c0 3-2 3-4 3l-14-1-6-4-4-5c-2-6-4-12-9-16-4-2-6-6-7-10-2-4-1-6 1-9 3-3 5-2 7 1 3 3 5 3 7-1l2-5c3-3 3-4-1-6-3 0-5-3-8-5-2-2-2-5-1-8s4-4 7-3c5 1 10 3 12 9 0 3 2 5 4 7 2 4 3 6-1 9-2 1-3 2-1 5 3 2 4 4 2 7-2 2-2 5 0 7l3 7 2 4c2 1 4 0 3-1 0-4 1-4 4-4 4-1 0-3 1-5 2 0 3 1 3 3-1 6 1 11 4 16Z"/><path fill="#4D5462" d="m720 454-12-6c-2-1-5-2-6 1-2 2 0 4 2 6 3 3 7 5 11 6 2 1 4 1 4 4 0 2-3 1-5 2h-2c-3 4-6 3-9 1s-6-5-7-8c-2-7-5-13-9-19v-5c1-3 4-5 7-8 3 0 6 0 9 3 3 2 5 4 6 7 2 5 6 8 10 11l3 1c1 1 2 2 1 4h-3Z"/><path fill="#272E38" d="M726 495c-4-1-6-5-8-9-1-1 0-3 2-4 2-2 3-4 1-7 4-1 8-2 8 4l2 2c2 2 2 3 0 4-3 1-3 3-2 5 1 3-2 4-3 5Z"/><path fill="#222833" d="m703 427 17 2 6 2c0 4-2 4-5 4-6-1-11-4-17-6-2 0-4 0-5-2h4Z"/><path fill="#272E38" d="M783 491c-2 6-4 7-11 4-1-4 0-7 3-10l8 6Z"/><path fill="#2F3642" d="M703 427h-2l2 2v2l-8-2-1-2c1-3 6-1 7-5l1-1c2-1 4-1 6 1l-5 5Z"/><path fill="#272E38" d="m682 607-5-5c-4 2-11 1-13-3s2-5 4-7c1-2 0-3-2-3l-4-4c-4-3-4-7-2-12 0-2 1-4 3-4 5 0 6-3 7-7 5-2 9-2 13 2 2 1 3 2 5 1l3-4c0-4-3-3-5-3-3 0-5-1-6-3 0-3 0-5-3-5-2 0-2-1-3-2 0-3-2-4-3-6 1-7 5-9 11-10 5-4 10-4 14-1 4 2 8 2 10 6 1 3 0 5-2 6-6 4-10 0-14-2 2 1 6 2 7 6 0 2 2 1 4 1 3 0 7-2 10 2l1 5c2 3 3 6-1 9v3c1 2 2 3 1 5-2 2-2 4 1 4v1l1 11c-3 4-1 8 2 11-2 2-2 4 0 6 3 3 1 4-2 4h-7c-4-1-7 1-9 5-3 3-7 2-9 0-3-1-6-3-7-7Z"/><path fill="#5B6475" d="m710 505 3 5c1 3 0 4-3 4 4 0 7 2 11 4 2 2 3 4 6 4 2 1 3 2 2 4s-3 3-5 2c-3 0-5-1-8-3l-5-3c-3-2-6-2-9-2-2-1-1 1-1 2 1 2 3 3 5 3 3 1 7 1 9 5 0 2 1 5-1 6h-4l-2-1c-5-1-10-3-13-6-4-3-7-5-13-5l-5-2c-1-2-2-3-1-5v-26l-2-16c-1-2-2-5-1-7 3-2 5-2 7 0l4 4c4 1 5 4 3 8-4 5-3 6 2 9 7 6 15 9 21 16Z"/><path fill="#272E38" d="m714 531-9-4-5-4c1-2 2-2 4-2l6-1c4 0 6 1 9 4 2 3 5 2 8 2s1-2 0-3-2-2-1-3c2-2 4-1 5 1l-1 5c-2 4-1 7 1 10l-5 1c-5 0-9-2-12-6Z"/><path fill="#4D5462" d="m732 522-5-2h-7c-5-3-10-4-15-5-1 0-3 0-3-2l3-1c3 0 6 2 8-2 7 6 16 3 24 5 6 4 6 6 1 9l-6-2Zm-50-1c7 0 12 4 16 8l10 5 1 2-2 2-14-6c-3-2-6 0-9 1l-4-1v-5c-1-3 1-4 2-6Zm30 30c-5-1-10-4-12 2-1 2-3 1-3 0-2-7-9-11-14-15 7 0 13 4 20 5l9 4c2 1 3 3 0 4Zm1-20c5 1 9 3 13 6 2 3 0 3-2 2l-10-2-1-6Z"/><path fill="#222833" d="M306 99c3 1 4 4 7 6 1 1 0 10-2 11s-2 0-2-2c1-3-1-5-5-5-3 0-4 3-4 7 0 3 3 8-1 11v4c2 1 4 0 5-1l8-8 3-3c1 0 2-2 3 0 1 1 0 2-1 2-8 5-8 11-7 18 0 6 2 12 1 18h-5c-3-1-3-3-3-5v-5c0 4 0 9 2 14 1 3 5 3 5 5-1-1-1-3 1-5 3 0 4-3 7-2l2 4v5l8 14c0 2 2 4 4 5l12 9 2 4 1 2 3 3c2 3 1 5-1 6-3 2-5 2-7-1 0 5-1 6-6 5-3-2-5-5-5-8 0-5-3-8-6-11l3 3c2 2 3 3 2 5h-4l-2-1-6-3c-4-2-5-6-7-10l-3-6c-1-2-1-4-3-5l-5-5-5-2-3-2c-1-2-2-3-4-3-6-1-7-6-9-9s1-7 5-6c3 1 3 0 4-2 3-4 3-9 6-13 1-2 1-3-1-4-9-5-8-5-5-14 2-5 6-9 9-14 3 1 5 1 5-2l4-4Zm-38 37h-2c1-4-5-6-3-11 1-2 0-4-2-5-7-2-4-8-6-12 0-4 1-6 5-8l12-1c-1-2-3-1-5-2-3-1-5-5-3-8 1-4 4-3 7-1 2 1 4 0 7-1h3c6 4 5 11 7 15 1 2-2 3-3 4-4 2-7 3-8 8v2c4 7-3 10-6 15 0 2-2 3-3 5Zm-9 25 3-2c8 3 15 8 20 14 1 2 3 1 5 1 0 3-3 4-3 7l-2 4c-2 2-3 5-6 6h-2c-4-5-7-9-5-16 1-2-1-3-2-5 0 7 1 14 6 20l-1 4-2 2c-3 0-5 3-8 2-8-1-10-3-10-8l2-5c4-4 6-9 2-15-2-4-1-6 3-9Z"/><path fill="#5B6475" d="M281 181c2-2 3-5 6-6l1-1c2-1 4-3 7-3 3-3 4-1 6 1 0 4 3 5 5 8l2 5c2 4 5 7 2 11l-2 1c-4-1-6-4-8-8l-6-8c-1-2-2-3-4-2-2 0-2 2-2 4 1 4-1 10 4 13 1 7 1 7-5 7l-3 1c-2 1-4 1-6-1-1-2-3-2-4-1-7-2-7-3-5-7h1l3-4 1-1h2l4-6 1-3Z"/><path fill="#272E38" d="M248 69c-2 0-4 1-5 3l-3 3c-1 1-2 2-4 1-1-1 1-3 1-4l2-2 13-7h5v4c-1 2-2 1-4 1l-5 1Z"/><path fill="#4D5462" d="M585 651h-1c-3-2-5-4-4-8 0-2 2-3 3-3 3 0 4 1 6 3-3-6-1-9 5-10l10 5c4 3 2 6 1 9-1 4-3 7-2 11 0 2-2 2-4 1l-8-6-3-1-3-1Z"/><path fill="#222833" d="M605 648c1-9-6-10-12-13l-1-3v-3l4-2 1-1 1-2 1-1 1-1 2-1h1c3 1 4-2 7 0l1 3c-1 2 0 4-2 6l-6 2 21 16c-4 0-9 2-13-1-2-2-4-1-6 1Z"/><path fill="#4D5462" d="m587 652 4 1c-1 3 2 5 4 7 3 2 6 5 2 9-1 2 2 3 2 4 5 5 4 14 0 18-2-1-3-2-2-4 2-1 1-2 1-2-4-2-6-5-5-10l-1-3-2-1-1-4c-3-4-4-9-2-14v-1Z"/><path fill="#5B6475" d="M655 614c-5 1-8-1-11-5l-5-5h-3c-2 4-4 2-6 0-3-2-6-4-11-2-3-2-1-5-1-7l4-11 4-4 4 2v3c0 2 1 3 3 4s4 1 4 3c1 5 5 7 9 8 1 2 2 3 4 3 2 1 4 2 4 5l1 6Z"/><path fill="#272E38" d="M682 607c6 2 9 7 16 8l1 3v2c-2-1-3-3-5 0l-3-1-6-1c-3-1-7-6-6-9 0-2 1-2 3-2Zm-11-14c-1 2-6 1-5 4 0 3 4 3 5 4 2 2 3 1 5 1l-1 2c-6 0-10 2-15 4-4-2-4-5-3-8 0-4 4-6 5-10 4-1 7 0 9 3Zm62 37c2-2 2-4 2-6-1-3 1-3 3-2 4 2 7 13 6 17-2 3-4 3-7 3-2-1-3-2-2-3 1-3-1-6-2-9Zm-13-4h-8c1-6 6-9 11-8s8 6 6 11l-1 2c-2-5-3-6-8-5Z"/><path fill="#303843" d="m727 631 2-1h4l3 1c2 2 4 4 1 7l-1 3c-2 3-4 3-5 0s-4-6-4-10Z"/><path fill="#272E38" d="M706 631c4-3 9-3 14-3 0 4-6 10-10 9-3 0-4-3-4-6Z"/><path fill="#313944" d="M665 623c0-3 0-6-2-9-2 0-2-2-1-3h4c2 2 6 2 9 2 0 2-2 2-3 2-4 1-4 3-2 6 1 1 4 2 2 4-1 2-3 0-5-1l-2-1Z"/><path fill="#303843" d="M659 599v8l-5 2c-2-4-7-3-9-7 1-2 2-3 5-3 3-1 6-2 9 0Z"/><path fill="#4D5462" d="M544 682c1 4-1 6-5 4l-3-1c-3-1-4-4-7-3-6 0-10-7-8-13l1-1 1-2 3-1 3-2v-1l3-2 1-1 1-1v-2c-1-3-3-7 0-8 4-2 5 2 7 5l2 4 1 3v2l-4 4c-3 2-4 3-1 6l3 2 2 8Z"/><path fill="#00080E" d="M524 668c0 3-2 3-3 4l8 10-1 10c0 3-2 4-4 3-3-5-5-11-9-15-1-1-2-4-4-3-2 0 0 3-1 4-4-1-5-5-4-9l1-2 3-1c5 0 9-2 14-1Z"/><path fill="#222833" d="m523 695 4-2 4 1c2 1 2 4 4 6l1 1 5 9c1 2 2 4 5 6l2 2-1 2c-2 1-3-1-3-2l-1-1c-8 2-7-7-12-9l-10-8c-1-1-4-2-3-4s3-1 5-1Zm-47-14c3 7 6 12 7 19-4-2-5-5-7-8-1-2-2-5-4-5-3 0-4 3-4 5l-1 2-3-1c-1-2-1-7-4-6-4 1 0 5-2 8l-5-9c-1-2 0-3 2-4 1-1 2-3 5-3 4 2 7 4 11 1l5 1Z"/><path fill="#5B6475" d="M484 679c-1-1-1-2-3-2-5 2-10 1-14-4l-2-21v-3c0-2 0-4 2-5 3-1 4 2 5 3l2 3c0 6 4 11 3 17-1 3 2 4 5 4 5 0 8 4 8 9l-6-1Z"/><path fill="#00080E" d="M467 672c4 3 9 4 14 5l-5 4-5 1c-4 0-6-4-9-4l-1-1v-4l2-1h4Z"/><path fill="#5B6475" d="m507 672 2 9-1 3h-4l-1-2c-5-6-3-10 4-10Z"/><path fill="#00080E" d="M497 681v6c0 2 1 3-1 5-3-1-3-5-7-4 2-2 4-4 1-7 1-2 2-4 5-3l2 3Z"/><path fill="#222833" d="M507 672c-6 2-7 3-5 9l-1 1-5-4c0-4 2-6 4-8l2-2c0-2-1-5 3-4 2 0 4 2 4 6l-1 1-1 1Z"/><path fill="#00080E" d="m455 683-2 2c-3 2-4 6-8 7-3-2-5-1-8-1l-1-1c1-2 2-3 4-3 4 0 6-2 9-3 1-2 3-3 5-2l1 1Z"/><path fill="#4D5462" d="m195 270 1-1 1-1h1l2 1c3 2 5 4 8 4-1-4-2-8-6-11v-2l2-3c3-1 5 1 6 3 3 7 9 10 14 14 4 4 4 3 1 8 3 2 9 2 10 8l-2 5c-3 2-8 0-9 5-6 2-10 0-15-1h-2l-1-1-4-3c-6-5-11-7-18-8-2-1-2-2-1-4 5-3 10 0 14-1-1-2-5-3-5-7v-1l1-2 1-1 1-1Zm31-46 5-3 1-1 1-1-1-1 1-1c1-2 0-7 4-9l3 1 11 7c1 2 2 3 5 3l3 2 9 9 5 5c2 2 4 5 4 8 0 2 1 4-1 5-3 2-4-1-6-3-2-4-6-6-10-8l-5 1c-4 2-8 3-12 1h-3c-6-4-11-8-14-14v-1Z"/><path fill="#00080E" d="M227 224v1l-1 2-5 7-3 4-3 1c-5 4-9 2-14-1l-13-8-3-3c3-4 5-1 7 0 3 2 5 4 9 4-1-3 2-7-2-10l-9-8c5-1 8 1 12 3h1c-2-5-6-9-7-14 5 2 8 5 10 10 1 4 2 7 7 6 2 0 3 2 4 3 3 2 6 2 9 2l1 1Z"/><path fill="#00080E" d="m204 257-1 2c0-3-2-5-5-7-4-3-4-4 1-7l-8-5c-1-1-3-3 1-4l4-1c6 2 11 6 15 11l1 2c-4 3-4 7-8 9Z"/><path fill="#272E38" d="M211 247c-5-5-11-8-18-11-3-5-8-4-12-7 1-2 3-1 4-2 6 3 11 7 17 8l2 1c2 4 5 7 8 0l2 1c3 5 2 7-3 10Z"/><path fill="#3D4450" d="M212 202c2 0 4-1 4-4l2-1c3 4 9 5 13 8l3 4-1 3c-9 0-15-3-21-10Z"/><path fill="#00080E" d="m233 212-1-3c2-4-3-4-2-7 0-3 1-3 3-3l2-1c3-1 4 0 6 2l-1 7-1 3c-3-1-3 1-4 3-1 1 0 3-2 4v-5Zm170-74 4 1c2-1 4 0 5 2 0 4-3 7 0 11s6 8 7 14c-5 5-6 5-9 1l4 30v5c2 1 1 3 0 5-2 2-4 2-6 1-6-2-12-3-17-7l-2-1c-3 1-5 2-7 0-4-4-9-7-12-12 0-3-1-4-3-6l-1-1-1-3 1-2v-7c3-3 5-1 7 1-3-6-6-11-10-15-1-1-2-2-4-1v3c2 2 3 5 0 6-3 2-4-1-5-2l-2-2c-2-2-3-4-6-5-2-2-5-3-4-7 4 0 7 1 10-1l2-2c2 0 3-1 2-2 0-2 1-2 2-2 3 3 5 1 7-2 2 2 2 5 5 4s1-3 1-6h5l-2-4c0-2 0-4 2-5 2 0 2 2 3 4 1 0 2 3 4 1h2c5 4 12 4 18 6Z"/><path fill="#222833" d="m342 147 5 5c4 5 5 10 6 15l2 8 2 6-1-6c-1-3-4-5-2-8 1-2 3-2 5-3l4 2h2l2 2v9c-3 3-1 6 1 9l3 1 11 11c0 3 0 4-3 5-8 0-16 1-23 3h-2c-1-6-5-10-6-15l-2-5 1-2v-3c-2-8-3-15-9-20-2-2-5-5-5-9 2-3 5-3 7-4l2-1Zm12-4-1 3c-4 0-7-1-8-5-1-5-3-6-8-7-1 0-3 0-3-2s2-1 4-1l5-1c6-4 10 0 15 4l1 2h-3l-5-3h-2v2l5 8Zm-36 9c3-3 3-6 0-9l-5-4c-2-2-2-5 1-5 4 0 4-3 4-6 0-1 0-3 2-4 2 0 2 2 2 4l2 8c3 5-1 8-2 12l-2 6c-2 0-2 0-2-2Z"/><path fill="#00080E" d="m306 156 4 1 1 2v2c0 4 4 8 3 13l-7-7c-1-2-2-3-4-1-1 1-2 2-3 1s0-2 1-3l3-2c1-2 0-4 2-6Z"/><path fill="#222833" d="M311 161v-2c2 0 4-1 4-4-1-2 1-2 3-3l2 2c7-1 13-5 20-6-1 2-3 2-5 3-2 4-5 5-8 6-2 0-4 0-6 2l-3 1-7 1Z"/><path fill="#00080E" d="m358 711 5 9-5 3c-1-3-4-5-6-6-3-5-3-10-2-15 3 0 8-4 6 3-1 2 1 4 2 6Z"/><path fill="#222833" d="M356 786c-5 1-9-4-15-4 3-3 7-3 10-6 1-1 3 1 4 3l1 6v1Z"/><path fill="#303843" d="M259 161c-2 4-3 7 1 10 2 2 1 3 1 5-2 4-1 9-6 12-2 1-2 5 2 7l4 2c2 1 1 3 0 4l-1 1c-4 1-8 1-11 5l-1 1-1 1h-2l-3-1c-2-1-2-2-2-4l1-3v-8c-1-3-3-5-2-9 1-1 3-2 4-1 2 0 3 0 4-2 3-4 1-7-1-10l-6-12c-1-1 0-3 1-4 3 0 4 3 5 5 1 1 2 3 3 2 3-6 6-3 10-1Z"/><path fill="#222833" d="M241 155c2 5 3 11 8 14 2 2 2 12 0 14-3-1-3-3-5-5-2-5-7-7-11-11l1-8c1-3 0-3-3-3-4 1-8 1-6 8-3-2-7-2-8-5-1-2 2-3 3-4 3 0 5-2 5-5 4-2 8-2 11-5l2 2c-3 4 1 5 3 8Z"/><path fill="#272E38" d="M236 144c-2 7-3 8-10 6-2-2 3-5-1-7l-2-4c-1-4 1-6 5-6l3-1c2 0 4 1 3 3-2 4 1 6 2 9Z"/><path fill="#222833" d="m262 140 1 3c1 3 3 7-1 8-3 1-5-3-6-5s-3-4-2-7c0-1 0-3-2-3-3 0-3-2-1-4l3-3c1-1 3-2 4-1 2 2 1 3 0 4-2 5 1 6 4 8Z"/><path fill="#4D5462" d="M731 374c2 0 3 1 3 3s-1 4-3 5c-5 1-9 5-15 4l-7 2c-3 2-4 5-3 8l2 5-2 3c-4 1-8-2-11-4-1-2-2-4-5-5-2-3-5-5-5-9l1-7 5-1c5-1 9 0 13 1 3 1 6 1 8-2 2-2 5-2 7-1 5 2 8 1 12-2Zm-30 48v1c-2 2-4 3-6 0v-6c2-3 4-5 7-4-2-1-6 1-6-3 1-4 4-2 7-2 7-1 12 2 19 5 4 2 4 2 2 5-2 1 0 2 0 3 2 2 6 3 5 5s-4-1-7-2l-11-2c-3-1-6-3-10 0Z"/><path fill="#5B6475" d="M722 413h-3c-6-5-13-3-20-4l-2 1 11 4c-4 2-8 0-12 4l-3 1-1-1c-3-8-3-16-1-24l8 4c0 5 5 4 7 6 5 4 11 5 16 9Z"/><path fill="#222833" d="m542 675-9-4c-1-1-2-2 0-3 3-2 5-5 9-5 2-1 3 0 4 1 0 4 2 7 0 10-1 2-3 2-4 1Z"/><path fill="#3D4450" d="M548 652v2l-1 1c-2 0-4 0-6-2-1-3-3-6-7-6-3 0-3-3-4-5 0-4-1-6-3-8-5-6-4-13-6-19-5 1-8-3-8-12 2-5 3-5 11-3 8 3 13 10 18 15 5 3 7 9 11 13v4h-4l3 2c0 1 0 2 1 1 3-4 5-1 7 2 2 2 6 4 5 9l-1 2c-4 0-6 2-10 1h-1c-2 1-4 0-5-2l-1-2-1-1c-3 2 0 2 1 4 2 1 2 2 1 4Z"/><path fill="#00080E" d="m563 647 2-1c1-2 2-4 5-5l3-1c4-1 6 0 8 2 0 4 3 5 2 8-2 0-5 0-7-2-3-3-7-2-11 0h-1l-1-1Z"/><path fill="#5B6475" d="m549 645 4 4c0 2-3 2-4 4l-2-4c-2-1-4-3-4-5l1-3c2-1 2 1 3 2l1 1 1 1Z"/><path fill="#00080E" d="M185 283c-1 1-2 2-1 4l1 1 1 5-1 3c-2 5-1 9 0 14-2 5-1 8 2 12 1 1 2 3 1 5l-3 2-4-2c-1-2-3-3-6-4-4-1-8-4-11-8l-4-5c2-4 5-1 8-1l-2-5c-2-6-4-10-9-13l-4-6-2-8v-4c2-1 3 1 4 1 5 5 11 8 17 10 2 1 4 3 6 1 1-2-1-3-2-5-2-1-3-2 1-2 0-4-3-4-6-6 7-1 11 3 17 5l-1 4-2 2Z"/><path fill="#272E38" d="m153 285 5 4 6 9c2 4 2 7-1 8-3 2-5 0-7-3l-2-7-1-4v-7Zm32-2v-2l3-4 3-2 14 11c-8 1-13-4-20-3Z"/><path fill="#2F3642" d="M233 167c6 1 11 3 12 9 1 4-2 5-4 5h-7l-6-3c-1 0-2 0-2-2 1-2 3-3 0-6 0-1 4-3 7-3Z"/><path fill="#272E38" d="M233 181c2-3 4-6 8-3 1 1 3 1 4-1 2 1 3 3 3 5-1 9-5 3-8 2-1 2-3 3-5 1l-2-4Z"/><path fill="#303843" d="m718 273-1 2c0 4-4 4-7 4h-3c-2 0-4 1-5-1 0-2 2-3 3-3 4-1 1-6 4-7 4 0 7 1 9 5Z"/><path fill="#272E38" d="m229 202 5 4c2 2 1 3-1 3-3-3-5-5-9-5s-7-1-7-6l-1-3 1-2c2-1 2 0 2 1 2 4 6 6 10 8Z"/><path fill="#222833" d="M233 196v-3l3-1 6 1c3 2 1 5 1 8h-4c-1-1-2-2-4-1l-2-1v-3Zm-79 100c3 1 2 4 4 6 1 2 2 4 4 3s1-3 0-5l-4-10c5 4 8 8 11 13l1 1c-3 1-2 1-1 2l3 4 1 3h-3l-10-3c-4-4-8-7-9-13l3-1Zm9 19c9 2 15 7 21 13v1h-6c1-8-5-4-8-5-3-3-7-4-7-9Z"/><path fill="#3D4450" d="m437 690-10 4-1 1c-3 1-4 0-5-2l-1-2 1-1c2-4 3-8 2-13v-2c-1-2-5-4-3-7v-9l1-5c1 0 4 0 3-2 0-2-1-4-3-5s-7 0-5-5c1-3 2-5 5-7h3c2 1 2 3 5 1h7l1 2v1l2 25c0 6 4 11 4 17 0 2 1 5-1 8l-5 1Z"/><path fill="#00080E" d="m123 452 7 5c2 3 5 4 9 6-1 5-5 2-8 2-3-3-4-8-9-8l-1-4 2-1Z"/><path fill="#272E38" d="M594 296c-2 2-2 4 1 6s6 5 10 5c1 1 2 1 2 3v9c1 5-3 6-6 4s-4-2-7 0c-6 5-14 3-21 2-3 0-3-4 0-7l2-4c0-4 3-4 5-6l1-1v-1l1-1-2 4-6 2c-5 1-9 5-13 8-4-1-8 1-12-1-1-1-2 1-2 1-6 2-7 7-9 12-2 4-6 4-9 6l-4 2c0 1-1 1 0 0l3-1c8 3 8 3 6 12-1 2-2 2-3 2l-4-1h-3c-2 1-3 2-4 1-3-5-8-1-12-2l-2-1c-1-5-3-9-8-12-4-2-3-7-4-11 0-2 1-4 3-5h5c0-4-1-8 4-11l7-2 3 3v2-1c0-2-1-2-2-3l-2-4c4-4 2-9 3-15-2 1-4 4-8 3-4-4-5-10-2-16l4-5v-4l6-9c1-3 4-4 6-2l12 6-3 5 3-4c0-3-2-3-3-3-3-1-5-3-5-6s1-4 3-6c3-2 5-2 8 1 2 2 3 4 4 1l2-5c5-1 8 2 8 8 0 2-1 3 2 4 6 0 7 1 6 7 3-2 5-5 9-2 2 4 6 6 9 9 4 5 6 10 7 16 1 7 3 8 11 8Z"/><path fill="#2F3642" d="M576 312c0 4 4 3 6 3-2 3-5 4-8 5l-1 2 2 2h13c3-1 5-2 6-4 2-5 5-3 7 0 1 0 1 3 3 2s2-3 1-4c-1-3 1-5 2-7l2 1 1 4 1 1c1 1 2 2 1 3l1 4c3 1 3 4 5 6l5 12-2 3c-3 2-4 4-3 8-2 5-7 3-10 3l1 5c0 3 2 5 5 3 2-1 4-2 6-1 3 0 4 3 3 6-2 5-5 10-11 11l-18 6h-12c-4-7-3-8 7-14-5 0-9-1-13 1-2 2-5 2-8 2-3-3-5-2-8-1h-4c-2-2-5-2-5-5 1-3 3-4 5-5l21-7s-2 1-4-1c-1-3 1-5 3-6 4-2 8-3 13-3h1c3-1 6-3 10-3-2 0-4 0-4-2-1-2 1-3 3-4l8-4-12 5c-1 0-3 0-4 2-4 1-8 4-11 7-4 3-8 6-13 7-3 1-5 1-5 5-3 5-7 6-12 2-3-1-5-4-6-6l-2-4v-5l-1-2c-4-5-4-5 0-11 2-3 5-3 8-5l6-3 2-4 1-1h4c2 0 5 1 5-3l1-3 5-4 3 1Zm-8-49c-5 0-8 5-12 5v-4c0-3 1-5-4-4-1 1-3 0-5-1-2 0-3-1-1-3 4-5 1-7-3-9-2 0-2 2-2 3-1 2-2 4-5 2-3-3-6-2-9 1-1 1 2 6 5 7 1 1 2 1 1 3l-1 1c-4-3-9-3-13-6l-3 1c-2 2-5 4-8 3h-2c-3 1-5 0-6-3-2-8-2-16 0-24v3c-1 6-1 11-4 17-2 4-2 9-5 13-1 2-2 4-5 3s-4-3-3-6c3-7-1-14-1-22v-6l1-3c-3-6 1-11 4-16 2-3 3-8 7-10 5 1 8 3 6 8-1 3 0 6 3 9l3-14 1-3c2 0 2 1 3 2 2 2 1 5 4 6 7 4 14 6 22 7 7 4 13 9 16 16 4 6 9 10 12 16 3 0 5 2 6 4l-2 4Z"/><path fill="#222833" d="M450 131c4-1 8 0 10 4s1 10 7 12l2 8c2 4 2 5-3 6l-1 1v3c0 6-1 12-3 17-1 2-1 5-4 5-4-1-2-4-3-6v5c-4 3-8 2-12 2-2 0-2 1-3 2-2 5-6 6-12 4v-7l1-2c2-4 7-7 9-12 2-3 4-7 7-9-1 2-3 2-5-1-1-2-3-5-3-8 0-2 0-3-2-4-6-1-5-4-5-8l2-6c5-2 9-2 12 2 5 2 4 7 7 10l-1-1c-1-5-5-8-5-13v-2l1-1 3-1h1Zm120 129c-3-1-4-3-6-5 4-5 9-9 6-17-1-2-1-8 4-9 2 0 2-2 1-3-3-2-1-5-1-8 2-6 6-11 10-15 3-3 7-2 9 1v2c-10 6-11 17-16 25l-3 6c-1 2-2 4 0 6s4 0 6-1h1c1-1 2-3 4-2 1 1-1 3-1 4 2 1 3-1 5 1-3 3-5 4-9 1h-2l-10 9c8 0 15-4 22-6 0-2 0-4 3-2 2 1 4 0 6-1s3-5 6-3l2-1c0-5 4-3 7-4-3 4-5 9-10 12l-1-5c-4 3-9 5-10 11l-1 2c-6 2-9 7-13 11-1-3 1-5 2-7l1-2-3-1-9 1Zm53 82c-4-3-5-7-7-11 0-4 4-5 7-6l6-2 9 3c1 0 3 0 2 1l-1 3-10 4c4 2 8 3 12 2l2-2c3-7 11-7 16-13 1 5-2 5-3 7-2 1-5 3-4 5 1 3 4 3 7 3s6 0 9-3l4-1c3 0 0 1 0 2 2 6-3 6-6 8l-17 5-2-1c-4-1-6 0-9 1-2 1-5 2-8 1-2-3-6-2-7-6Z"/><path fill="#272E38" d="M536 222c-2 4-5 3-9 2-5-2-10-2-13-8 4 0 8 0 8-6 0-1 3-4-3-3l1-3c3-5 7-10 8-15l8-19c2-4 6-7 3-12l1-1c3-1 6 1 10 2 2 0 1 1 1 3l-4 8-1-5c-7 6-8 15-9 23-1 4-2 7-5 10-6 3-7 17-3 20 2 0 3 0 4 2l3 2Z"/><path fill="#5B6475" d="M643 269c6-3 9-1 13 4 2 4 6 3 9 2l16-4c1 0 3-1 3 1v3c-4 1-6 4-6 8 5-1 9-6 16-6-3 7-11 8-16 13 3 2 5-1 7 0-1 4-6 3-9 7-5-3-9-7-13-12-5-7-13-11-20-16Z"/><path fill="#222833" d="M464 162c-1-3-1-5 3-4 3 1 2 0 2-2-2-2-3-5-2-8l7 16 3 2c2 0 1-2 1-3v-14c0-2-1-4 2-4 2-1 4 1 4 4l-1 8v3c0 4 1 6 3 9 2 5 4 10 0 16-4 2-7 4-10 0-1-3 2-6-2-8l-3-2-2-3-2-2c-3-2-1-6-3-8Z"/><path fill="#272E38" d="M494 207c0 5-3 8-5 12l-4 2c-2 2-3 2-5 1-2 0-3-2-3-4 1-4 0-6-4-5-3 0-6-2-5-5 0-3-1-7 1-11 1-1 1-2 3-2 6-2 11-1 16 2l6 10Zm-43-77v1l-3 1c-4-1-3-4-2-7l1-1c4-5 2-11 1-17 4-2 5-4 5-8v-7c1 6 4 12 7 18 3 2 3 5 2 6-2 3-1 5-1 8v2l-2 2c-3 1-6 0-8 2Z"/><path fill="#222833" d="M665 341c1-3 6-3 7-6l9-2c1 1 0 2 2 3 5 6 12 7 19 9 0 4-4 3-7 4-3 2-6 1-8-1-3-1-2-6-6-5l-6 3c-5 3-8 1-10-5Z"/><path fill="#5B6475" d="M458 125c2-1 2-2 1-4-2-1-1-3-1-4s-1-3 1-3l2 2v-6h2l3 14c2 4 4 5 8 2l3-3c1 0 3 1 2 2-4 4 0 7 1 10-3 1-6-2-9-3l-12-3-1-4Z"/><path fill="#222833" d="m488 197-15-1c-3-1-3-4-3-6 0-5 0-10 2-16l2 2 3 6c2 6 5 2 8 2 2 1 2 2 1 4-1 4 2 6 2 9Z"/><path fill="#5B6475" d="M518 142c-2-2-2-4-2-6 3 3 4 1 5-2l2-2c2 0 2 2 2 3v2c1 2 2 5 4 6 2 0 2-3 3-5l3-3c0-1 1-3 2-2 2 1 1 2 0 4l-3 6c3 2 2 5 3 8-5-3-11-4-15-9h-4Z"/><path fill="#222833" d="M493 184c3-6 8-10 9-16 1 3-2 27-4 32l-1-7c-4 2-5-3-9-4-1-4 1-5 5-5Z"/><path fill="#222833" d="M493 183c-1 3-4 3-5 6h-2l-1-5c2-5 1-9-1-13l-2-9c-1-1-1-3 1-1 2 1 1 6 6 4l1 2 3 16Z"/><path fill="#4D5462" d="m580 147 1 5c3 4 0 6-2 9h-1l-1 2-3 5-7-3c0-3 6-4 3-9 1-5 5-9 10-9Z"/><path fill="#222833" d="M629 323c-3 4-8 5-13 8l-3-6 8-7c1-1 2-1 3 1l5 4Zm-60-149c-2 4-3 8-7 9l-2 1v-3c1-3 2-7 5-9l3-2c2 1 1 3 1 4Z"/><path fill="#2F3642" d="m710 301-8 5c-5 0-9-1-14-3l-2-2c0-3 1-5 4-5 4 0 7-1 10-3l10 2 1 1-1 5Z"/><path fill="#5B6475" d="m710 279 7-4 13-2c-2 3-4 3-7 4-4 1-8 5-13 2Z"/><path fill="#4D5462" d="M700 293c-2 4-4 7-9 5-2-1-3 1-4 3-3-4-1-5 2-6 4-2 7-3 11-2Z"/><path fill="#5B6475" d="M529 132c-5-2-7-5-5-10 3-2 5-2 5 3 4-3 1-7 4-10l1 13c-2 0-3 3-5 4Z"/><path fill="#313944" d="M579 161c-1-3 2-5 2-8 3-4 5-7 4-12 3 0 4-3 5-6 0-1 0-3 2-3 2 1 2 2 2 3v5l-3 5c-1 2-4 4-1 5 2 2 5 1 7-1l5-4c1 4-3 6-6 10-1 2-3 2-6 1-6-4-5 2-8 4l-3 1Z"/><path fill="#4D5462" d="m580 146-10 10c-2 1-4 0-5-1 2-7 7-10 13-11 2-1 2 1 2 2Z"/><path fill="#2F3642" d="M344 620c-5-2-7-6-10-10l-4-8c0-3 0-5-3-3-2 1-4 0-6-1-6-4-11-10-18-12-3-1-3-5-5-8-1-3 1-7-1-10h-4c-4 3-8 3-12 0s-6-7-7-11l-1-4v-7c2-5 1-5-5-4-2-1-3-2-3-4l-2-3c1-4 2-6 5-8l8-6c8 3 10 1 13-6s9-12 16-9l8 2 1 3-1 1-3 1 2-1c8-1 8-1 10 5l3 3c8 2 9 6 3 11-2 2 0 1 1 1 2 1 2 3 1 4l-3 4c-5 5-5 11-1 18v2c0 1-2 1 0 3h3c6-5 12-4 18-2l3 2 2 3c2 3 2 6 1 8-2 4 0 6 3 7l8 3h1c3-6 12-4 15-12 4 0 6 2 6 6 1 4 2 7 5 9 2 1 2 3 2 5v-5c-2-5 1-9 5-12 2-2 4-1 5 2l4 10c1 4-1 8-4 10 2 1 3 3 3 6-1 2-1 3 1 5 7 5 7 9-1 15h-4l-2-2c-4-7-4 1-7 2h-3c-3-1-5-1-6 2-1 2-4 2-6 2l-9 2-3-1c-4 2-9 2-13-1-2-3-6-3-9-7Z"/><path fill="#3D4450" d="M271 612c-1-5 2-9 3-13 6-5 9-10 13-15l1-3h-3c-6 1-9 7-14 9 6-8 12-16 23-19 2 1 3 4 4 6-4 8-2 11 5 13 4 1 6 3 7 7-7 3-8 10-11 16-2-1-1-3-1-5s3-6-3-4c-2 1 0-3-2-3-1 4-7 4-9 7-4 6-9 3-13 4Z"/><path fill="#4D5462" d="M330 602c3 1 4 4 4 7l-2 5c-1 2-2 5-4 0 0-2-2-1-3-1l-3 3h-3c-1-1 0-2 1-3l10-11Z"/><path fill="#3D4450" d="m322 606-8 8h-3c-1-1 0-2 1-3 2-2 3-4 2-7v-4c2-1 3 0 4 1 2 1 6 1 4 5Z"/><path fill="#5B6475" d="M298 578c-2-2-4-1-5-1l1-6 2-3 7-1c-4 3-2 8-5 11Z"/><path fill="#4D5462" d="M344 620c3 0 7 1 9 4 4 3 8 5 13 4l-2 8c0 11-6 19-10 28 0 2-1 2-2 3l-2-4c-3-2-1-5-2-7-1-6 2-11 1-16 0-1 1-3-2-3-2 1-1-2-1-4 0-3 0-6-3-9l1-4Z"/><path fill="#5B6475" d="M398 687c-4-1-4-1-5 2-1-2-1-5-5-3-1 1-2-1-3-3 3 0 5 0 5-2 1-5 4-9 4-14-1-6 1-11 2-17l1-9c1-2 2-4 5-4 2 1 2 3 2 5-2 14-2 28-5 42l-1 3Z"/><path fill="#4D5462" d="M383 634c-2 11-3 21-8 31-1 3 0 7-3 10-2-2-3-5-2-8v-12c4 0 5-2 5-5v-9c-1-4-2-9 1-13 6 0 6 1 7 6Z"/><path fill="#222833" d="M402 638c-4 3-2 8-6 11-2-2-3-5-2-8l3-15c0-2 0-4 3-5l2 1c4 3 0 7 1 12l-1 4Z"/><path fill="#4D5462" d="M383 635c-2-2-2-5-6-6v-3c2-1 5 0 5-4 0-2 4-1 6-1l5 2-1 2c-1 2-5 2-5 5-3 1-3 3-4 5Z"/><path fill="#222833" d="M377 626v2l-2 12c-2-1-3-3-4-6 0-2 0-4-2-5 1-3 4-3 8-3Z"/><path fill="#4D5462" d="m264 534 2 2c-1 4-3 4-6 4s-5 1-6 4c0 3-4 3-5 6 2 4 2 4-2 7l4-2c1-1 3 0 3 1v3h-1l-7 7c-2 3-5 5-9 5-2-1-3 1-6 2-1-5-4-5-8-3-4 1-7 3-11 6-3 3-5 2-5-3l-1-2h1c-2-4 1-6 3-9l10-9c2-1 3-3 3-5 2-5 9-10 14-9 5 0 8-1 11-4 3-4 6-2 10-2h3l3 1Zm-20-8c-4-2-8-2-11-1l-3 2c-4 10-15 12-21 20-1 2-2 4-4 3-1-2 1-3 1-5l1-2c-3 0-7 3-9-2v-1l1-1 1-1 2-1c1-9 8-10 14-14l4-4c7-3 14-3 22-2 3 2 4 4 5 8l-3 1Zm-4 73c-2-3-5-3-8-3 0-6 6-7 9-11l9-12h5l3 1c3 2 5 0 7-1 2 1 1 4 4 5l-1 2-3 2-5 1c-4-2-7 0-9 3-3 4-6 7-8 12l-3 1Z"/><path fill="#4D5462" d="M220 520c-1 5-5 6-8 8s-8 3-8 9l-3 3c-3-1-4-2-6 0h-5l-3-5c5-5 11-6 17-9l5-3 5-2c2-2 4-4 6-1Z"/><path fill="#272E38" d="M259 534h-5c-2 0-5-2-3 3v1c-4 1-9 5-12 4-5-2-8 0-11 2l-4 3h-5l6-5c2-3 2-4 7-5l6-3c3-2 6-4 9-2 2 1 3-1 5-1 2-2 3-3 6-2 2 2 2 3 1 5Z"/><path fill="#3D4450" d="M231 573c8-4 16-8 22-14-1 5-6 8-10 12-2 2-4 4-4 7l-2-1c1-7-3-4-6-2l-1-1 1-1Z"/><path fill="#4D5462" d="m259 530-6 1c-3-2-7-1-9-5l2-1 3-2c5 0 10 0 14 2l1 3-5 2Z"/><path fill="#3D4450" d="M245 553c0-3 2-4 4-6l4-6c0-3 2-5 5-4h8l2 4c1 1 1 2-1 3-3 1-5 4-7 6 2-1 3-5 8-5 1 1 2 2 1 4-3 5-6 9-11 11l-4-1c0-2 0-3-3-2l-11 6c1-6 7-7 9-11-2-1-3 1-4 1Z"/><path fill="#5B6475" d="m266 543 2-2 5-3c1-1 3-2 4-1 2 2 0 3-1 4 0 4 1 8-2 12-3-3-4-3-6 0l-7 8c-2 1-3 2-4-1 5-4 10-7 11-14l-2-3Z"/><path fill="#3D4450" d="m269 581-1-3c-2-2 0-5-2-6h-1c0-3 3-5 5-7 4 3 7 7 12 6l1 2c1 1 0 1-1 2l-13 6Z"/><path fill="#272E38" d="M315 509c-4 1-8 0-12-1s-9 0-10 5c-2 7-7 11-13 15 0-2-1-4-4-5-1-2 1-3 2-4 2-1 3-2 2-5 1-3 2-6 6-6 3-1 4-3 3-6l-1-4c-3-5-3-5-1-10h-8c-3 1-4 3-4 5 0 4-2 5-5 7l-7 3-2 1c-3 2-7-1-9 1-3 3-7 2-11 3l-5-1c-3-1-3-3-2-6l-1-2v-1c6 0 10-6 16-7s13-4 19-8c8-5 17-8 26-9h-4l-31 11-4 4c-4 3-8 4-11 1-6-6-7-9-3-14l4-4c-4-1-7 4-11 2-2-3-1-5-1-8 0-2 2-3 4-3l5-2 2-1c3 1 5-1 7-1h5l1 1c1 5 4 5 8 3h6c4 1 6 1 9-3 2-2 6-3 10 0l1-3 3-2 4-1h1c2 2 4 2 6 1l9-3h2-1l-13 4c-3-4-4-8-9-10-3-2-7-3-10-6h-2l-2 1c-5 0-10 0-12-4-2-3 3-5 4-8-6 0-9-4-13-7l-2-2c0-6 1-12 4-17 1-2 3-2 5-1 2 2 3 1 5 0l15-1c4 0 7 1 11-2l2-1c2 0 4 2 5 3 1 3 3 3 5 2l3-2h2c4 3 8 2 11 2h-8c-3-2-6-3-9-2s-5-3-8-3c-7-1-12-2-18-5l-4-1-3 1c-3 0-5 0-6-3 0-3 3-4 5-5 10-3 21-6 32-5l-10-4c-2-2-5-3-3-6 1-4 4-4 6-2-2-1-3-3-2-5 3-6-1-9-4-12-5-3-9-8-15-10-3 0-4-3-2-5 3-4 2-7 3-11 0-5 3-7 7-5 9 7 19 12 28 20 3 2 7 3 10 6l-25-17c-2-1-3-2-4-5 1-2 0-4 2-6l5-1c1 0 3 1 4-1 0-2-1-5-3-5l-9-7c-5-4-7-9-9-16 0-4-3-7-3-12 0-4 1-7 5-9h4v1l-1-1h-1l-3-1c-1-3-1-5 1-5 3-1-1-2 0-3 2-4 6-4 9-5 4-2 6-4 5-9 2-2 3-4 6-3 2 1 3 3 3 5l2 1c2 0 3 3 5 1s3-3 2-5l-1-5c-1-3-2-5 0-8 3-1 5 0 7 2 7 7 15 12 24 15 7 2 13 0 20 1 4-2 1-5 1-8l1-5c3-5 0-10-1-15l-4-10c0-2 0-4 3-5 2-1 5 1 5 3 0 6 4 11 6 17l2 4c-3-5-2-10-2-16l-2-6c-1-1-1-3 1-5l4-3c2 1 4 0 6-1h2c6 4 13 6 19 8h3c2-1 1-2 0-3 0-2-3-4 1-5l1-1c4 1 4 5 8 5l3-4c1-2 1-4 4-4 9 0 10-7 11-13 1 4 3 7 7 4l5 1c3-1 4 2 5 2l7 2c6-1 6-1 6 5v12l1 4c2 1 2 0 3-1 1-2 2-2 3-1 1 2 5 2 4 5l-2 4c0 1 0 3 2 3l2-2c1-2 0-4 2-4s1 2 3 4c-2 3-1 7-4 9v3c5 3 3 5 0 8v3c1 4 0 9 4 13v3l-2 3c-1 3-3 6 0 8s4-2 5-4l1-2c0-9 6-16 7-25h1c-1 7 2 14 2 20 0 1 0 4 3 2h3c3 3 5-1 8 0 0 4-2 6-5 9l-1 2-2 5c-4 6-2 11 0 16 2 2 3 4 2 6l-3 13c-4 4-4 8-2 11 1 1 2 3 1 4s-2-1-4-1l-3-3c-4-1-3 2-4 3 2 7 6 12 11 16 2 2 3 4 1 7l9-2c3-1 6-1 4 3l2 1c2-1 4-2 6-1l2 2 9 1c2 0 4 0 6 2l6 6c3 4 6 3 10 0 2-4 6-6 12-5l14 1c-2 2-4 2-5 2l-25 8-4 2c0 2 2 2 3 3l4 2h7c4 0 8 0 10-4l1-1c5 3 10 0 14 2 2 1 3 2 0 4l-4 2c-5 0-6 3-6 8l-1 4-5 1-8 1-11 1-10 2c2-1 5 0 8-2l11-1c4 1 7-1 11-1l3-1 8-3 20-6 7-2c2-1 5-2 1-5l2-1c2 0 4-1 4-3s-1-3-2-3l-6 1c-1 2-1 5-3 3s-6-3-5-7c0-3 0-5-2-7 0-1-2-3 0-4 1-1 3 0 4 1 2 2 5 4 8 1 2-3 4-3 6-2l3 1 2 1 2 2 4 4c0 2 1 3 3 4 2 2 2 3 0 5l-4 3c-4 1-5 3-4 6v3c-2 4-6 2-9 3l-10 1c4 1 11-3 17-1 3 8 7 16 2 24-3 4 0 8 0 12-3 5-7 8-9 13l-4 3c-4 0-6-3-9-6s-6-3-10 0c2 3 5 5 10 5 3 0 5 2 5 5-1 3-3 4-6 4l-6 1h6c4-2 7-2 10 2 8 6 6 15 5 22v7l-6 21c-4 3-8 1-11-1-2-1-1-4-4-5-6-3-12 0-17-2l-2 1 3 1c2 1 4 3 7 3 7 0 14 3 21 5 1 3 3 5 3 8v3l-1 4c-2 4-2 8-5 12-1 2-2 4-5 6h-1l-14-5c-3 0-5 0-6 3-2 1-3-1-5-2-2-2-5-1-8-1-7-4-13-9-17-16-1-2-3-3-5-3-3 0-5-1-5-4 1-4-1-6-5-8l-6-6 4 4 6 6 1 2c-1 4-4 6-8 4l-3-3c-4-4-7-7-12-6l8 11v4h1c4 0 6-3 11-2l3 2 2 2c5 5 8 11 14 12l6 1 1 1c4 7 9 11 15 15v2c-4 5-9 7-15 7-4-1-6-1-9 3-2 4-7 5-12 5l-7-4-2-3-7-10 7 9 2 3v1c-2 3-3 8-8 8 5 2 6 4 2 10v1l-1 1 1 4c-2 4-4 4-7 4-4-1-8-3-10-7-1-1 0-4-2-4h-8c-4 3-8 4-9 9-1 2-4 3-6 2l-4-2 3 6c2 3 2 5-1 7-3 1-4 4-4 6-1 3-3 5-6 4-3-6-3-12-4-17 0-2 0-4-2-5 4 10 3 21 8 32 0 4 2 7 1 11l-5 3-4-4-6-15c-1-4-2-8-1-11-2 7 1 16 4 25 1 3 4 4 7 5 2 3 2 6 2 9 1 2 0 4 2 6v3l-3 1c-3 0-4-2-5-4l-4-6c-1-4-5-5-8-7l-2-2c-1-1-1-4-4-4l-7 8c-2 1-4 5-7 4h-16c-4 1-7 1-8-3s-5-4-8-7c-1 0-2-1-2-3l2-4c4-4 3-8-2-10-1-1-2 0-4 1l-2-1c-1-1 0-2 1-2 4-1 3-4 4-8l-3 1c-1 1-2 2-4 1v-3c0-2 1-4 3-3 5 0 5-5 5-7l-5-13c-3 4-7 7-5 13v4c-1 1 0 4-3 4s-5-2-5-4c-1-4 3-1 5-2-6-3-9-6-8-12 1-3-2-3-3-5l-4 1-3-2c-1-6-2-11-7-15h-1c-2 0-4-1-5-3v-7 3c-3 2-7 2-8 6-3 2-3 5-5 7h-2c-7-3-13-1-19 4l-3 1h-2l1-2c1-1 2-1 1-2h-2c-2 1-4 0-4-2 0-3 2-1 3-1l4-2-2-2c-1 0-3 1-3-1l2-2c1-1 0-3-1-4-3-2-2-3 0-5l8-11c-3-1-8 3-7-4 3 1 8-2 8-5-1-2-3-4-4-3-7 4-7-3-7-5 1-4 0-5-4-3-1 1-1 0-2-1l-1-1c5-3 8-8 12-12l11-6h-1c-4 0-8 0-10 4-3 2-6 2-6 6 0 3-1 4-3 5Z"/><path fill="#2F3642" d="m236 506 14-2v-2l-4-1 1-2c2 0 4-1 5 1 3 4 6 3 9 1l6-3c3-1 7-2 6-7-1-3 2-5 5-5l11-2h2v5c-5 2-4 5-1 8 2 2 2 6 3 10 1 2-2 3-4 3-3 0-6 1-7 4-4 7-10 10-16 14l-3-1c-5-2-11-1-16-2-3-1-4-3-5-6-2-2-6-3-5-7l-1-4v-2Z"/><path fill="#3D4450" d="M195 464c3 2 6 1 10 0s9-1 14 2l8 1c5 0 6 3 6 8 0 2 0 3 2 5v3c0 2-1 2-2 3s-4 1-2 4c1 1-1 3-3 3l-18 3c-2 0-4 0-4-3 0-2-2-2-4-3-3-1-7 0-11 1 3-3 7-3 10-6s7-3 9-4c-3 0-6 3-10 3l-13 3v-2c7-3 14-4 22-8-8 0-16 2-23-1l28-4c-3-6-9-6-14-5-2 1-4 0-6-1s-1-2 1-2Z"/><path fill="#303843" d="M233 484v-4l-1-3 2-3c6-4 11-6 19-5l-9 8c-1 2-4 4-3 6 2 2 4 6 7 7s4-1 5-3c2-3 4-4 7-5 9-2 17-5 26-9l3-1c6-3 7-3 10 3l-2 2c-6-1-11 1-17 3l-10 5-15 6c-6 2-11 3-15 8-1 3-4 0-7 0l-1-1c-1-1-3-3-2-5 2-2 1-6 3-9Z"/><path fill="#3D4450" d="m189 520-1-1c0-5-2-8-8-6h-2c6-3 13-6 20-7l5-3c4-3 10-5 16-4l9 2c-5 4-11 5-17 10 6 0 11-3 16-3-4 4-8 5-13 7-3 1-6 1-8 4-4 1-7 2-11 5-3 3-8 1-13 1l16-5 4-2c1-1 3-1 2-3s-2 0-4 1l-11 4Z"/><path fill="#5B6475" d="m237 512 5 6c-4 1-9 2-14 1-2-1-5 1-7 2h-7c1-4 3-6 7-4 2 1 3 0 5-1l11-4Z"/><path fill="#4D5462" d="M233 484c1 4-2 9-1 13-3 1-5 0-5-4 1-1 3-1 2-3h-2c-2 0-3 1-4-1 0-1 1-3 3-3l7-2Z"/><path fill="#3D4450" d="M297 615c-3 8-11 14-15 23-1 3-4 0-5 2-6-1-7-3-4-7 6-9 15-14 24-18Z"/><path fill="#4D5462" d="M200 484c5-3 11-4 17-5-4 4-10 4-15 6l-2-1Z"/><path fill="#272E38" d="M131 465c2-3 5 0 8-2l3 1c6 3 9 2 13-4h2l1-1 2-1 2-3 5 2c-2 7-7 12-7 19l-4 2c-4 1-7 0-10-4 0-2-2-1-3-3-6 0-8-4-12-6Z"/><path fill="#303843" d="M176 476c1 1 2 3 0 4h-3c-4-1-5-11-1-13 2-2 2-1 2 1 1 3 0 5 2 8Z"/><path fill="#3D4450" d="M347 656c3 1 3 3 3 6-3 4-3 8-4 13l-1 8c-2-3-1-5-1-7 2-6 1-13 3-20Z"/><path fill="#4D5462" d="M242 598c3-7 5-13 11-17 2-2 5-4 6 1 0 3-3 5 2 6-2 4-5 9-10 11 0-2 0-5-2-6-3-1-3 2-4 4 0 1 0 3-3 1Z"/><path fill="#272E38" d="M367 699c4 3 5 8 7 13-5-2-10-3-13-8 1-1 2-1 2-3l4-2Z"/><path fill="#313944" d="M270 403c-1 3-3 3-5 2-3-2-4-1-4 1l-1 5c-2 10 0 13 11 15l3 4c-4 0-3 5-7 6 6 2 11 4 16 1 3-2 4-1 4 2l1 2c5 0 8 4 11 6s5 4 2 8l-1 1h-2c-3-3-5 0-8 0-3 1-6-1-8 1-2 1-3 2-4 1-5 0-8 0-12 2l-5 1h-9l-6 1-2 1h-2c-8 2-11 0-9-9l3-5 2-6c1-2 2-3 4-1l7 4c-6-2-8-6-10-11l-3-3v-3c0-2 1-4 3-5 0-4-3-5-4-8-2-2-5-2-5-5 0-8-1-8-7-10-2-2-2-5-2-8 2-3 1-6 1-9-1-3 0-6 4-6l5-2-4-3-1-6v-2l2-5c1-5 6-3 8-5 3-1 5-2 7-1 3-1 6 1 10 1h2l3 1 1 1 2 3c1 2 3 3 5 3l2-1 7-6 2-1 2 1 2 1c1 2 3 1 5 0l-3 1-8-3-4-3c-7-3-13-8-21-11l-1-2-2-2-2-1c-3-3-2-7-3-11v-2c2-2 4-1 6-1 4 2 7 4 11 4l-11-3c-2 0-3-2-3-5 1-3 2-7 6-7l1-1c1-4 3-6 7-7l4 1c6 6 14 9 23 11l7 4 1 1 1 1v2c4 6 10 8 15 12l17 13c-6-2-12-5-17-9l-20-12c-3-2-6-7-9-5-3 1-1 6-1 10 0 3-3 4-4 7 8 1 13 7 19 11 2 1 3 6 6 8 1 1 0 1-1 2-3 3-3 5 1 7l4 6c-3 0-3-1-4-2-2-3-4-2-6-2l-2 2 1 2c4 1 7 4 11 4 2 0 4 1 4 3 0 3-3 2-4 2-12 1-24 3-35 7l2 1c10-4 16 5 24 6l2 1 1 2-3 1-6 1c-7 0-13-1-20 2Z"/><path fill="#4D5462" d="m231 409 3 6c-8 4-16 5-25 5-3 1-7 2-6-4 1-1-1-1-2-1h-9c-2 0-4-1-4-4l1-1 1-1 1-1v-2l-1-1-1-1v-3c3-4 5-3 8-1 2 0 1 2 3 1 0-8 5-11 12-12 8-2 9-1 12 4v7c4 2 5 5 7 9Z"/><path fill="#222833" d="m238 430-1 2c1 2 0 3-2 4l-6 3c-2 1-4-1-6-2h-4l-3-1c-1-1 1-2 2-3l4-3 1-1c5-1 10-2 15 1Z"/><path fill="#4D5462" d="M238 430h-14c-2-2-2-3 0-5l15-1-1 6Z"/><path fill="#222833" d="M224 392c-2-3-7 0-10-2-3 1-6 0-8-1-10-4-20-6-30-7h-18c-3 0-6-1-8-4v-4c3-5 4-6 10-4h5l-3-2v-1c4-2 7-3 11-1 2 1 5 3 8 2 0-2-3-2-4-5 0-2 1-3 3-5 3-2 6 3 10 1 3 0 5 2 8 4 6-1 11 0 17 1 3 1 5 2 6 5-1 2 0 3 2 4l9 2 6 1-1 1c-4 0-9 1-12 4-3 2 0 7-1 11Z"/><path fill="#4D5462" d="M168 380c16-1 31 3 45 9 0 2-1 3-2 3-6 1-8 5-10 10h-3c-3 0-5-3-8 0-1-1-3 0-4 1-3-5-6-6-11-5l-1 1c-2-1-5 1-6-2l4-3 12-4c1-1 4-1 3-3l-4-1-2 2c-5-1-10-3-13-8Z"/><path fill="#272E38" d="M168 380c4 3 9 4 13 8-7 3-14 2-23 1 3-3 6-3 8-4l2-1-3-2 3-2Zm55 57 6 1c3-3 7-1 10-4 2 1 5 1 4 5-1 2 1 3 3 3l4 1c2 1 3 3 3 5l-1 2c-3 1-4 0-5-1l-1-2c-5-6-5-6-9 1-2 0-1-2-2-3l-5-1c-1 3 1 6-2 8h-2l-18-7c3-3 8-2 11-2 5 0 6-1 4-6Z"/><path fill="#4D5462" d="M225 452h3c2-3 4-2 7 0v3c0 8 0 8 8 8l-2 1c-7-1-6 4-7 9l-1 3h-1c0-4-3-6-5-9l-1-5c0-2-3-3-3-5l2-5Z"/><path fill="#00080E" d="M154 367h7l2 1 2 2c-2 4-5 2-7 1-3 0-5 0-7 3-2-3 1-5 3-7Z"/><path fill="#5B6475" d="M403 137c-4 3-7 2-11 0-3-2-5-3-8-3-3-1-3-2-2-4l4-6c2 1 2 4 2 6 0 3 1 4 4 4s2-2 2-4v-2c1-2 1-4 4-4 2 0 2 3 2 4 1 3-1 6 3 8v1Z"/><path fill="#00080E" d="M445 141c-4-2-6-6-11-4l-4 5c-4 1-7 3-10 2l-5-1 1-3c6 1 10-2 15-4l9-2 4-1 1 1c-1 2 2 4 0 7Z"/><path fill="#4D5462" d="m398 687-1-2c3-2 4-5 4-9l3-33 2-2c1-1 2-2 4-1 3 1 2 4 2 6l2 18v4l1 6c-1 7-2 14 6 18l5 2-2 2c-6 1-12-1-16-4l-10-5Z"/><path fill="#272E38" d="M633 619c9 2 19 3 24 12-4 2-7 4-5 9 2 3 0 4-3 3l-4-3c-6-5-8-12-12-18v-3Z"/><path fill="#4D5462" d="M609 624v-3l1-3 3-3h3c2-3 5-3 9-1 2 1 3 2 3 4 0 1-1 3 1 4 2 2 3 4 2 7v1c-1 3-3 2-5 1l-8-2c-4 0-7 0-9-5Z"/><path fill="#222833" d="m631 629-3-5v-10c3 0 4 2 5 4l11 21c-4 0-5-3-7-6-2-2-2-4-6-4Z"/><path fill="#2F3642" d="M618 627c5-1 8 2 13 4l1 5c-2-1-5-2-7-1l-8-2c-2-2-1-4 1-6Z"/><path fill="#00080E" d="M627 581c-3 3-5 7-5 11l-3 10-1 4c1 2 0 3-1 3-5-1-6-5-9-8-1-1-3-3-5-3-3-1-3-4-5-5l-3-5c0-3-1-6 3-7s6 2 7 5l4 8-3-5c-1-3-1-4 4-4l-2-4c-1-2-2-4 0-7 2-2 4-1 7-1 5 1 9 3 12 6v2Z"/><path fill="#5B6475" d="m616 609 2-2c4 0 4 4 6 6l1 2c-3 0-6-1-9 2h-3l-1-5 4-3Z"/><path fill="#222833" d="M202 262c4 0 6 2 7 5s2 6 5 8c-7 2-11 0-15-5 1-2 3-3 2-5l1-3Z"/><path fill="#4D5462" d="M681 341c4-2 5 2 6 4 1 4 2 5 5 6s7 2 9 4 5 1 7 2c3 2 6 3 7 6l6 4h2c2 0 5 0 6 3-3 4-6 3-10 3l-12-2c-5-1-10 1-14 2h-6c-4-3-6-8-9-11l-1-2c3-6 4-12 4-19Z"/><path fill="#303843" d="M708 357c-4 2-7 2-10-2s-8-2-14-2c4-2 1-5 3-7l7 3c2 4 7 3 10 5 1 1 4 0 4 3Z"/><path fill="#2F3642" d="M706 369c8 0 15 3 23 2l2 3c-1 7-4 8-10 5-3-2-6-2-8 1-2 2-4 3-7 2l-13-2c-3-4-2-7 2-8 4 0 8-1 11-3Z"/><path fill="#4D5462" d="m197 365-6-4-10-4c-3-3-7-4-8-9v-1c6-1 12 0 18 1 0-2-5-3-1-5 3-3 6-1 7 1 1 4 5 5 8 6l4 2 3 2h2l1 1 1 1 1 1v2l-2 3-7 1c-4 0-7 0-11 2Z"/><path fill="#222833" d="M210 354c-4-1-7-4-11-3l-2-2c-1-4-3-5-6-6-3-2-2-5-2-7l-5-4v-3l3-2c6-2 8 2 11 5l2 6 4 4c-2 3-1 5 2 5l4 3v4Z"/><path fill="#5B6475" d="m173 348 17 13-9-2c-6 2-9-1-13-4l5-7Z"/><path fill="#272E38" d="m168 355 12 4c0 2-1 3-3 4-2-1-4-3-7-3-2-1-3-2-3-5h1Z"/><path fill="#4D5462" d="M710 505c-2 3-3 1-5-1l-11-8c-4-3-11-4-12-10-1-3-1-5 2-7l2-3c-1-2-2-2-4-2l-3-3c2-3 0-5 1-8l4-4c4-1 7 1 8 4l3 8c-2 10 2 16 9 21 4 4 5 8 6 13Z"/><path fill="#222833" d="M696 472c-4-2-6-5-7-8 0-3-2-4-5-4h-3c0-5 4-4 6-6 4-3-1-4-2-6-2-2-2-6-2-9 0-2 1-3 3-4l2 1c0 4 3 7 4 10 3 6 5 13 10 18 2 2 5 4 9 4 0 4 0 8-5 10-3 1-6 0-7-3 0-2-1-3-3-3Z"/><path fill="#5B6475" d="M688 436h-2c-3-4-2-7 4-12h3l1 3v2c1 5-3 5-6 7Z"/><path fill="#222833" d="M602 530c4-5 6-11 9-17l2-1c9 5 19 7 29 10 6 2 11 6 16 10 1 1 2 3 1 4-1 2-3 1-3 1 4 0 8 3 12 5l2 1 5 4 2 1c1 2 4 2 4 5 1 2 3 3 5 3 4 0 6 3 7 6l-3 3c-2 2-5 0-6-1-4-3-7-3-11-3-4 1-8 0-11-4v-4c3-4 5 0 7 1-2-5-6-4-11-3-4-2-8-5-13-6-4-2-5-6-9-8l-12-7 10 6c2 1 4 2 4 4 1 5 4 10 4 16-2 4-5 4-9 3-3-1-7-2-10-5-1-5-5-7-8-9-1-2-3-2-3-5l1-1 2-1-6-2h-1c-3-1-6-2-6-6Z"/><path fill="#222833" d="M663 551v5c0 3 0 4 3 5 2 0 4 0 5 2 1 6-1 9-7 8-1 0-2 0-3 2s-3 2-5 1l-5-3c-4-1-8-2-11-5l-1-2c2-2 3-4 2-7 1-3 2-4 4-3 3 1 4-1 6-3h12Z"/><path fill="#4D5462" d="M651 569c2 0 4 0 5 2l5 2 1 3c-4 6 3 8 6 10l5 5-1 3-9-3c-4 2-7-1-9-3l-10-7-1-3c1-5 4-7 8-9Z"/><path fill="#00080E" d="M672 563c-6-1-11 0-15-2 1-3 3-3 6-4 5 2 9 3 15 2 4 0 7 4 12 6-1 4-3 3-5 1-4-2-8-4-13-3Z"/><path fill="#5B6475" d="M670 544h-2v-5l4-11 1-1 3-3c3-1 4 1 5 3v4l2 2-1 1c-5 0-8 2-10 7 0 2-1 2-2 3Z"/><path fill="#00080E" d="m617 476 1-11c0-7 2-13-5-18l4-3c3 0 3-1 4-3 1-7 2-8 9-6 2 2 6 1 8 5 0 5 5 5 7 7 1 2-2 3 0 4s4 0 6-3c1-2 3-2 6-2l3 1 1 7c2-2 3-5 6-6 3 0 5-1 8 1l2 12c0 3 0 5-2 7l3 13v32c-3 3-7 3-11 2s-8-2-12 0c-1 1-3 1-4-1-4-5-10-6-16-8-5-2-8-5-8-11l-2-8c-1-5-6-7-8-11Z"/><path fill="#222833" d="M617 476c3 0 5 4 7 0l5 21c1 3 2 4 4 5l14 6c2 1 5 1 5 4 0 2 1 1 2 1 5-4 10-2 15 0l9 1v2l-3 6c1 2 0 4-1 6h-5l-9-2c-6 0-10-4-15-5h-2l-2-1c-9-5-15-12-25-14-2-1-2-3-3-5v-5l4-20Z"/><path fill="#4D5462" d="M710 520c0 4-2 5-6 3h-4c-2-2-6-3-5-5 1-3 5-1 7-1 3 0 6 1 8 3Zm-20-10c-2 1-4 3-5 1-1-3-3-5-2-7s3-1 5-1h1c2 1 5 0 6 3 0 2-3 3-5 4Z"/><path fill="#272E38" d="M370 249c-6 2-12 2-18 1-11-2-22-7-30-16l-3-3c-3-2-3-4-2-7s3-6 6-8c4-2 8-4 12-2 6-1 6-1 4-6v-1c3 1 5 4 8 3 2-1 3-1 2-4 1-2 2 0 3-1h2l1 1h1l3 4 1 2c0 5-3 10 0 15 0 1 0 2 2 1 1-1 1-4 3-4l2 1 2 8 1 13v3Z"/><path fill="#303843" d="m354 204-1 1c-4 0-5-3-7-5-2 0-2-1-3-2-5-2-7-6-11-9-3-1-3-4-4-6-2-6-5-12-10-16-1-1-2-2-1-4l1-3 1-2c3-2 5 0 7 2l10 8 2 3c1 4 3 7 6 9l10 20c1 1 2 2 0 4Z"/><path fill="#4D5462" d="M325 217c-4 4-7 8-7 13-1 3 0 5 1 8l-5 1-4-5c2-5 2-10-1-15-2-2-2-5-3-8v-2l2-2c3-4 0-7 1-11s-1-7-2-10c0-1 0-3 2-3l4 6c2 6 6 9 11 12l3 4c1 3 2 5 0 6-2 2-4 0-5-2 0 3 4 4 3 8Z"/><path fill="#3D4450" d="M325 217c-1-3-3-4-5-5-5-2-5-3-1-6l2-1 1-1c3 1 2 5 4 8l-1-10 4 1c-1-3-5-5-6-9v-1c7 5 11 12 13 20l-11 4Z"/><path fill="#00080E" d="m317 163 1 2c8 6 11 14 13 24l-4-5c-4-6-6-14-11-19-1-1-2-2 1-2Z"/><path fill="#303843" d="M306 155c0 3 1 5-1 6-6-6-3-13-4-20l1-1 2 1 1 8 1 6Z"/><path fill="#00080E" d="m259 201 3-4 7-2c0 1-1 3 2 3l3 2c2 0 3 1 3 3l3 10v5c-1 2-3 1-5 0-4-1-6-4-8-8l-8-9Z"/><path fill="#303843" d="M272 191c-5-4-7-9-7-15l-2-9v-3l9 11c-4 5 0 9 2 14l1 2h-3Z"/><path fill="#4D5462" d="m276 204-2-4c3-2 4 0 5 2 1 0 2 3 3 0 1-4 3-3 5-1 3 1 5 0 4-4l3-1c3 2 4 5 5 8-1 3 1 5 1 8l1 5-6 3h-3c-7-1-11-5-13-11l-3-5Z"/><path fill="#3D4450" d="m294 196-3 1-8-7c1-2 3 0 4-1-2-3-2-6-1-9s3-3 6-4c2-1 3 1 4 3l12 16c2 4 3 9 2 13l-2 1h-3l-1-1v-2l-10-17c0 2 2 4 0 7Z"/><path fill="#222833" d="m615 612-2 4-2 3-8 4h-1v1h-1l-1 2-1 1h-1l-4 3h-1l-1 1v2h-1l-1 1-1 1-1 1v3l-3 2c-2 0-2 1-3 2l-8-1c-4-1-6-5-8-7 1 2 5 3 5 8l-6 3-10-12c-2 3 1 6 0 8-5-1-5-8-9-11h6c-7-6-10-16-18-20-3-3-5-7-10-8 0-3 1-4 3-5l5-3c4 0 4 2 5 4 1 3 1 7 6 6h4l3 1c2 5 5 6 9 7 4 0 5 2 5 5s3 5 5 8l-4-9-2-6c-1-2-3-5-1-7 2-3 4 0 7 1h2c1 0 3 1 4-1 1-1 0-2-1-4-2-2-5-3-6-6l1-2c6-1 11 3 16 5-2-1-2-3-5-4l-2-2-1-1c-1-4-3-5-6-6-3 0-5-2-5-4-1-5 3-6 5-9 2-2 2-5 6-6l1 1 6 7 7 7c3 2 4 5 5 8 0 2-2 4 1 3h1c3 1 4 3 5 5l10 11 2 5Z"/><path fill="#5B6475" d="m584 641 2-3 1-2 1-2 1-2 2-1h2v3c-5 1-4 4-3 7l4 8c-5-2-7-5-10-8Z"/><path fill="#3D4450" d="M644 577v3c0 3-2 3-3 5-4 2-8 0-11-1l-3-3v-1l1-2 3-1-2 1c-5-1-9-3-12-6l-1-2 3-3 2-2c-1-3-5-3-7-5l-1-1-1-1c-1-3-2-5-1-8 5-2 7 2 11 4l1 2c2 4 5 6 8 9l5 6h1l3 1c3 1 4 2 4 5Z"/><path fill="#4D5462" d="m651 600-5 2-7-2c-2 0-4-1-3-5 0-3-3-4-6-5-2-1-5-1-2-5 7 1 14 1 21 4 5 3 5 5 2 11Z"/><path fill="#222833" d="M650 590c-8-1-15-1-22-5l1-1c4-2 7-1 11 0 3-1 6-2 9 0 2 2 4 4 1 6Z"/><path fill="#272E38" d="M650 591c0-5-1-7-6-6l-3-1c-1-3 1-3 3-4 8 1 12 8 18 11v3c1 3 1 5-3 4v1l-8 2c-3-3 2-7-1-10Z"/><path fill="#222833" d="m547 655-2 1-2 2c-5-2-4-7-8-9-1 2 1 4 1 7l1 2-1 1-3 3h-1l-2 1-2 2h-1l-1 1-1 2-1 1-13 2c-7-9-12-18-14-29 0-2-2-2-3-3l-1-2c-2-4-4-7-4-11 0-2 1-4 3-5 6-2 8-7 12-11l5-6c1-1 3-2 5 0 1 4 2 7 5 10 2-1 1-3 2-4l3-1 3 2c0 1 0 2-2 3-1 0-2 1-2 3l2 10c1 4 4 6 7 9 3 2-1 7 3 9l1-3h1l6 9 4 4Z"/><path fill="#303843" d="M495 636c4 3 4 8 6 12l9 22-1 1c-1-3-2-5-5-6-1 2 4 6-2 6l-3-1c-5-7-12-14-10-25l2-4v-1l4-4Z"/><path fill="#4D5462" d="M491 645c-1 4 0 7 2 10l8 16-4 6v1l-2 1v1l-5 1-1-1c-1-5-4-7-9-6-4 0-8-3-6-6 2-6-1-10-1-16 2-1 2 0 3 1l2-5c1-1 3-1 2-3-1-4 1-8 1-11s-1-4-3-5v-4l-1-11 2-1h1c4 3 6 6 7 11v3c1 3 1 6 3 8l1 2v8Z"/><path fill="#4D5462" d="m477 653 3 3-1 3c-2 1-2 0-2-1l-4-6c-3-1-4-4-5-7-1 9 2 18 0 27h-3c-4-1-3-5-4-7-2-7-5-14-5-22 2-3 4-4 4-7l1-1h6c3 1 4 2 5 5l3 6c3 2 1 5 2 7Z"/><path fill="#222833" d="M458 641c-1 5 1 10 2 14l4 17-1 2c-2-1-3 1-4 2-5-1-3 3-4 6-4 3-8 7-13 7 0-5-1-9-3-13-4-12-4-24-4-37 3 0 2 2 2 3 1-2-2-5 1-7 3 0 4-3 7-4 3 3 6-1 9-1 2 3 6 6 4 11ZM204 258c1-4 0-9 6-9 8-3 13 1 19 4l3 3 8 6c2 3 5 2 8 4 5 3 12 5 17 10 1 1 3 3 5 3 3 2 6 4 7 8 0 4-2 5-6 4h-13c-4 1-8-1-12-3 0-3-1-4-3-4l-9-5-4-3 3 3c4 3 9 3 12 6l1 3c4 3 4 7 2 11l-2 2c-3 2-5-1-7-2h-2l-2-1-1-2v-2l-1-1v-2c0-3-2-4-4-5l-10-5 7-3c-2-3-5-4-7-5-5-2-8-5-9-10-1-2-3-4-6-5Z"/><path fill="#3D4450" d="M184 295v-2c1-2 2-2 4-2l6-1 9 3 3 3 1 1c4 3 8 4 12 4l6 1c7 2 13 3 18 8l1 3c-3 4-6 1-9 2h-1c-5-2-11 0-16-2-2-1-5-1-6-3-2-3-4-5-8-5l-7-2c-3-3-6-4-10-5-2 0-3-1-3-3Z"/><path fill="#3D4450" d="M237 298h1c2 1 3 3 2 5s-3 2-5 1l-8-1c-3 0-3-1-4-3v-4c0-3 1-3 4-3l5 2c2 1 3 3 5 3Z"/><path fill="#5B6475" d="m222 299 3 2v2c-6 0-13 0-18-6 5 2 10 2 15 2Z"/><path fill="#272E38" d="M203 293c-2 1-5-1-7-1-5-1-9 1-12-4v-1c2-2 4-1 6 0l13 6Z"/><path fill="#222833" d="m276 204 3 3c3 5 6 10 13 12l4 8c-2 3-2 5-1 7l3 5v3l-16 10-3 3-1 1c-3 0-5-2-7-4l-16-14c-1-4 3-4 5-3 4 1 9 3 12 8 1 2 1 4 4 4l-4-11-9-11c-1-2-2-2-4-2s-2-1-3-2c-2-1-3-3-5-3l-12-7c1-4 4-3 6-4h1l1-1c4-3 8-3 12-5 4 0 6 2 8 5l8 10c1 1 2 2 3 1 2-1 1-2 1-3-2-3-3-6-3-10Z"/><path fill="#272E38" d="M239 238c3-1 5-2 7 0s5-1 8 0l3 3c2 1 4 3 2 5s-4 0-6-1h-1l7 3 3 6c2 2 4 3 3 7-3 2-5 1-7-1-3-5-8-9-13-12l-6-7v-3Z"/><path fill="#4D5462" d="M258 224c2-2 1-5 2-8 4 7 9 12 12 19-5-3-10-6-14-11Z"/><path fill="#3D4450" d="m239 237 1 2c0 2-2 3-4 3l-8-7c-3-2-5-5-3-9l1-1 13 12Z"/><path fill="#5B6475" d="M233 258c-5 0-7-4-10-5-4-2-6-4-10-3l-3-1v-2c3-3 4-6 4-10h3c2-2 4 0 6 0l3 3c0 2 0 4 2 5l13 10c1 2 3 3 1 5-1 2-3 1-5 0l-4-2Z"/><path fill="#5B6475" d="M225 226c1 6 7 9 10 13 1 3-1 3-3 3l-10-5c-2-1-3-1-3-3l6-8Z"/><path fill="#3D4450" d="m429 141 4-4-1 10c0 1 1 3 3 1 4-3 4 1 4 3 0 4 1 9 4 13 2-3 0-6 2-9 3 8-5 24-14 29-3 0-1-3-3-5 2 2 0 5 2 7l-1 7-4 11c-1 1-1 3-4 1l-3-5c-1-4 1-9-1-13v4c-1 2-1 5-3 7h-1c-2-12-5-23-5-35l1-3c1 3 1 7 4 8 2 1 2-2 4-3 3 0 2-2 1-3-1-3-2-5-1-8l2-2 3-3 7-8Z"/><path fill="#222833" d="m361 166-6 1c-3-2-5-6-3-9l5 4h2c0-2-2-3-3-5s-1-4 1-6h6c6 6 10 12 13 19l1 4c0 1 0 2-2 2l-2-1c-1-2-2-5-5-6h-1l-2-1h-1l-3-2Z"/><path fill="#272E38" d="M393 175c-2-1-2-5-5-3-2 1 0 4 1 6 1 3 3 5 2 8-2-5-6-10-7-16l-1-7c0-1 0-4-2-4s-1 3-2 4c-2-2-2-5-2-9l2-2 5 2c9 3 8 11 9 18v3Z"/><path fill="#4D5462" d="m418 153 3 12v6c-3-1-3-4-4-5-1-5-4-9-7-13-1-3 0-3 2-4 4-1 4 1 6 4Z"/><path fill="#5B6475" d="m414 149-4 3c-3-1-3-8 1-10l5-1 3 1c3 3 4 6 2 10l-2 2h-1c-2-1-1-5-4-5Z"/><path fill="#4D5462" d="M353 157c-2 4 1 6 2 10l2 9h-1c-4-3-4-7-5-11l-4-12 6 4Z"/><path fill="#313944" d="m358 212-1-1c1-2-1-3-1-5h-1c2-3 5-4 9-4 2 1 6-1 9-1 2-1 3-1 5 1 5 10 2 21 5 31v2l-1 1h-1c-1-8-6-14-9-20l-1-6c0-2 0-3-2-3h-1v3l5 16c0 4 1 7-2 10l-3-1v-1l-1-9h-1l-5-7-3-6Z"/><path fill="#3D4450" d="m335 170-10-8-6-4c4-4 10-4 15-7 2 4 4 7 7 9 6 6 7 12 7 20-1 2-2 1-4 0l-7-8h-1l-1-2Z"/><path fill="#4D5462" d="M336 172c5 1 7 7 12 9l2 3v1h-2c-4-5-10-7-12-13Z"/><path fill="#00080E" d="M691 424c-3 4-5 7-5 12l-2 2-1 2h-2l-2-2c0-4-3-2-5-2l-6-1c-3-1-4-3-2-6-7 4-13-2-20-2h1c2 1 6-1 6 4 1 2-3 4-7 4l-9-1h-3c-3 0-5 0-5-2l-3-12-1-7c-1-4-1-6 1-9 2-2 3-4 2-7-2-4-2-8-2-12v-5l-1-6c-1-6 0-7 6-4 1-1 4 1 3-3 2 0 3-1 1-3-2-3 0-4 3-4 5 2 9 1 14 1h4c4 3 7 2 11 1-4-2-3-5-2-8s3-2 4-2c-6 2-11-5-18-1l9 2c2 0 3 0 4 2 0 2-1 3-3 4l-3 1c-6 1-11 2-17 1l-9-1c-2-1-3-2-3-4l1-2h-4c-3-2-5-4-4-7 1-1 3-2 4-1l4 1c5-1 9-1 13-4 2-1 3 0 4 2v1l1-1c4 0 7-2 10-3 2-1 4-2 7-1 5 6 5 6 11 2l5-2c3 5 2 10 0 14l-2 6c4 8 4 16 7 24l5 8c2 8 0 16 2 24 2 3 0 5-2 7Z"/><path fill="#4D5462" d="M706 369c-2 4-4 7-9 5-4-1-4 2-5 5l-4 1c-6-2-6-6-2-9 7 1 13-3 20-2Z"/><path fill="#5B6475" d="M686 370c-3 4-1 7 1 10l-1 5c-2-1-2-3-3-6-1-5-4-11-4-17 3 3 7 4 7 8Z"/><path fill="#2F3642" d="M481 614h-1c-3-3-4-7-3-11 3 0 3-3 4-5 1-3 1-7 7-6-2-4-3-7-6-9-1-1-2-3 0-5s4-2 6 0l2 2c1 2 2 2 3-1 0-4 2-6 6-7l4-2c3-3 5-4 7 0l1-4c3 2 3 5 4 8 2 5 9 8 14 5 1-2 1-3-1-4v-5c7-2 1-4 0-7 4-2 4-6 8-8 3 0 4 3 7 3 3-1 7 0 5-6l4 2c2 1 3 1 3-2-1-4 2-5 4-4 8 1 14-1 20-4l1-1-2-2-1-1v-3l1-1c3-1 6-2 3-6v-5c-2-4 3-3 3-3 5 4 12 3 17 8l1 2h-2l1 1v1c-3 3-7 4-7 9l-4 4c-2 1-2 2-2 4l-5 8-6 8c-2 1-1 4-4 5-5 1-8-1-12-1-9 0-18 1-24 10l-1 2c-2 2-1 4 1 5 2 2 2 4 0 7l-3 1-10 7c-3-1-7-4-10 1-4 1-5 4-8 7l-12 12c-3-3-3-3-3-10-3 4-6 4-10 1Z"/><path fill="#303843" d="m571 643-9-9v-3h3l8 11-2 1Z"/><path fill="#4D5462" d="M183 295c5 1 10 2 14 5l5 2c5 1 10 2 13 7 2 3 6 2 10 3 2 0-1-3 1-4 3 1 4 5 8 6 3 1 2 3 0 4l-6 3c1 2 2 4 5 3 2-1 4-3 4-6l-2-4c-1-2-1-2 1-2l6 2c5 2 2 5 2 8l-1 3c-2 3 0 7-4 10-5 5-16 6-21 2-2-2-1-3 1-3-4 1-8-5-12 0h-4l-9-6c-7-4-11-9-12-17-1-5-2-11 1-16Z"/><path fill="#5B6475" d="M182 311c3 9 10 15 19 19l2 3-2 2-4-1c-2-4-6-5-9-7l-3-5c-3-3-3-7-3-11Z"/><path fill="#4D5462" d="m414 669-2-3v-24c0-2 1-5-2-7-2-1-4 1-6-1-3-4-2-7 3-9 4 1 6 3 8 6l7 5-5 7c6-3 7 4 11 6 2 0-1 6-2 9-2 2-3-2-4-2l-1 1v1l-1 3-2 6-4 2Z"/><path fill="#272E38" d="M414 669c3-2 2-5 4-8 2 0 3 2 3 4-1 8 0 16 1 25l-1 2c0 2-1 2-3 1-5-4-8-14-6-20l2-4Z"/><path fill="#4D5462" d="M422 691c-4-7-3-14-3-21l-1-9c1-2 1-3 3-3 2 4 1 9 0 13 3 0 2-2 4-3v8c-2 5-1 10-2 14l-1 1Zm16-56-1 9-2-5v-1c-3-1-5-2-6 1-1 1 0 4-2 3-3 0-3-2-3-4v-2c5-1 9-2 14-1Z"/><path fill="#2F3642" d="M529 339c-4 1-6 4-10 4 0-2 1-2 3-3l13-8c1-1 3-3 1-5-1-2 0-2 1-2l1-1c-2-3 0-6 3-6l3 1c3-9 8-1 12-2l4 1 1 3-2 2h-1l-2 3-12 6-2 2c-4 4-8 6-13 5Zm-22-27c-3-4-1-8 0-12l1-7c2-1 3-5 7-3 2 5 4 10 0 15v3l-2 2-6 2Z"/><path fill="#272E38" d="m528 339 13-5h1c-2 4-4 8 2 11 1 1 2 1 1 3l-2 3-1 2-5-1c-2 0-3-1-3-2l-2-1c-1-3 2-4 2-7-1-2-5 1-6-3Z"/><path fill="#5B6475" d="M561 321c-2-1-1-2-1-3 4-3 8-7 13-8v1c-1 1-1 4-3 4-4 1-5 6-9 6Z"/><path fill="#303843" d="m573 355-11 5c-3-1-5-2-1-5l14-7c2-1 4-1 5-3 2-4 5-6 10-5l4-2c5 0 8-4 12-6 1-1 2-2 3-1l3 1c0 2-1 2-2 2l-10 5c-2 0-3 1-3 2 1 2 2 1 4 1 1-1 3-2 4 0-1 2-3 2-3 5 0 1 0 3-2 1-4-4-5 0-8 3h-2c-5-4-8 0-11 1l-6 3Z"/><path fill="#3D4450" d="M630 347c-1 0-2 3-4 1 0-1-1-2-2-1v3l1 3c-3 2-5-2-8-1-3-6-3-6 5-10 3 1 6 2 8 5Zm-87-13h-1c1-5 6-4 9-7l4-1h1c0 3-2 3-4 4l-9 4Z"/><path fill="#00080E" d="M471 198c-3-2-3-5-3-8-4 4-10 2-15-4l3-14c2 5 0 9 2 14 3-7 4-15 5-22v-2c5 0 3 4 4 6 4 3 1 7 2 9 1-2-1-6 3-7l1 3-1 22-1 3Z"/><path fill="#3D4450" d="M445 141c0-2-2-4-1-6l1-1h1l5 14v3c-4-2-3-7-6-10Z"/><path fill="#272E38" d="m362 552 4 4h1c3 0 4 1 5 3l4 6c2 1 0 3-1 5 0 2-2 4-3 5 1-1 2-3 4-2h4c-1 4-3 8-9 8l-3 2c0 5-3 3-5 2l-2-1c-5 4-7-3-11-3-2 0-2-2-1-3l2-11 1-2c2-3 4-2 7-1-2-3-4-6-2-9l5-3Zm-18 40 1-3c0-1 0-2 2-2l1 2v3c-1 4-2 8 4 6l4 2-1 1c-6 0-5 4-3 7 0 2 3 4 0 5-2 2-5 0-7-2-4-6-4-13-1-19Z"/><path fill="#3D4450" d="M263 527c7-3 13-8 19-12 3 1 1 2 0 3l-6 4c-4 4-8 7-12 13l-2-1c-3-2-1-4 0-6l1-1Z"/><path fill="#5B6475" d="m407 624-1 3c-3 1-3 3-2 5 2 2 3 0 4 0h2c3 3 2 6 0 9l-4 1c-3-2-3-5-4-8-2-4 1-8 0-12l3 1 2 1Z"/><path fill="#222833" d="m326 501-13 11 1-3 2-3c0-5 5-5 7-8 2-4 6-6 10-5 1 2 0 3-2 3-2 1-4 2-5 5Z"/><path fill="#272E38" d="M393 614c-3 0-6-2-9 0-2 1-3-3-4-5-1-1 1-2 2-3 2-1 4-1 5 1 2 2 2 4 5 6l1 1Z"/><path fill="#3D4450" d="M358 640c-2 2-2 5-5 6l6-15h2c1 0 2 1 1 2l-4 7Zm44-6c2 1 4 4 4 8-2 8 0 17-2 25l-1 9c0 2 0 4 3 4l1 2-2 2-7 1c0-13 1-26 4-39l-1-8 1-4Z"/><path fill="#4D5462" d="m266 543 1 2c-3 2-4 7-7 9-2 1-3 3-4 1-2-2-1-3 0-4l10-8Z"/><path fill="#272E38" d="M468 482c-4 1-6 0-7-3-2-5-7-9-5-16 0-3-3-3-4-4-5-2-7-6-8-11 0-3-1-5-4-5-4 0-7-1-8-5-1-2-3-3-5-1l-7 4c-2 3-5 1-7 0l-4-4c2-2 5-4 1-7-1-1-1-2-3-1v6c-3 0-6-1-8-4-12-3-6-11-7-18 3-2 5 0 7 0l2 1c3-1 6-2 9-1 4 0 6 1 6 5l3-6c-4 1-4 1-6-3 0-2-1-3-2-3-3-2-4-5-2-8s4-1 6-1 4 2 5 1c2-2 0-3-1-5l1-4c3-1 6 1 8 3l3 2c3 1 5 1 8-1 2-2-1-4-1-6 1-3 4-4 6-6 4-1 3-3 2-5 0-1-1-2 1-3l2 1c3 3 7 5 6 11 0 2 1 3 3 4 3 2 6 4 7 8l1 2c6-2 2 3 4 5 0-1 2-2 4-1v6c1 2 0 4 2 4h5c7 0 9 2 7 10v7l1 1 2-1c0-4 5-5 5-9h2c2 5 8 6 10 11l-8-2c-2-1-4-2-6 1-1 3 3 5 0 7s-5 1-8 0l-7-4c-3-3-7-4-12-4l4 5c1 2 2 3 4 3 7 0 11 4 15 10-1 3-2 6 1 8-6 0-7 5-10 7-4 5 1 7 3 11-5-4-10-5-15-2v1l1 2v4l-2 3Z"/><path fill="#2F3642" d="M280 252c4-5 10-8 16-10h3l-1 3c-5 3-6 9-11 12 2 3 4 1 5 2l2 1c1 1-1 1-1 2-3 1-6-2-7 2l2 2 6 2v3c-1 1-2 0-3-1h-1l-1-1-2-1c-3 3-5 11-3 15l2 1c6 0 5 2 1 5v3c2 2 2 6 4 7 5 3 7 9 14 10 1 0 4 0 1 2-1 1 1 3 2 4v4c-1 1-2 2-4 1l-8-1c-3 2-4-1-7-2-3-3-6-5-10-4l-4-1c-3-2-4-8-9-7l-6-2c-6 3-7 3-13-3 0-5 0-9-3-14h3l1 1c4-1 7 3 12 1 3-1 7 1 11 1 2 0 4 1 5-2 2-5-1-9 0-13l1-5c2-3 4-6 1-10v-4c1-1 2-1 2-3Zm131 218-2 1c-8 1-8 1-10-7 0-2-1-2-3-1-4 0-7-1-9 2-2 1-4 1-5-2l3-5c2-2 3-5 7-4-3-4 0-6 2-8 4-3 9-1 11 3s5 5 10 2h2l1-1c2-2 4-3 7-2 2 1 2 3 1 5l-3 4c-1 4-2 8-8 8v3l-2 1-2 1Zm46-107c-2-2-4-2-6-2 0-2 2-3 3-3 6 0 9-4 13-7 1 0 3-1 0-2-2-1 0-2 1-2 7-1 8-7 9-14 2 4 1 7 0 10-1 2-1 3 2 5l12 4c3 1 5 4 5 7-1 4-4 4-6 4-4 0-8-1-10-5-1-2-3-2-4-1l-9 8c-1 1-2 3-1 5 2 3 4 1 5 0 4-2 7-4 11-4-4 5-11 8-17 9-2 1-6-5-5-7 3-4-1-4-3-5Z"/><path fill="#303843" d="M426 454c-1-2-1-4-4-5-2 0-2 2-3 4l-1 1-3-3c2-4 0-7-3-10 6 1 8-5 12-6l6-2c3-1 4-1 4 2 0 4 2 6 6 6h6c1 1 2 1 1 3-2 7 3 11 7 15 1 1 3 2 2 4l-6-2c-5 2-6 0-7-4l-3-5c-1-2-2-2-4-1-2 2-7 3-10 3Z"/><path fill="#313944" d="m540 501-6-6c1-2 2-2 4-1 3 2 9 3 6 9-1 2 2 3 4 3 3 0 5 2 7 5 3 5 9 9 14 13 0 2-1 2-2 3l-1 1h-2l-5-2c-4-5-9-8-14-11l-1-1c-1-2-3-2-5-3-4 0-7 2-11 3h-4l1-4v-2c-5-4-7-11-12-14-1 0-2-1-1-2h3c6 2 14 3 19 10 1 2 4 3 6-1Zm86-81c3 3 6 6 5 10 0 2 1 2 2 3 2 4 0 4-3 4-6-2-7-1-7 4 0 6 0 6-9 6-3-2-5-2-8 0-5 2-10-1-16-4 6-2 10-2 15-2 2 0 3 0 4-2 0-2-1-3-3-3l-2-3c2-3 3-2 5-1 1 1 2 3 5 2l4-5c2-4 4-7 8-9Z"/><path fill="#00080E" d="M659 524c5-1 10 2 15 4l-6 16c-7-4-15-5-22-11 6-1 8 3 12 3-5-5-10-10-17-12-8-2-15-6-23-5-3 0-4-4-6-6v-3c2-2 5-2 8-1l16 8c2 1 3 2 6 1l1 1 11 5 10 7 1 1 1 1-6-5c-1-1-2-2-1-4Z"/><path fill="#2F3642" d="M414 328c1-4 3-7 7-6s6 5 5 8c-1 7 1 10 6 13 3 2 6 6 8 10 2 3-2 7-6 6-5 0-9-4-13-8l-1-1 2-1 3 1c4 0 5-3 3-5s-4-5-7-5c-9-3-9-3-7-12Zm82 46c4-2 7-4 12-1 2 1 5-1 8-1l3 1c0 2-1 2-2 2h-11c-2-1-4 0-4 3 0 2-1 3-3 2l-2 1v2c2 3 5 4 8 5l9 1c-2 3-4 3-6 4-6 0-12 0-17-3h-4c-1 1-2 2-3 0v-3l5-5c-3-1-4 2-6 2h-3c-1-2 0-3 2-3 3-2 5-7 10-6l4-1Z"/><path fill="#272E38" d="M382 463c2 1 3 1 4-1 3-5 6-3 9 1l-2 8v3c2 0 2 3 4 4 1-1 2 0 2 1 0 2-1 2-2 3l-7-1-5 1c-3 3-6 4-9 1s-3-7-2-11c1-3 5-4 5-8l3-1Z"/><path fill="#303843" d="M490 448c-4-1-6-4-9-6-2-2-4-3-6-1-1 2-2 1-3 0-3-4-4-10-10-11l-1-1c0-2 1-2 2-2 5 0 10 0 14 3l9 5c6 3 7 2 8-3l3 2c3 3 3 7-1 8s-5 3-6 6Z"/><path fill="#313944" d="M357 309c4 5 10 9 13 14l-4-2c-1-1-3-3-5-2-3 2-5 0-6-2-2-3-3-4-7-3s1 4-1 6c-2 1-3 0-3-2 0-3-4-7 0-9l2-2c3 1 2-1 2-3l-6-11c-1-2-2-5 0-6 3-2 6-2 8 1 3 5 4 10 3 16l4 5Z"/><path fill="#272E38" d="m504 521 5 5c2 4 0 7-5 8l-2 3c-1 4-4 2-6 2-2-2-4-1-5-4s-4-3-7-3c-1 1-2 2-3 1l-11-8c3 1 7 0 9-2 3-2 6 1 9 0 4-2 4 3 5 5 2 1 3 3 5 2s0-3 0-5c-2-2-2-4 2-5l4 1Z"/><path fill="#222833" d="m631 360 23-1c3-1 6-1 9-4-7-1-13 0-19-4l11-4 3-1c5 5 12 4 18 7h-6c-1 0-3-1-4 2 0 2-1 5 3 6l5 2-15 3-2-1c0-4-3-2-5-2l-14-1c-2-1-3-1-3 2-2 0-5 0-4-4Z"/><path fill="#303843" d="M467 482v-5l3-2c2 1 6 0 6 4 0 3 3 2 4 5l2 2 2 1h1l3 4c1 3 0 6-2 7-2 2-3-1-4-2-2-2-4-6-6-4-3 2 1 4 2 6 2 7 7 13 9 21h-1c-6-12-14-22-18-35l-1-2Zm-70-255c4-1 7 1 9 3l9 7c4 1 4 5 4 9v8c0 2-1 2-2 2l-2-2c-3-8-11-12-16-19-2-3-3-5-2-8Zm1 190c-1-3-4-2-5-4s-4-3-3-4c1-2 3-1 5-1h1c6-4 11-2 17 1 2 2 5 2 8 2 2 0 4-1 6 1-7 0-9 5-11 9-1 2-2 3-5 2l-2-3 3-1 2-2c0-1-1-2-3-2-3-1-6 0-9 2h-4Z"/><path fill="#272E38" d="m459 334 1 13c0 3-1 5-4 5h-1c-7 5-9-1-13-5l-6-7v-4h6c6-1 7 0 6 6 0 3-2 7 1 8 3 0 3-4 5-7s2-6 5-9Z"/><path fill="#313944" d="M475 293c4 2 5 4 3 8l-6 13-1-1c1-6 0-10-4-14s-3-10-2-15c0-2 2-3 4-3s3 2 3 4c0 3 0 6 3 8Z"/><path fill="#4D5462" d="M475 628c-7 1-7-1-10-7-4-11-3-22-1-33 1 4 6 8 2 14-1 1 0 3 1 4 2 7 6 13 7 20l1 2Z"/><path fill="#313944" d="M475 541c2 2 3 3 2 6-1 2-1 5 3 5 2 0 3 2 3 3-1 2-3 1-4 1-2-1-4 3-6 1-2-3-5-6-6-10l-3-15 1-2c1-1 2 0 2 1l8 10ZM340 395l-4-1c-2 0-4-2-4-4 1-2 2-4 4-4 11-1 22-1 32 5 4 3 2 6 0 8-2-2 1-4-1-5-2-2-4-2-6-2l-7-1c-5-2-9 2-14 4Z"/><path fill="#303843" d="m368 436-1 6-5 2c-3 0-5-3-8-5l2-1 2-3c-1-3-3-5-5-6-1-2-2-3 0-4 1-2 9-3 11-2 4 3 3 6 1 9v1c0 2 2 2 3 3Zm52-47 4 9v3c-1 2-2 1-3 1l-11-4c-3 0-7 1-7-3-1-3 2-5 4-6 4-1 8-4 13 0Z"/><path fill="#2F3642" d="M367 480c-2 2-7 2-6 5s5 2 7 4l6 1c2 0 3 1 4 3l-1 4h-4c-4-2-8-2-11-6l-4-2c-2 0-4-1-3-3l-1-6c-1-2-1-3 1-4 3-1 3-4 5-5 2 2 3 6 7 7v2Z"/><path fill="#313944" d="M451 482c-2 4-2 7-1 10l-1 5c-1 1-2 5-4 4-3 0-1-3-2-5-3-9 3-19-2-29 5 4 6 9 9 14l1 1Z"/><path fill="#2F3642" d="M298 420c3-1 6-3 10-1 2 2 4 4 3 7s-3 4-6 4c-6-1-10-5-14-8-1-1-2-3 1-4 2-2 4-4 7-3-2 2-2 3-1 5Z"/><path fill="#313944" d="M397 389c2 0 3 1 3 3l-1 8c0 3-1 4-4 2l-8-7c-2-4-6-5-9-6s-6-2-9-6l13 4c5 3 9 5 15 2Z"/><path fill="#2F3642" d="M420 379c-2 3-4 2-5 0-2-4-5-6-9-3-1 1-3 0-3-1l-6-11c-1-2-1-5 1-5 3-1 7-1 8 1 3 6 8 10 12 16l2 3Z"/><path fill="#4D5462" d="m613 496 2 4h-4c-7-2-13-5-21-5l-8-5c-2 0-3-2-3-4h12c3-1 5 1 8 2l3 4c3 2 6 5 11 4Z"/><path fill="#303843" d="M322 466c3 3 3 6 1 8-1 3-4 3-7 3l-10-2c-2 1-3-2-2-4 3-3 6-4 10-5h8Z"/><path fill="#313944" d="M417 293c1 4 3 8 2 14-4-5-6-10-8-15-2-6-3-12-7-17l-1-1c-1-2-2-5 1-6 3-2 4 2 4 4 2 6 3 13 9 17v4Z"/><path fill="#4D5462" d="m477 602 2 11-1 1c-3-2-3-4-3-6-3-9-3-18-7-26l-1-4 1-3c2 0 2 1 3 2 7 7 5 16 6 25Z"/><path fill="#313944" d="M421 277c4-4 7-3 9 1 1 3 2 5 1 8-1 1-1 2 1 3 3 3 2 8 3 12 0 2-1 2-3 2-2-1-3-2-3-4-1-8-5-15-8-22Z"/><path fill="#272E38" d="M528 375c-3-2-3-5-5-8 1-3 4-3 5-5h8c4-2 6 0 6 5 1 3-1 3-2 4-2 2-5 2-7 5-2 1-3 0-5-1Z"/><path fill="#2F3642" d="M339 437c4 0 6 5 10 3-7 3-14 5-21 5-5 0-6-5-9-7-1-2 1-2 2-2l18 1Z"/><path fill="#4D5462" d="m600 532 1-2h1l7 4v1c5 1 11 0 14 6-4 1-6-2-9-2l-1 1c4 4 8 7 11 12l-2 1-19-11c-3-2-5-4-3-8v-2Z"/><path fill="#313944" d="M473 256c3 6-3 9-4 14l-2-1c-5-4-6-17-3-21l2-2 1 2c-3 5 2 5 5 6l1 2Z"/><path fill="#222833" d="M643 519c-5 2-9 0-13-2-6-3-11-6-18-7v-3c1-2 2-3 4-2 7 0 12 2 17 7l9 6 1 1Z"/><path fill="#2F3642" d="M544 471c-1 4-4 5-8 4s-5-4-4-8l2-4c1-3 1-5 4-5s4 3 5 5l1 8Z"/><path fill="#272E38" d="m367 480-1-2-3-9c-1-2-4-2-2-4s5-6 7-4c3 2 5 0 7-1s3-2 4-1c2 1 1 3 0 4v1c-4 3-9 6-9 13l-3 3Z"/><path fill="#313944" d="M379 333h3v-3l-1-1c-2-2-4-4-3-6 2-3 5-1 8 0l6 7c3 4-1 5-3 7-1 3-3 1-5 0l-5-4Z"/><path fill="#2F3642" d="M567 437c-5 1-9 4-14 1-3-2-3-6 1-7 3-2 7-2 11-3 3 0 4 2 3 5l-1 4Z"/><path fill="#303843" d="m370 513-2-2c-2-2-2-3-1-4 2-2 2 1 4 1l1 2c2 0 2-2 2-3 0-2-1-4 2-5 2 0 4 3 4 5 1 4-1 9-2 13 0 1-1 2-3 2s-2-1-2-3l-2-4-1-2Z"/><path fill="#2F3642" d="M382 430h-5c-2-1-5 0-6-3s2-4 4-6c3-3 6-3 10-2 2 1 2 3 2 5 0 3-1 6-5 6Z"/><path fill="#313944" d="M488 423c-1-7-2-9-9-8l-6 1c-2 0-3 0-4-2s1-2 2-3l3-1c4-1 7 1 10-2l5 2c2 2 3 3 6 3-4 2-4 7-7 10Z"/><path fill="#272E38" d="M288 258c-1-5 3-12 10-15l1-1 2 1c4 7 3 8-3 11l-10 4Z"/><path fill="#2F3642" d="M528 362c2 4-1 4-4 5l-11-1c-2-1-5-3-4-5 0-3 2-3 5-3l8 1c2-1 4-1 5 2l1 1Zm-159 9c-3-4-7-7-11-9-1-1-3-1-2-3s3-1 4-1l7 4c4 3 9 4 14 1 1-1 2-2 3 0l-2 2c-4 2-9 2-9 8l-4-2Z"/><path fill="#313944" d="m353 565-2-2v-7c1-5 2-8 8-6 2 1 1 3 1 5-3 2-2 4-1 6l4 3 2 3c-1 2-2 0-3 0l-9-2Z"/><path fill="#5B6475" d="m459 642-6-11c-3-3-2-6 0-10 3 1 4 3 5 5l2 3c2 2 7 1 7 6l-5 1c0 2 0 4-3 6Z"/><path fill="#2F3642" d="M363 402c6-2 11 2 17 1 1 2-1 2-1 3-7 2-14 5-21 3-1-1-3-1-3-3l3-2 5-2Z"/><path fill="#3D4450" d="m277 457 4-1h11v2l-1 4v1l-1 1c-1 2-3 2-4 1-1-2 2-3 1-5-3 1-6 0-7 4 0 2-2 2-4 2l-8-2c-1 0-2-1-1-3 2-3 4-2 7-3h1l2-1Z"/><path fill="#313944" d="M444 284c-2-1-3-3-3-6 0-2-1-3-3-4s-3-3-3-5v-3h4l5 2c2 1 4 2 3 4-2 4 0 8-3 12Z"/><path fill="#4D5462" d="M275 311h3c5-1 7 2 11 4l7 4c0 1 2 3 0 5h-1l-1-1-2-2c-4-5-9-6-15-7-7-2-12-5-17-10l-1-2h6c5 2 6 7 10 9Z"/><path fill="#3D4450" d="M411 468h4v10c-2 4-2 8-3 13 0 1 0 3-2 3s-2-2-2-3c-3-5 2-8 2-13l1-7v-3Z"/><path fill="#313944" d="m387 306-10-14c3-2 6 0 9 0 3 1 3 3 3 6l-1 8h-1Z"/><path fill="#2F3642" d="m390 384-8-6c-2-2-3-4 0-6 2-2 4-1 6 2l6 6c1 2 3 4 1 6-3 3-4 0-5-2Zm-88-140-3-1c-1-3 1-4 2-6l4-2c3-1 5 1 8 3h5l1 5c-1 2-4-1-6 1l-1 5-4 4-1-7c0-3-2-5-5-2Z"/><path fill="#303843" d="M444 381c1 4-2 5-5 6-6-4-7-10-8-16 3-1 7 0 7 4s2 5 6 6Z"/><path fill="#3D4450" d="m406 435-2-5c-1-2 0-4 2-5 1-2 3 0 4 1l6 7c2 1 1 3-1 4h-5l-4-2Z"/><path fill="#00080E" d="M614 434c1 1 2 1 2 3 0 1 1 3-1 4-2 0-3-1-3-3 0-4-3-5-6-6h-2l-5-1c-3 0-5-1-7-3l7-3c4-1 8-1 9 4l6 5Z"/><path fill="#303843" d="m508 485 10 3c-7 0-14 3-20-1-2-1-5-3-3-5 1-3 4-2 6-1l7 4Z"/><path fill="#313944" d="M330 424c1-6 6-3 8-4 3-1 5 1 7 3 1 3-1 4-3 4-4 2-8 0-12 0-2-1 1-2 0-3Z"/><path fill="#303843" d="M502 552c2 3 1 5-2 5-3 1-4 0-6-2-2-4-3-7 0-11h3c0 4 3 5 5 8Z"/><path fill="#313944" d="M537 447c1-3 5-4 8-2l6 6c2 1 3 3 1 4-1 2-2 0-4 0l-11-8Zm-174-96-5-4c-1-1-2-3-1-5 2-3 4-1 5-1 4 2 5 6 8 8l3 3h-5c-2 1-3 0-5-1Z"/><path fill="#4D5462" d="M325 299c1 1 3 1 3 3-6-1-16-11-21-23 2-1 2 0 3 2l9 9 1 1 1 1 2 1c1 2 3 3 2 6Z"/><path fill="#2F3642" d="m299 400-1-3c3 0 4-4 7-3 1 2-3 2-2 4s3 1 5 1c3 0 5 0 8 2 1 2-1 2-2 2h-6l1 1c-2 3-6 3-8 0l-2-4Z"/><path fill="#313944" d="M459 249c0-3 0-7 2-10v-4c-1-2-2-4-1-6 0-1 1-3 3-3l1 4c2 7-1 13-4 20h-1v-1Z"/><path fill="#4D5462" d="M444 285v-1l5 7c4 3 1 8 2 12-1 2 1 3-1 4l-2-2c0-7-5-12-4-20Z"/><path fill="#313944" d="M344 538c4-1 4-7 10-6-6 4-2 13-10 15l-2 1c-1-3 1-4 1-7l1-3Z"/><path fill="#303843" d="m403 331-4-9c0-1-1-2 1-3l3 1c3 2 1 5 2 7l5 14c-4-2-5-6-7-10Z"/><path fill="#00080E" d="M453 621v9c-4 2 0 6-3 9l-5-8c3-3 4-8 8-10Z"/><path fill="#313944" d="M375 543c0-4-3-9 0-13-2-2-3 1-4 0 1-4 5-3 8-4v3l-1 12-1 3-2-1Z"/><path fill="#272E38" d="M362 469c4-2 5 0 5 3l-1 5-2 1c-1 0-3 4-5 1-2-1 0-4 1-6v-2l2-2Z"/><path fill="#313944" d="m428 469-1-10c0-1-1-2 1-3l2 2c2 3 1 6 1 9 0 4 0 7 4 8 1 0 2 1 1 2h-3c-3-1-3-4-5-8Zm89 62c0-2-2-3 0-5l5-1c3 1 6 3 8 7-5-3-8 5-13-1ZM375 251c2-1 3-1 4 1l-1 4c-3 4-7 4-12 1 3-2 5-5 9-6Z"/><path fill="#3D4450" d="M474 629v-2l4-2 1 4c2 1 2 2 2 3-1 4 0 8-2 12-5-4-4-9-5-15ZM365 452c-1 3-9 6-11 5s-1-3 1-4l2-2c2-2 3-4 6-2l2 3Z"/><path fill="#4D5462" d="m499 267-1 2c2 4 2 7-3 8-4 0-5-1-4-5l6-14c2 2 1 4 0 5v4h2Z"/><path fill="#303843" d="M626 380v4c-3-2-5 1-8 1-5 0-11 0-17 2h-2c6-5 12-4 18-5 3-1 6 0 9-2Z"/><path fill="#5B6475" d="M478 644c3-5 1-10 2-15 3-2 3 1 3 3-1 5-3 10 0 15 1 1-1 3-3 2s-2-1-2-3v-2Z"/><path fill="#303843" d="M528 434c6 3 13 1 17 6-6 0-11 0-16-3-2-1-2-1-1-3Z"/><path fill="#4D5462" d="M564 528h3l2 1c1 2 3 3 5 3 3 1 4 1 4 4v4l2 2c-7-2-12-8-16-14Zm-100 36-3-13c4 3 6 6 5 10 0 4 3 7 3 11-4-2-4-5-5-8Z"/><path fill="#313944" d="M535 551c-5-2-7-7-11-11-1-1-1-2 1-3l11 15-1-1ZM348 356c1 1 2 3 0 2-4-2-10-3-12-8l-1-2h3l10 8Z"/><path fill="#2F3642" d="M483 372c3-2 5-4 9-4-4 5-8 7-13 10l-2-1c-1-1 0-1 1-2l5-3Z"/><path fill="#4D5462" d="M604 432h1v3c-6 1-10-3-15-6l1-1c3-1 5 3 8 1l5 3Z"/><path fill="#00080E" d="m397 227 2 7-2 1c-2-1-3-1-3-3 0-1-1-2-3-2l-1-2c0-2-1-4 2-4 3-2 4 1 5 3Z"/><path fill="#222833" d="M579 485c3 4 7 6 11 9-3 1-5-1-7-2l-4-2c-1 0-3 1-3-1l3-4Z"/><path fill="#00080E" d="M520 477h-2l-10-5c-2-2-4-2-4-5 5 0 8 3 12 5 2 0 4 0 5 3l-1 2Z"/><path fill="#303843" d="m538 493-3 2c-4-2-6-6-11-6 7-4 11 0 14 4Z"/><path fill="#4D5462" d="M558 527c-6-2-10-8-15-13h2l2 1c4 2 8 6 12 10l-1 2Z"/><path fill="#2F3642" d="M534 375c1-5 6-3 8-7l8-3c-4 5-10 7-16 10Z"/><path fill="#4D5462" d="M504 467c4 4 10 5 13 10-6-1-11-4-15-9v-1h2Z"/><path fill="#00080E" d="m542 558 5 6c-6-1-6-7-10-9l-1-1h1l5 4Z"/><path fill="#5B6475" d="M206 333c2-3 5-4 8-2l8 3c-1 1-3 0-3 2l11 2h1c3-5 11-5 10-12l2-1 3 10 1 1c0 2-2 3-1 5 2 3 1 6-2 8l-5 1-2-4c-1-2-2-1-4-1h-2c-9-3-17-7-25-12Z"/><path fill="#222833" d="m238 347 6 1c3-2 6-1 9 0 2 3 3 6 0 9-3 2-6-1-10-2h-6c-1 4-5 2-8 5h-2c-3-3-8-3-12-6-2-5 1-7 5-8l3-2h5c3 0 5 3 8 3h2Z"/><path fill="#3D4450" d="M253 357c1-2-2-4 0-7s0-3-1-4c-3-2-7-4-6-9v-2h2c1 0 2 0 2 2s2 3 4 4l18 10 3 2 1 3c-1 4-4 5-7 7l-1 1-4-1-6-5h-1l-2-1h-2Z"/><path fill="#272E38" d="M259 302v1c-2 3-5 5-5 9-4 0-6 2-6 6l1 4c6 0 11 6 16 0 0 6-1 7-6 6l-15-5c-3-3 0-6-2-9v-3c0-3 0-7 3-10l1-1 5 1c2 1 5 3 8 1Zm-3 81 2 1c1 0 4-1 3 2 0 3-2 2-4 2-4-2-8 0-12-3-1-1-3 0-5 1-2 2-5 2-8 1 3 5 6 6 11 5 4 0 7-1 11 2-4 2-8 4-13 1h-3c-1 0-3 3-5 1-1-2-3-5-3-8 0-4 4-4 7-4 2-1 5 0 6-4 3-4 6-1 9 0l4 3Z"/><path fill="#5B6475" d="M197 365c5-5 11-3 17-4 5-1 10 1 13 6l1 5c-3 2-6 1-8-3-5-5-12-3-17-5l-2 1c0 4-2 1-4 0Z"/><path fill="#4D5462" d="M215 352c5 2 11 3 14 8l-1 4c-4-2-9-2-12-6h-1l-1-1-2-1c-1-1-2-3 0-5l3 1Z"/><path fill="#272E38" d="m215 358 9 2c2 1 3 2 3 4v3l-13-6 1-3Z"/><path fill="#4D5462" d="m236 448-1 5-6-1c-3-4-1-8-3-12l1-1 4 1c1 1 0 4 3 2 3 1 3 1 2 6Z"/><path fill="#272E38" d="m421 153-2-10 10-3c-1 5-3 10-8 13Z"/><path fill="#303843" d="M410 641c-1-3-1-6 1-9 3 0 3 3 3 5 1 9-1 19-1 28l-3-18v-6Z"/><path fill="#222833" d="M577 567c0-3 3-5 4-8 2-2 4-1 6 0l10 6c2 1 5 2 7-1 1-2 3-2 5-2 3 3 7 3 8 8v1c1 2 0 2-2 3l-3 1c-3 0-4 1-2 4l4 10-1 1-6-4c0 5 4 7 6 11l-1 1c-5-3-7-8-9-12-1-2-3-3-5-3s-2 2-2 4l1 1-1 1-8-8c-1-2-4-3-5-6 0-2 0-3 2-4h2l6 4c-2 0-3-2-5-3-2-2-3-6-8-5h-3Zm38 45c-4-5-9-9-12-16 6 3 10 7 13 13l-1 3Z"/><path fill="#222833" d="M616 575c-3-3 0-3 1-4l12 6 1 1-3 2-11-5Z"/><path fill="#4D5462" d="M197 334h3c6 2 9 7 9 12-4 2-6 1-7-3-1-3-6-4-5-9Z"/><path fill="#5B6475" d="m681 464-5-2-2-12 3-1 1 1c1 3 3 5 3 8l3 2c0 2 0 3-3 4Z"/><path fill="#4D5462" d="M682 459c-4-2-4-4-5-8 2-2 4-3 7-3 3 2 6 3 5 7-2 4-5 3-7 4Z"/><path fill="#5B6475" d="m684 450-6 1h-1c-2-5-1-8 5-11l2-1 3 8-3 3Z"/><path fill="#3D4450" d="M653 553h-1c-1 2-3 1-5 1l-6 1c-2-4-5-8-4-12 0-3-2-4-4-5-5-3-9-8-15-9l-1-2c1-2 2-2 3-1 4 4 10 4 14 7l24 16-5 4Z"/><path fill="#00080E" d="M640 555c4-2 8-2 12-2-1 3-3 3-5 2-2 0-3-1-4 1-2 2 0 5-2 6l-1 2c0 2 0 3-2 4-3 1-5-1-6-2l-11-10 1-4h2l1 2 13 4c1 0 2-1 2-3Zm13-2c1-2 3-3 5-3h2l6-3 9 7 1 3-4 1-8-6c-4-3-7 1-11 1Z"/><path fill="#3D4450" d="M624 537c5 1 5 7 9 9l1 2c-1 1-2 0-3-1-3-2-5-6-7-10Z"/><path fill="#4D5462" d="m637 567 3-3 11 5c-1 3-4 5-7 8l-4-3-4-1h-1c-1-2 0-4 2-6Z"/><path fill="#222833" d="m682 440-5 10h-2l-11-1c-4-4-10-6-12-11-2-4 1-6 4-6 3-1 6 0 10 2s9 2 14 5l2 1Zm-32 41c-6-1-10-4-13-10-1-3-5-3-7-5 9 0 9 0 7-7 4 0 7 3 10 5v2c-5 3-1 3 1 4 3 0 4 1 3 4l-1 7Zm-1 7c4 2 8 4 12 3l4 2 6 11c-1 2-2 1-2 0-8-6-17-10-26-13-1-1-4-1-4-3 1-2 3-1 5-1l5 1Z"/><path fill="#3D4450" d="M653 438c4 4 9 5 12 10-1 3-3 3-5 1l-2-1-5-2c-6 2-10-2-15-5l-8-4c1-1 4-1 3-4l3-1 5 3c2 2 4 3 6 1 3-1 4 0 6 2Z"/><path fill="#222833" d="M633 491c4 0 6 3 8 5l6 2c5-1 8 2 11 5l1 3h-2c-8 0-14-4-20-7-2-1-3-2-3-5l-1-3Zm5-50c4 0 8 1 10 3s3 1 4 1c2 0 4-1 5 2-1 1-3 0-5 2-3 2-5 1-8-1-4 0-7-4-11-6 1-2 3-1 5-1Z"/><path fill="#3D4450" d="M663 533c-4-1-5-6-9-7s-8-4-11-7c6 0 10 4 16 5 1 5 7 5 10 9-1 2-2 2-4 1h-1l-1-1Z"/><path fill="#4D5462" d="M358 212c2 0 3 2 4 4 0 5 0 10 2 15 0 4-2 3-3 1-3-4-5-9-3-14v-6Zm-59 7-1-7c1-2 2-1 3-1-1-1-1-2 1-4h3l1 2 1 2c2 3 3 7 6 10s1 8-1 12h-2c-5-4-10-8-11-14Z"/><path fill="#222833" d="m299 218 12 15 2 4c-3 3-5 0-8-1-5-2-6-7-9-11l-1-3v-3c1-3 2-2 4-1Z"/><path fill="#5B6475" d="m305 206-3 2c-2 1-3 0-5-2 0-3-3-5-3-9l-4-16 3 1c4 8 11 15 12 24Z"/><path fill="#4D5462" d="m297 224 8 12-2 2c-3 1-3-1-5-2-1-3-5-4-4-8 0-3-4-5-2-9h3l1 1 1 4Z"/><path fill="#3D4450" d="M580 590c6 1 5 7 8 10l-18-7h-1l7 7c1 2 2 4 1 6-2 3-4 1-6 1l-8-3 7 17c2 3 5 7 2 9s-5-3-7-5-5-5-3-9c1-1-1-1-2-1l-9-7v-3c2-4 1-7-2-10-1-3-2-5 0-7l5-1c4 2 7 6 10 9l3 4-4-4-6-11c0-7 4-10 10-6 1 1 2 3 4 3l7 8h2Z"/><path fill="#272E38" d="m555 589-10-1c-4-1-8-2-10-7 1-6 6-8 10-10 8-3 16-5 25-1l2 2c0 3-3 4-5 7-4-1-7 0-9 5 0 3-1 4-3 5Z"/><path fill="#00080E" d="M536 595c2-3 1-5-1-7-1-2-4-3-1-6l3 1c1 4 4 4 7 5 3 2 4 4 4 8-1 2-2 4 0 6v4l-3 1c-4 1-5-2-6-4-2-2-2-5-3-8Z"/><path fill="#4D5462" d="m548 606-4-7c-2-3 0-2 2-2h3c3 2 3 5 4 8l-1 2c0 1-1 2-2 1l-2-2Z"/><path fill="#3D4450" d="M536 595c3 3 4 9 8 12-2 3-3 1-4 0-4-3-4-7-6-10l2-2Z"/><path fill="#222833" d="m622 551-1 4c-3-1-5-4-10-4h-2l-1-1h-2l-1 4c-6 1-12-3-13-11-2-7 3-7 8-9 2 7 8 9 13 12l9 5Zm15 16c1 2-1 3-2 5l-13-15c5 0 8 5 11 7l4 3Z"/><path fill="#222833" d="m616 558 7 6c0 2-1 3-2 3l-8-2-2-2c-1-3-4-4-3-7l1-1c2-1 3 1 5 2l2 1Z"/><path fill="#00080E" d="M614 556h-4c-4-1-5-4-7-7 0-2-1-4 3-3l1 1 1 1 1 1 2 2 3 5Z"/><path fill="#272E38" d="M480 614c7 2 11-4 15-8-2 6-1 11-2 16l-3 4c-1 1-3 0-5-1l-5-11Z"/><path fill="#303843" d="M519 618c3 4 3 9 3 14-2-1-2-4-3-5-2-1 0-6-5-2l-2-3c-1-2-1-4 1-4h6Z"/><path fill="#3D4450" d="M510 625c5 4 6 9 5 15 0-9-9-13-10-21l5 6Z"/><path fill="#303843" d="m485 625 5 1 5 10-2 4-1 1c-3 0-2-2-3-4l-3-9-1-3Z"/><path fill="#4D5462" d="m278 273 1 9c0 2 0 4-3 4l-7-5c-1-3-3-4-6-6-5-4-7-10-10-14 0 2 4 4 3 7l-1 1c-5-2-9-5-15-5l-7-6c3-1 5 2 9 1l-16-13c-2-1-4-2-2-5 3-2 5 0 7 0l4-1h5c6 8 16 11 21 20l3 1h3c4 3 10 5 11 12Z"/><path fill="#5B6475" d="M256 269c-3-5-6-10-7-16 3 1 4 3 4 5 3 7 8 12 13 17 1 2 3 3 3 6-5-2-9-6-14-9l-16-8c7-3 11 0 16 5h1Z"/><path fill="#4D5462" d="M245 300c1 4 1 8-2 11l-18-8v-1h10c4 1 4-1 3-4l7 2Zm33-45 1 3c0 3 0 5-2 6l-3-1c-1-2-2-5-6-4l-10-11c-3 1-5-2-7-4v-1l7 3c0-3-3-5-4-8 6 2 11 5 16 10l8 7Z"/><path fill="#3D4450" d="m275 229 4 9-12-15c-1-2 0-4 1-3 4 2 8 4 8 8l-1 1Z"/><path fill="#5B6475" d="M258 248c4 2 7 6 10 9 2 2 5 2 6 5l2 1c2 1 3 3 2 6v4c-3 0-2-4-4-5-3 0 0 4-3 3-1-1-2-2-1-4 0-3-3-4-5-6l-7-13Z"/><path fill="#222833" d="M431 160v-9c7 9 8 14 4 20 0 1-1 2-3 2l-1-3v-10Zm-12 39c-4-1-2-5-4-8-1-4-2-6-1-9 1-1 2-3 3-2l1 2c2 6 1 11 1 17Z"/><path fill="#2F3642" d="m653 437-5 1c-3 2-5 0-7 0-3-1-4-3-5-5 3-2 6-1 9-1h5c1 0 2 0 2-2l-3-1-11-2c12-3 23 3 35-1-2 4-5 4-8 6l9 2 7 2-1 3c-5-1-11-1-17-4-2-2-5-1-8-1-2 0-3 1-2 3Z"/><path fill="#222833" d="m613 563-3 1c-3 0-4 1-5 3-2 4-4 3-7 1l-16-9c1-3 0-7 5-8 1-2 3-1 6-1l19 12 1 1Z"/><path fill="#4D5462" d="M612 562c-5 0-10-3-14-7l-5-3c-2-2-5-2-5-5l4-4c4 4 6 9 12 11 2-1 3 0 4 1l4 7Z"/><path fill="#272E38" d="M572 528c3 0 6 3 9 1l1 1c2 2 5 5 4 8-2 2-5-1-8-1l-4-3-4-4c0-1 0-2 2-2Z"/><path fill="#222833" d="m209 347-1-1c-1-5-4-8-7-12h2l3-1c9 2 16 8 24 10l-1 2-5 1c-4-1-6-4-9-5 2 2 5 2 6 5-1 4-5 3-6 6h-2l-1-1-3-4Z"/><path fill="#3D4450" d="M234 314c2 0 4 1 5 3 2 2 2 4-1 6-7 6-7 6-13-1l-3-5c2-1 3 1 5 1 1 0 3 2 2-2 0-2 2 0 3 0s3 1 2-2Z"/><path fill="#303843" d="M452 425v3c0 1-10 2-11 1-2-2-3-4-3-7s2-4 5-3l9 6Z"/><path fill="#222833" d="M559 524v1c-5-2-8-7-12-10 6 1 9 5 12 9Z"/><path fill="#4D5462" d="M246 337c2 5 7 6 11 9 1 2 5 2 4 4-2 3-4 0-6 0h-1l-9-2c0-4 2-8-4-10 2-2 3-1 5-1Z"/><path fill="#5B6475" d="m222 347-12-7-2-3h3c4 4 9 5 12 8l-1 2Zm321 242 2-2 4 1c0 3 1 4 2 5 5 4 3 8 3 13l-6-8-2-1c0-3-1-5-3-8Z"/><path fill="#00080E" d="m554 589 4-5c4 3 5 6 6 11 1 1 0 2-1 2l-9-8Z"/></svg>